<svg width="714" height="196" viewBox="0 0 714 196" fill="none" xmlns="http://www.w3.org/2000/svg">
<path d="M227 136.367L133.169 161.434C130.52 162.142 128.211 163.773 126.659 166.033L125.928 167.098C121.478 173.579 111.789 173.196 107.865 166.384V166.384C106.444 163.918 104.098 162.12 101.347 161.391L7 136.367" stroke="#552F72" stroke-width="14" stroke-linecap="round"/>
<path d="M42.2589 112.162L116.277 140.137L116.277 133.032L52.919 102.468L42.2589 112.162Z" fill="#EF7B54"/>
<path d="M191.745 112.162L117.727 140.137L117.727 133.032L181.085 102.468L191.745 112.162Z" fill="#83D0F3"/>
<path d="M16.9375 126.906L116.292 154.82V145.848L29.6419 112.949L16.9375 126.906Z" fill="#E94E1F"/>
<path d="M217.066 126.906L117.712 154.82V145.848L204.362 112.949L217.066 126.906Z" fill="#00B0D0"/>
<path fill-rule="evenodd" clip-rule="evenodd" d="M133.158 108.086C131.219 109.504 132.543 113.559 134.856 112.91C152.47 107.97 164.022 99.902 162.736 92.1826C161.007 81.811 136.757 75.996 108.572 79.1943C94.9409 80.741 82.8857 84.1127 74.2658 88.3555C72.1509 89.3965 72.968 90.2715 75.0954 89.2563C80.5028 86.6759 86.8921 84.4955 93.9202 82.9739C117.202 77.9335 138.677 82.0303 141.887 92.1246C143.531 97.2957 140.062 103.038 133.158 108.086Z" fill="#005697"/>
<path d="M101.719 111.812V39.1409C101.719 36.3189 99.4317 34.0312 96.6097 34.0312C93.7877 34.0312 91.5 36.3189 91.5 39.1409V111.812C91.5 114.634 93.7877 116.922 96.6097 116.922C99.4317 116.922 101.719 114.634 101.719 111.812Z" fill="#008AC5"/>
<path d="M119.887 111.811V56.1722C119.887 53.3502 117.6 51.0625 114.778 51.0625C111.956 51.0625 109.668 53.3502 109.668 56.1722V111.811C109.668 114.633 111.956 116.921 114.778 116.921C117.6 116.921 119.887 114.633 119.887 111.811Z" fill="#2FB4E9"/>
<circle cx="114.778" cy="40.8442" r="6.8129" fill="#008AC5"/>
<circle cx="96.6098" cy="23.8129" r="6.8129" fill="#2FB4E9"/>
<path d="M274.004 8.564V27.608C274.004 30.164 274.148 30.74 277.568 30.92C277.892 30.92 277.928 30.956 277.928 31.28C277.928 31.532 277.892 31.568 277.568 31.568C275.84 31.496 273.428 31.46 271.448 31.46C269.504 31.46 267.2 31.496 265.652 31.568C265.328 31.568 265.292 31.532 265.292 31.28C265.292 30.956 265.328 30.92 265.616 30.92C268.568 30.74 268.964 30.164 268.964 27.608V8.564C268.964 6.008 268.784 5.468 265.508 5.252C265.184 5.216 265.148 5.18 265.148 4.928C265.148 4.64 265.184 4.604 265.508 4.604C267.2 4.676 269.468 4.712 271.448 4.712C273.464 4.712 275.876 4.676 277.46 4.604C277.784 4.604 277.82 4.64 277.82 4.928C277.82 5.18 277.784 5.216 277.46 5.252C274.4 5.432 274.004 6.008 274.004 8.564ZM296.383 17.168V17.42C302.467 17.96 305.563 20.336 305.563 24.044C305.563 28.724 302.179 31.64 294.079 31.64C292.315 31.64 290.119 31.46 288.391 31.46C286.771 31.46 283.891 31.496 282.415 31.568C282.091 31.568 282.055 31.532 282.055 31.28C282.055 30.992 282.091 30.956 282.415 30.92C285.367 30.74 285.907 30.164 285.907 27.608V8.564C285.907 6.008 285.511 5.468 282.271 5.252C281.947 5.216 281.911 5.18 281.911 4.928C281.911 4.64 281.947 4.604 282.271 4.604C283.855 4.676 286.735 4.712 288.427 4.712C290.083 4.712 291.955 4.568 293.647 4.568C301.423 4.568 304.051 6.908 304.051 10.652C304.051 13.964 301.855 16.16 296.383 17.168ZM290.911 8.456V16.916C291.451 16.952 291.919 16.952 292.243 16.952C296.815 16.952 298.579 15.08 298.579 10.904C298.579 7.052 296.887 5.504 293.251 5.504C291.163 5.504 290.911 5.936 290.911 8.456ZM290.911 17.924V27.716C290.911 30.236 291.127 30.704 293.899 30.704C297.895 30.704 299.803 28.436 299.803 24.116C299.803 19.832 297.787 17.888 292.423 17.888C291.919 17.888 291.451 17.888 290.911 17.924ZM328.889 10.544H322.337C325.865 11.372 326.297 11.732 326.297 12.2C326.297 12.56 326.189 12.92 325.181 13.316C324.569 16.088 323.813 18.608 322.877 20.84C325.253 23.18 326.441 25.52 326.441 27.248C326.441 29.084 325.433 30.272 323.741 30.272C322.625 30.272 322.193 29.444 321.761 27.932C321.509 26.96 321.149 26.024 320.753 25.088C318.233 29.3 314.993 32.288 311.249 34.484C311.069 34.592 310.853 34.268 311.033 34.124C314.237 31.316 317.045 26.96 318.845 21.524C317.189 18.896 315.065 16.556 312.905 14.792C312.725 14.648 312.941 14.432 313.157 14.504C315.749 15.584 317.945 16.88 319.781 18.212C320.213 16.412 320.537 14.54 320.753 12.596C320.825 11.984 320.897 11.372 320.933 10.544H314.957C314.129 10.544 312.941 10.58 311.285 10.796L310.925 9.536C312.617 9.752 313.913 9.824 314.957 9.824H317.477V5.576C317.477 4.424 317.477 3.884 317.261 2.156C322.265 2.66 323.093 2.912 323.093 3.416C323.093 3.812 322.913 4.064 321.725 4.568V9.824H322.769C324.821 7.124 325.253 6.8 325.541 6.8C325.865 6.8 326.261 6.944 328.169 8.744C329.105 9.644 329.285 9.896 329.285 10.184C329.285 10.364 329.141 10.544 328.889 10.544ZM328.925 21.092C328.925 20.804 328.925 20.408 328.961 20.084C329.141 17.888 329.033 16.268 327.845 14.972C327.701 14.828 327.917 14.612 328.133 14.684C332.021 15.836 333.821 17.96 333.821 20.12C333.821 22.424 332.669 23.576 331.049 23.576C329.789 23.576 328.925 22.748 328.925 21.092ZM339.833 11.192H339.941C341.705 8.456 341.777 8.348 342.101 8.348C342.425 8.348 342.497 8.384 343.829 9.968C344.873 11.192 344.945 11.264 344.945 11.552C344.945 11.768 344.837 11.912 344.585 11.912H339.833V15.62C339.833 21.848 340.049 28.868 340.049 30.236C340.049 32.756 338.861 34.232 337.385 34.736C336.629 35.024 335.441 35.24 334.829 35.24C334.109 35.24 333.749 35.096 333.569 34.412C333.173 32.828 332.201 31.892 329.429 30.992C329.213 30.92 329.213 30.596 329.429 30.596C331.481 30.596 333.029 30.524 333.785 30.452C335.009 30.344 335.441 29.984 335.441 28.472V11.912H332.057C331.337 11.912 329.861 11.984 328.133 12.164L327.809 10.94C329.501 11.12 331.085 11.192 332.057 11.192H335.441C335.441 5.252 335.369 3.776 335.117 1.724C340.337 2.336 341.309 2.66 341.309 3.308C341.309 3.704 341.093 3.992 339.833 4.532V11.192ZM355.241 4.892H376.481C379.181 1.688 379.289 1.58 379.613 1.58C380.009 1.58 380.117 1.616 382.133 3.452C383.393 4.604 383.645 4.928 383.645 5.216C383.645 5.468 383.465 5.612 383.177 5.612H370.469C370.433 5.9 370.181 6.116 369.605 6.368C367.769 8.492 366.833 9.5 365.141 11.336H375.581C377.165 9.464 377.453 9.212 377.813 9.212C378.137 9.212 378.569 9.428 380.225 10.724C381.413 11.66 381.701 11.984 381.701 12.272C381.701 12.56 381.521 12.848 380.621 13.46V18.86C380.621 26.528 380.837 32 380.837 32.936C380.837 34.016 379.829 34.736 377.669 34.736C376.337 34.736 376.121 34.484 376.121 33.404V32.144H357.077V33.404C357.077 34.448 356.213 35.132 354.197 35.132C352.901 35.132 352.649 34.952 352.649 33.8C352.649 32.828 352.901 26.204 352.901 18.32C352.901 13.964 352.865 11.624 352.721 9.68C356.429 10.472 357.581 10.94 357.905 11.336H362.405C362.621 10.112 362.801 9.14 363.053 7.34C363.125 6.8 363.197 6.26 363.269 5.612H355.241C353.981 5.612 352.577 5.684 350.525 5.864L350.165 4.64C352.541 4.82 353.981 4.892 355.241 4.892ZM372.485 31.424H376.121V12.056H373.025C372.989 12.272 372.881 12.416 372.485 12.632V31.424ZM357.077 12.524V31.424H360.677V14.144C360.677 13.46 360.641 12.74 360.569 12.056H357.833C357.689 12.236 357.437 12.344 357.077 12.524ZM368.381 18.032V14.144C368.381 13.46 368.345 12.74 368.273 12.056H365.321C365.285 12.272 365.177 12.416 364.781 12.632V18.032H368.381ZM364.781 25.448V31.424H368.381V25.448H364.781ZM364.781 18.752V24.728H368.381V18.752H364.781ZM400.673 16.052C399.197 13.892 398.477 12.128 398.477 10.292C398.477 6.98 401.393 4.604 405.137 4.604C409.205 4.604 411.725 6.692 411.725 9.464C411.725 12.38 409.745 14.144 404.957 15.152C407.225 18.5 410.033 22.496 412.625 25.7C413.489 24.512 413.993 22.676 413.993 19.904C413.993 18.716 413.273 17.348 410.789 17.024C410.573 16.988 410.537 16.952 410.537 16.7C410.537 16.448 410.573 16.412 410.789 16.412C412.049 16.484 413.453 16.52 414.785 16.52C416.117 16.52 417.521 16.484 418.781 16.412C419.033 16.412 419.069 16.448 419.069 16.7C419.069 16.952 419.033 16.988 418.781 17.024C416.837 17.312 415.721 18.428 415.217 21.02C414.821 23.036 414.173 25.052 413.165 26.348C415.577 29.336 416.189 29.984 416.549 30.236C417.125 30.632 417.665 30.848 418.925 30.956C419.213 30.992 419.249 31.028 419.249 31.28C419.249 31.532 419.213 31.568 418.925 31.568C417.593 31.532 416.225 31.46 415.289 31.46C414.173 31.46 412.841 31.46 411.725 31.496C411.185 30.668 410.789 30.02 410.141 29.156C408.269 31.064 405.821 32.216 402.833 32.216C398.153 32.216 394.229 28.652 394.229 23.9C394.229 20.264 396.101 18.104 400.673 16.052ZM404.597 14.612C406.613 13.82 407.765 12.128 407.765 9.356C407.765 6.584 406.613 5.288 405.173 5.288C403.625 5.288 402.437 6.512 402.437 8.996C402.437 10.868 403.085 12.488 404.597 14.612ZM401.069 16.592C399.341 17.636 398.477 19.184 398.477 21.812C398.477 26.348 402.329 30.2 405.677 30.2C407.369 30.2 408.485 29.624 409.601 28.58C406.613 24.728 403.661 20.552 401.069 16.592ZM446.141 20.624L446.213 17.744C441.641 24.116 435.881 27.536 429.725 29.516C429.473 29.516 429.401 29.48 429.401 29.336C429.401 29.228 429.437 29.156 429.617 29.048C435.125 25.7 439.733 21.02 443.405 15.08C441.605 15.332 439.769 15.62 438.005 15.944C437.141 16.124 436.637 16.268 436.097 16.52C435.737 16.7 435.341 16.808 434.945 16.808C434.297 16.808 433.685 16.34 432.533 15.224C431.957 14.648 431.345 13.964 431.345 13.46C431.345 13.172 431.417 12.812 431.525 12.416C431.597 12.164 431.633 12.164 431.705 12.164C431.777 12.164 431.849 12.2 431.957 12.272C433.145 13.028 433.865 13.136 434.693 13.136C435.593 13.136 437.177 12.992 439.697 12.776C441.677 12.596 443.837 12.38 445.997 12.128L445.961 7.52C445.925 6.44 445.277 5.972 444.053 5.504C443.873 5.432 443.765 5.396 443.765 5.288C443.765 5.216 443.837 5.144 444.017 5C445.061 4.244 446.069 3.848 446.357 3.848C446.717 3.848 447.473 3.956 448.805 4.892C450.281 5.936 450.605 6.368 450.605 6.836C450.605 7.16 450.461 7.448 450.209 7.772C449.849 8.204 449.777 8.78 449.777 10.724V11.696C450.317 11.624 450.605 11.588 451.649 11.444C452.477 11.336 452.981 11.192 453.485 10.94C453.845 10.724 454.241 10.544 454.637 10.544C455.177 10.58 455.717 10.688 457.049 11.372C458.309 12.02 458.597 12.56 458.597 13.316C458.597 14.108 458.093 14.54 457.517 14.54C456.977 14.54 456.041 14.504 454.961 14.432C453.809 14.36 452.693 14.324 451.685 14.324C451.181 14.324 450.533 14.36 449.777 14.396C449.813 17.564 449.885 20.192 449.957 22.28C450.101 25.988 450.137 26.996 450.245 28.58C450.245 29.48 449.957 30.632 449.201 31.784C448.373 33.044 447.509 33.332 446.897 33.332C446.285 33.332 445.853 33.008 445.421 32.324C444.953 31.568 444.197 30.812 443.405 30.236C442.721 29.732 442.001 29.156 440.669 28.328C440.489 28.22 440.453 28.112 440.453 28.04C440.453 27.932 440.489 27.86 440.669 27.86C442.397 28.184 443.657 28.328 445.205 28.328C445.961 28.328 446.177 28.076 446.177 27.5C446.177 26.24 446.141 22.928 446.141 20.624ZM481.277 12.776C481.277 14.144 480.521 15.368 478.937 15.368C477.749 15.368 477.137 14.792 476.417 13.568C475.265 11.444 473.861 9.788 471.953 8.708C471.881 8.672 471.845 8.6 471.845 8.528C471.845 8.456 471.917 8.348 472.097 8.312C472.457 8.276 472.817 8.24 473.285 8.24C478.253 8.24 481.277 10.184 481.277 12.776ZM476.957 30.02C476.633 30.02 476.309 29.984 475.769 29.552C474.941 28.868 474.041 28.04 473.357 27.212C472.889 26.6 472.601 26.096 472.601 25.736C472.601 25.412 472.637 24.764 472.673 24.296C472.709 24.044 472.745 24.008 472.889 24.008C472.961 24.008 473.069 24.08 473.285 24.224C474.365 24.98 475.121 25.052 475.625 25.052C476.021 25.052 476.777 24.908 477.641 24.476C484.517 21.02 491.717 16.016 497.837 9.86C497.909 9.788 498.017 9.716 498.125 9.716C498.269 9.716 498.377 9.824 498.377 9.968C498.377 10.04 498.377 10.04 498.341 10.112C493.229 17.888 487.469 23.036 479.333 28.652C478.757 29.048 478.361 29.372 477.929 29.66C477.677 29.876 477.317 30.02 476.957 30.02ZM529.661 11.66C530.093 11.66 530.597 11.876 531.929 12.848C533.657 14.108 534.125 14.612 534.125 15.152C534.125 15.62 533.981 15.872 533.513 16.268C533.045 16.664 532.793 16.952 532.361 17.78C527.969 26.024 522.929 31.064 515.477 33.656C515.369 33.692 515.333 33.692 515.261 33.692C515.117 33.692 515.045 33.62 515.045 33.512C515.045 33.44 515.081 33.368 515.225 33.26C519.725 30.236 524.765 24.62 528.077 16.304C528.221 15.98 528.257 15.908 528.257 15.836C528.257 15.62 528.149 15.512 527.861 15.512C524.045 15.908 519.689 16.592 516.305 17.348C515.693 17.492 515.261 17.636 514.937 17.852C514.649 18.068 514.361 18.14 514.037 18.14C513.641 18.14 513.029 17.888 511.913 16.844C510.869 15.872 510.509 15.296 510.509 14.9C510.509 14.432 510.581 13.964 510.725 13.568C510.761 13.46 510.797 13.424 510.869 13.424C510.941 13.424 510.941 13.424 511.049 13.496C512.093 14.216 512.489 14.324 513.389 14.324C513.893 14.324 514.433 14.252 515.585 14.108C518.933 13.676 523.001 13.172 526.709 12.704C527.933 12.56 528.221 12.452 528.761 12.056C529.085 11.804 529.373 11.66 529.661 11.66ZM518.537 9.464C517.745 9.464 517.493 9.356 516.881 8.924C515.801 8.168 514.937 7.34 514.649 6.944C514.325 6.548 514.217 5.864 514.217 5.576C514.217 5.468 514.253 5.36 514.325 5.36C514.397 5.36 514.433 5.36 514.613 5.432C515.693 5.864 516.593 5.936 517.529 5.936C518.321 5.936 519.545 5.792 521.345 5.468C523.289 5.108 524.153 4.856 524.657 4.568C525.161 4.28 525.557 4.172 526.133 4.172C526.565 4.172 527.537 4.352 528.221 4.676C529.517 5.216 529.949 5.864 529.949 6.62C529.949 7.448 529.589 7.844 528.365 8.096C525.269 8.564 523.109 8.924 520.661 9.248C519.545 9.356 518.897 9.464 518.537 9.464ZM561.737 16.88C557.489 20.516 552.953 23.18 548.093 24.98C547.985 25.016 547.913 25.016 547.841 25.016C547.697 25.016 547.589 24.944 547.589 24.8C547.589 24.728 547.625 24.656 547.733 24.584C554.465 20.228 560.873 13.388 564.401 8.06C565.013 7.16 565.229 6.512 565.229 6.08C565.229 5.468 564.977 5.072 564.077 4.388C563.933 4.28 563.861 4.208 563.861 4.1C563.861 4.028 563.933 3.956 564.149 3.884C564.905 3.632 565.481 3.524 565.949 3.524C566.561 3.524 567.389 3.956 568.865 5.252C570.125 6.368 570.557 6.8 570.557 7.376C570.557 7.808 570.377 8.096 570.053 8.384C569.693 8.708 569.261 9.068 568.649 9.824C567.281 11.516 566.021 12.884 564.869 14.108C565.013 14.216 565.157 14.36 565.301 14.468C565.733 14.828 565.841 15.116 565.841 15.368C565.841 15.584 565.805 15.692 565.733 15.908C565.625 16.268 565.625 16.376 565.625 17.708C565.625 21.776 565.805 27.572 565.805 30.632C565.805 32.54 565.013 33.368 563.933 33.368C562.997 33.368 562.385 32.936 561.845 31.856C561.413 30.992 561.017 29.696 561.017 29.012C561.017 28.652 561.161 28.184 561.269 27.86C561.485 27.248 561.629 26.636 561.665 25.772C561.737 23.144 561.737 21.092 561.737 16.88ZM597.917 12.776C597.917 14.144 597.161 15.368 595.577 15.368C594.389 15.368 593.777 14.792 593.057 13.568C591.905 11.444 590.501 9.788 588.593 8.708C588.521 8.672 588.485 8.6 588.485 8.528C588.485 8.456 588.557 8.348 588.737 8.312C589.097 8.276 589.457 8.24 589.925 8.24C594.893 8.24 597.917 10.184 597.917 12.776ZM593.597 30.02C593.273 30.02 592.949 29.984 592.409 29.552C591.581 28.868 590.681 28.04 589.997 27.212C589.529 26.6 589.241 26.096 589.241 25.736C589.241 25.412 589.277 24.764 589.313 24.296C589.349 24.044 589.385 24.008 589.529 24.008C589.601 24.008 589.709 24.08 589.925 24.224C591.005 24.98 591.761 25.052 592.265 25.052C592.661 25.052 593.417 24.908 594.281 24.476C601.157 21.02 608.357 16.016 614.477 9.86C614.549 9.788 614.657 9.716 614.765 9.716C614.909 9.716 615.017 9.824 615.017 9.968C615.017 10.04 615.017 10.04 614.981 10.112C609.869 17.888 604.109 23.036 595.973 28.652C595.397 29.048 595.001 29.372 594.569 29.66C594.317 29.876 593.957 30.02 593.597 30.02ZM641.765 20.048H648.173C649.973 18.104 650.117 17.996 650.477 17.996C650.873 17.996 651.017 18.032 652.637 19.364C653.969 20.48 654.077 20.66 654.077 20.984C654.077 21.308 654.005 21.38 653.069 22.1V24.908C653.069 28.688 653.249 32.252 653.249 33.116C653.249 34.16 652.313 34.808 650.225 34.808C648.785 34.808 648.569 34.664 648.569 33.512V32.396H641.153V33.44C641.153 34.736 640.325 35.204 637.985 35.204C636.941 35.204 636.761 34.988 636.761 34.124C636.761 33.224 636.941 29.12 636.941 25.124C636.941 21.308 636.941 20.66 636.833 18.248C640.361 19.256 641.441 19.688 641.765 20.048ZM641.153 31.676H648.569V26.312H641.153V31.676ZM648.569 20.768H641.765C641.657 20.948 641.441 21.056 641.153 21.2V25.592H648.569V20.768ZM640.577 9.104V11.444C640.577 12.416 640.937 12.704 644.897 12.704C649.937 12.704 650.909 12.452 651.881 11.372C652.673 10.508 653.285 9.572 654.365 7.484C654.473 7.304 654.725 7.376 654.689 7.592C654.401 9.464 654.329 10.364 654.329 10.832C654.329 11.372 654.437 11.696 654.905 12.2C655.373 12.704 655.481 12.992 655.481 13.748C655.481 15.728 653.249 16.736 645.185 16.736C637.985 16.736 636.401 16.088 636.401 12.776C636.401 12.164 636.437 11.588 636.473 10.508C636.401 10.544 636.329 10.544 636.221 10.544H631.721V16.952C633.233 16.592 634.925 16.196 636.905 15.692C637.121 15.656 637.265 15.944 637.085 16.052C635.069 17.384 633.449 18.5 631.721 19.652C631.757 28.076 631.901 29.696 631.901 30.848C631.901 32.54 631.181 33.728 630.101 34.34C629.165 34.88 628.337 35.096 627.545 35.096C626.969 35.096 626.717 34.88 626.537 34.16C626.213 32.936 625.529 31.892 623.297 31.136C623.081 31.064 623.081 30.776 623.297 30.776C624.665 30.704 625.457 30.632 626.465 30.488C627.293 30.38 627.617 29.876 627.617 28.688V21.74L625.133 23.18C624.809 24.008 624.629 24.188 624.269 24.188C623.837 24.188 623.693 24.116 621.785 18.86C622.757 18.752 623.729 18.572 624.989 18.32C625.889 18.14 626.753 17.996 627.617 17.816V10.544H625.997C625.025 10.544 624.161 10.58 622.469 10.796L622.109 9.572C623.945 9.788 624.881 9.824 625.997 9.824H627.617C627.617 4.784 627.617 3.74 627.365 1.796C632.009 2.192 632.981 2.516 632.981 3.128C632.981 3.56 632.729 3.812 631.721 4.352V9.824C633.521 6.98 633.629 6.908 633.953 6.908C634.241 6.908 634.349 6.944 635.681 8.564C636.113 9.068 636.365 9.392 636.509 9.572V7.664C636.509 4.856 636.509 3.596 636.329 1.976C641.477 2.588 641.837 2.804 641.837 3.272C641.837 3.704 641.477 3.992 640.577 4.496V8.312C642.953 7.16 645.977 5.216 647.633 3.92C648.497 3.236 648.821 2.948 649.325 2.372C653.105 5.252 653.429 5.612 653.429 6.152C653.429 6.692 652.997 6.836 651.269 6.872C648.497 7.556 644.177 8.492 640.577 9.104ZM677.477 6.656H674.309C673.265 6.656 672.329 6.692 671.033 6.872L670.745 5.72C672.185 5.864 673.409 5.936 674.309 5.936H677.837C677.225 5.756 676.901 5.324 676.721 4.532C676.397 3.056 675.641 2.228 674.633 1.76C674.453 1.652 674.525 1.4 674.741 1.4C678.881 1.076 680.609 2.372 680.609 3.956C680.609 4.928 680.033 5.684 679.097 5.936H681.761C682.229 4.892 682.661 3.704 683.057 2.336C683.201 1.868 683.273 1.472 683.345 0.967998C687.953 2.336 688.169 2.624 688.169 3.02C688.169 3.308 687.881 3.524 686.909 3.704C685.865 4.496 684.749 5.288 683.741 5.936H688.241C690.149 3.596 690.221 3.488 690.545 3.488C690.905 3.488 691.085 3.56 692.849 5.072C693.821 5.9 693.893 6.08 693.893 6.26C693.893 6.512 693.785 6.656 693.533 6.656H681.977C681.905 6.836 681.653 6.98 681.113 7.196C680.357 7.772 679.529 8.384 678.773 8.888H685.181C686.765 7.196 686.873 7.124 687.197 7.124C687.485 7.124 687.809 7.268 689.069 8.204C690.473 9.248 690.581 9.428 690.581 9.716C690.581 9.968 690.437 10.112 689.609 10.724V12.056C689.609 15.764 689.753 16.808 689.753 17.564C689.753 18.536 688.781 19.112 686.945 19.112C685.721 19.112 685.541 18.968 685.541 17.924H676.721C676.685 19.004 676.073 19.364 674.165 19.364C673.229 19.364 672.833 19.004 672.833 18.212C672.833 17.42 673.013 16.304 673.013 13.208C673.013 10.508 673.013 9.608 672.905 7.448C675.641 8.132 676.721 8.492 677.153 8.78C677.261 8.024 677.405 7.376 677.477 6.656ZM676.721 17.204H685.541V15.116H676.721V17.204ZM685.541 12.344H676.721V14.396H685.541V12.344ZM676.721 11.624H685.541V9.608H677.225C677.117 9.716 676.937 9.824 676.721 9.932V11.624ZM663.401 2.12C663.221 2.012 663.437 1.76 663.653 1.76C668.009 1.832 669.881 3.524 669.881 5.54C669.881 6.98 668.909 7.88 667.577 7.88C666.425 7.88 665.813 7.124 665.633 6.116C665.309 4.136 664.517 2.84 663.401 2.12ZM669.197 27.572C673.481 27.572 675.893 29.084 675.893 31.424C675.893 33.08 674.849 34.016 673.229 34.016C671.969 34.016 671.357 33.26 671.213 31.964C670.961 29.84 670.313 28.688 669.053 27.86C668.873 27.752 668.981 27.572 669.197 27.572ZM670.421 14.072V18.284C670.961 18.788 671.645 19.256 672.401 19.508C673.481 19.868 674.813 20.084 679.421 20.084C683.777 20.084 691.229 19.724 695.189 19.256C695.405 19.22 695.477 19.472 695.297 19.616C694.109 20.516 693.497 21.344 693.389 22.352C693.281 23.108 693.065 23.468 692.381 23.504C691.661 23.612 690.473 23.648 685.685 23.648C687.161 23.9 687.449 24.08 687.449 24.368C687.449 24.692 687.197 24.98 686.441 25.232V26.384H688.565C690.689 23.9 690.869 23.756 691.229 23.756C691.661 23.756 691.805 23.864 693.641 25.268C694.721 26.096 695.009 26.384 695.009 26.708C695.009 26.96 694.901 27.104 694.613 27.104H686.441V27.392C686.441 28.544 686.585 30.884 686.585 31.46C686.585 33.116 686.081 33.908 685.001 34.52C684.029 35.06 682.805 35.42 681.653 35.42C681.077 35.42 680.933 35.168 680.681 34.52C680.285 33.548 679.313 32.684 677.153 32.036C676.937 31.964 676.937 31.712 677.153 31.712C678.773 31.64 679.997 31.568 681.005 31.388C681.653 31.28 682.121 30.848 682.121 30.092V27.104H666.785C664.949 27.104 663.365 27.14 661.277 27.356L660.953 26.132C663.221 26.348 664.877 26.384 666.785 26.384H682.121V26.312C682.121 25.412 682.121 24.692 682.013 23.648C675.245 23.612 673.733 23.108 672.365 22.136C671.213 21.308 670.385 20.228 669.881 18.968C668.477 20.516 666.677 22.244 665.093 23.72C664.733 24.62 664.517 24.872 664.157 24.872C663.761 24.872 663.293 24.368 661.457 20.444C662.393 20.192 662.969 20.012 663.401 19.832C664.373 19.508 665.669 19.04 666.713 18.644V12.848H664.481C663.185 12.848 662.645 12.884 661.277 13.1L660.953 11.876C662.573 12.092 663.185 12.128 664.481 12.128H666.353C667.937 10.292 668.045 10.184 668.369 10.184C668.729 10.184 668.873 10.292 669.809 11.084C671.213 12.2 671.465 12.488 671.465 12.92C671.465 13.172 671.321 13.388 670.421 14.072Z" fill="white"/>
<path d="M290.54 135.16V84.34C290.54 71.46 290.4 69.22 289 66.42C287.6 63.9 284.52 63.9 281.02 63.9C274.58 63.9 268.42 65.44 264.36 68.8C260.16 72.16 256.66 78.6 254.28 83.78C254 84.48 253.72 84.9 252.04 84.62C250.5 84.34 250.5 83.92 250.5 83.08C251.62 75.94 252.6 66 253.16 58.86C269.12 59.28 283.96 59.42 299.22 59.42C314.06 59.42 329.46 59.28 345.56 58.86C346.12 66 347.1 75.94 348.08 83.08C348.08 83.92 348.08 84.34 346.54 84.62C344.72 84.9 344.44 84.48 344.16 83.78C342.2 78.6 338.56 72.3 334.36 68.8C330.44 65.44 324.28 63.9 317.28 63.9C313.78 63.9 310.98 63.62 309.02 66.7C307.06 69.78 307.2 76.08 307.2 84.34V135.16C307.2 149.16 307.06 150.7 308.46 153.78C309.86 156.58 313.92 156.72 319.24 157.28C320.22 157.42 320.5 157.7 320.5 159.1C320.5 160.64 320.22 160.92 319.1 160.92C313.08 160.64 305.24 160.5 298.94 160.5C292.5 160.5 285.08 160.64 279.62 160.92C278.64 160.92 278.36 160.64 278.36 159.24C278.36 157.7 278.64 157.42 279.62 157.28C284.52 156.72 287.74 156.58 289.28 153.78C290.96 150.42 290.54 144.54 290.54 135.16ZM389.357 115.84V128.72H355.897V115.84H389.357ZM469.04 106.46V107.3C490.88 109.4 502.92 118.22 502.92 132.64C502.92 146.78 493.54 161.34 460.08 161.34C451.96 161.34 442.72 160.64 435.86 160.64C429.84 160.64 423.12 160.78 417.24 160.92C416.26 160.92 416.12 160.64 416.12 159.24C416.12 157.84 416.26 157.56 417.24 157.42C422.56 156.86 425.5 156.86 427.32 153.78C429.14 150.7 429.14 144.54 429.14 135.16V84.34C429.14 70.9 429.14 69.08 427.32 66C425.64 63.34 422.56 63.2 416.54 62.64C415.56 62.5 415.28 62.36 415.28 60.82C415.28 59.14 415.56 58.86 416.68 58.86C422.98 59.14 429.28 59.28 435.58 59.28C442.16 59.28 450.7 58.58 458.4 58.58C487.52 58.58 496.48 67.96 496.48 81.82C496.48 92.04 490.32 101 469.04 106.46ZM445.24 84.34V104.92C447.34 105.06 448.18 105.06 450 105.06C473.24 105.06 478.98 94.98 478.98 82.94C478.98 70.2 470.86 63.34 456.72 63.34C452.24 63.34 448.6 63.48 446.78 66.42C445.1 69.36 445.24 75.52 445.24 84.34ZM445.24 110.1V135.16C445.24 142.86 445.1 149.16 447.2 152.66C449.3 156.3 453.5 156.72 459.38 156.72C479.68 156.72 484.72 143.56 484.72 132.78C484.72 123.82 482.34 109.96 451.68 109.96C449.86 109.96 448.74 109.96 445.24 110.1ZM586.934 138.94L581.054 122.42C576.434 122.14 570.414 121.86 565.094 121.86C559.214 121.86 553.614 122.14 547.734 122.42L542.414 137.12C539.334 145.38 539.614 149.58 540.874 152.8C542.134 155.74 546.754 156.72 551.794 157.28C552.634 157.28 553.054 157.56 553.054 159.1C553.054 160.64 552.634 160.92 551.514 160.92C546.334 160.64 539.194 160.64 534.014 160.64C529.114 160.64 523.934 160.64 519.314 160.92C518.054 160.92 517.774 160.64 517.774 159.1C517.774 157.56 518.054 157.28 519.314 157.28C523.094 156.72 525.474 154.9 527.574 152.94C530.374 150.14 533.034 144.96 536.114 136.56L552.914 91.2C559.494 73.56 560.754 69.22 562.994 61.8L574.054 56.76C575.034 56.76 575.594 57.04 575.874 58.02C578.674 66.7 581.194 73.7 587.494 92.04L603.314 137.68C606.114 145.94 608.074 150.84 610.314 153.64C612.694 156.58 614.094 156.86 619.414 157.28C620.954 157.28 621.234 157.56 621.234 159.1C621.234 160.64 620.954 160.92 619.414 160.92C613.394 160.78 605.554 160.64 599.534 160.64C594.074 160.64 585.814 160.78 579.794 160.92C578.814 160.92 578.674 160.64 578.674 159.1C578.674 157.56 578.954 157.28 579.794 157.28C585.114 157 588.614 156.44 589.454 153.64C590.434 150.56 589.594 146.64 586.934 138.94ZM579.094 116.82L570.694 92.32C567.474 83.08 566.354 79.02 564.814 73.98C562.854 79.44 561.734 83.08 558.514 92.04L549.554 116.82C554.174 117.1 559.774 117.1 565.094 117.1C569.574 117.1 575.034 117.1 579.094 116.82ZM670.342 115.14L663.342 111.5C646.682 103.1 641.082 96.1 641.082 81.82C641.082 67.54 653.682 56.62 672.442 56.62C678.602 56.62 682.662 57.6 686.582 58.58C690.922 59.7 695.822 59.7 700.442 59C700.442 66.14 701.422 75.24 701.982 82.66C701.982 83.36 701.982 83.78 700.582 84.06C699.042 84.34 698.762 83.92 698.482 83.22C693.022 70.34 684.342 61.1 673.142 61.1C663.622 61.1 656.342 67.96 656.342 78.74C656.342 85.04 660.122 90.92 671.882 96.66L679.442 100.3C699.322 109.96 706.322 116.26 706.322 132.92C706.322 151.82 692.462 163.16 668.942 163.16C659.142 163.16 649.902 161.06 642.062 158.26C639.962 150.56 638.142 141.74 637.162 134.88C637.022 133.9 637.022 132.92 638.702 132.64C640.242 132.36 640.802 132.78 641.082 133.48C647.382 147.62 658.302 158.68 670.482 158.68C682.382 158.68 690.782 150.28 690.782 138.52C690.782 127.88 684.482 122.42 670.342 115.14Z" fill="white"/>
<path d="M586.912 177.36C587.296 177.36 587.776 177.48 588.256 177.744C588.616 177.96 588.688 178.176 588.688 178.512C588.688 178.8 588.424 179.064 587.944 179.088C587.488 179.112 587.008 179.112 586.384 179.184C584.704 179.328 582.664 179.496 581.008 179.64C580.528 179.688 579.64 179.76 579.4 179.76C578.944 179.76 578.56 179.664 577.888 179.064C577.384 178.584 577.216 178.176 577.216 177.816C577.216 177.624 577.264 177.504 577.36 177.504C577.456 177.504 577.552 177.576 577.696 177.72C578.344 178.272 578.776 178.44 579.64 178.44C580.408 178.44 581.056 178.392 582.064 178.296C583.168 178.2 583.888 178.08 584.824 177.912C585.448 177.792 585.784 177.72 586.024 177.624C586.336 177.504 586.672 177.36 586.912 177.36ZM582.64 184.08C581.032 184.2 579.688 184.368 578.368 184.608C577.432 184.776 577.024 184.896 576.64 185.112C576.472 185.208 576.304 185.256 576.064 185.256C575.656 185.256 575.104 184.896 574.552 184.32C574.096 183.888 573.832 183.432 573.832 183.048C573.832 182.76 573.928 182.568 574.048 182.568C574.12 182.568 574.24 182.664 574.456 182.832C575.008 183.288 575.512 183.576 576.064 183.576C576.496 183.576 576.928 183.528 577.456 183.48C579.304 183.264 580.864 183.096 583.072 182.928C584.872 182.808 586.504 182.688 588.184 182.52C588.616 182.472 588.904 182.376 589.048 182.304C589.264 182.208 589.552 182.112 589.816 182.112C590.32 182.112 591.136 182.328 591.712 182.688C592.072 182.904 592.216 183.168 592.216 183.456C592.216 183.792 591.976 184.008 591.664 184.008C591.256 184.032 590.824 183.96 590.128 183.912C589.216 183.84 588.352 183.84 587.44 183.864C586.408 183.864 585.04 183.912 583.936 183.984C584.536 184.32 585.04 184.752 585.04 185.112C585.04 185.232 584.992 185.352 584.896 185.496C584.776 185.664 584.68 185.832 584.56 186.216C584.104 187.92 583.288 189.648 582.064 191.28C580.744 193.008 579.304 194.496 577.336 195.6C577.168 195.696 577.072 195.72 576.976 195.72C576.784 195.72 576.64 195.6 576.64 195.432C576.64 195.288 576.712 195.144 577 194.904C578.32 193.8 579.808 192.096 580.84 190.416C581.704 189.024 582.4 187.464 582.784 185.856C582.904 185.376 582.952 185.112 582.952 184.872C582.952 184.584 582.856 184.272 582.64 184.08ZM611.392 185.952C612.04 186.456 612.352 186.816 612.352 187.128C612.352 187.224 612.304 187.344 612.28 187.44C612.256 187.56 612.232 187.824 612.232 188.664C612.232 189.432 612.208 190.488 612.232 191.64C612.256 192.96 612.256 194.112 612.256 195.096C612.256 195.624 612.016 195.936 611.68 195.936C611.344 195.936 611.128 195.744 610.936 195.456C610.72 195.12 610.528 194.568 610.528 194.28C610.528 194.088 610.624 193.8 610.672 193.68C610.744 193.488 610.768 193.32 610.792 192.768C610.84 192.096 610.84 191.328 610.864 190.296C610.864 189.312 610.888 188.232 610.888 187.32C610.888 186.888 610.864 186.744 610.768 186.6C608.632 188.784 606.472 190.512 604.408 191.664C604.216 191.76 604.072 191.856 603.928 191.856C603.784 191.856 603.592 191.664 603.592 191.544C603.592 191.424 603.688 191.28 603.88 191.136C605.68 189.816 607.768 187.848 609.376 186.12C610.648 184.776 611.656 183.384 612.112 182.688C612.328 182.376 612.424 182.16 612.424 181.944C612.424 181.752 612.184 181.512 611.824 181.272C611.56 181.08 611.368 180.96 611.368 180.84C611.368 180.696 611.584 180.576 611.992 180.576C612.448 180.576 613.048 180.768 613.888 181.296C614.368 181.608 614.728 181.968 614.728 182.304C614.728 182.592 614.608 182.736 614.32 182.856C614.056 182.976 613.912 183.096 613.768 183.264C613 184.2 612.256 185.016 611.392 185.952ZM631.864 187.488C631.696 187.608 631.456 187.704 631.12 187.704C630.64 187.704 630.064 187.176 629.44 186.312C629.128 185.88 628.888 185.424 628.888 185.064C628.888 184.752 628.936 184.464 629.104 184.464C629.224 184.464 629.32 184.584 629.488 184.752C630.328 185.568 630.664 185.736 631.216 185.736C631.72 185.736 632.632 185.688 634.264 185.592C637.528 185.4 640.768 185.28 642.808 185.208C643.624 185.184 644.008 185.064 644.272 184.92C644.464 184.824 644.752 184.752 645.016 184.752C645.256 184.752 645.592 184.824 646 184.968C647.128 185.4 647.272 185.664 647.272 186.096C647.272 186.576 646.96 186.816 646.432 186.816C645.52 186.816 644.224 186.72 643.048 186.72C640.912 186.72 636.664 186.864 633.52 187.128C632.752 187.2 632.104 187.344 631.864 187.488ZM674.632 188.016C674.632 188.832 674.344 189.264 673.624 189.264C673.12 189.264 672.808 188.928 672.544 188.352C671.896 186.912 671.296 185.928 670.504 184.968C669.784 184.104 668.944 183.36 668.032 182.712C667.744 182.52 667.6 182.376 667.6 182.256C667.6 182.064 667.744 181.968 667.888 181.968C668.056 181.968 668.248 182.04 668.56 182.16C669.952 182.736 671.272 183.576 672.448 184.632C673.504 185.568 674.632 187.056 674.632 188.016ZM662.248 184.008C662.248 183.768 662.032 183.48 661.456 183.072C661.216 182.904 661.168 182.856 661.168 182.76C661.168 182.592 661.504 182.472 661.768 182.472C662.104 182.472 662.56 182.64 663.16 183.048C663.88 183.552 664.576 184.224 664.576 184.848C664.576 185.232 664.384 185.424 663.976 185.568C663.784 185.64 663.592 185.808 663.328 186.072C662.296 187.104 661.288 188.016 660.064 188.928C658.744 189.912 657.28 190.8 655.768 191.424C655.456 191.568 655.288 191.616 655.168 191.616C655 191.616 654.856 191.496 654.856 191.304C654.856 191.16 654.976 191.064 655.216 190.92C656.704 189.96 658.024 188.904 659.176 187.872C660.112 186.984 660.928 186.096 661.576 185.28C662.032 184.68 662.248 184.32 662.248 184.008ZM670.648 178.632C670.792 178.632 670.96 178.68 671.032 178.704C671.68 178.896 672.4 179.256 673.12 179.904C673.696 180.408 674.032 180.84 674.032 181.344C674.032 181.728 673.792 182.064 673.36 182.064C673.048 182.064 672.784 181.848 672.568 181.416C672.208 180.696 671.248 179.64 670.552 179.112C670.456 179.04 670.384 178.944 670.384 178.872C670.384 178.752 670.48 178.632 670.648 178.632ZM672.592 177C672.712 177 672.904 177.048 673.12 177.096C673.768 177.264 674.368 177.552 675.04 178.032C675.616 178.44 676.144 178.992 676.144 179.544C676.144 180.024 675.856 180.312 675.496 180.312C675.184 180.312 674.992 180.192 674.728 179.736C674.296 178.992 673.336 177.96 672.52 177.48C672.424 177.432 672.352 177.336 672.352 177.24C672.352 177.12 672.448 177 672.592 177ZM694.576 186.528C696.784 187.44 698.848 188.544 700.264 189.912C701.104 190.728 701.752 191.52 701.752 192.168C701.752 192.816 701.344 193.176 700.768 193.176C700.432 193.176 700.12 192.96 699.736 192.432C698.152 190.152 696.4 188.496 694.048 187.104C692.608 188.688 691.048 190.056 689.368 191.16C687.76 192.24 686.08 193.104 684.688 193.608C684.448 193.704 684.208 193.776 684.04 193.776C683.896 193.776 683.776 193.608 683.776 193.488C683.776 193.368 683.872 193.224 684.016 193.152C686.896 191.568 689.392 189.816 691.792 187.272C693.568 185.424 694.888 183.648 696.328 181.176C696.4 181.056 696.424 181.008 696.424 180.96C696.424 180.912 696.376 180.912 696.232 180.912C695.128 180.984 692.392 181.344 689.968 181.824C689.488 181.92 689.176 182.016 688.984 182.136C688.768 182.256 688.624 182.376 688.288 182.376C687.88 182.376 687.304 181.968 686.8 181.272C686.344 180.648 686.152 180.312 686.152 179.904C686.152 179.664 686.272 179.4 686.392 179.4C686.488 179.4 686.656 179.544 686.8 179.688C687.424 180.288 687.856 180.6 688.384 180.6C688.768 180.6 689.584 180.528 690.28 180.456C692.152 180.264 694.144 180.072 695.896 179.832C696.304 179.784 696.496 179.664 696.712 179.472C696.88 179.304 697.048 179.208 697.288 179.208C697.648 179.208 697.912 179.328 698.416 179.784C699.064 180.384 699.256 180.648 699.256 180.936C699.256 181.176 699.136 181.272 698.656 181.464C698.32 181.584 697.936 181.896 697.648 182.352C697 183.384 695.824 185.064 694.576 186.528Z" fill="white"/>
</svg>
