<svg width="100" height="100" viewBox="0 0 100 100" fill="none" xmlns="http://www.w3.org/2000/svg">
<path d="M15.3598 23.2292C19.8285 23.2292 23.4488 19.6059 23.4488 15.1405C23.4488 10.6704 19.8285 7.05005 15.3598 7.05005C10.8896 7.05005 7.26953 10.6704 7.26953 15.1405C7.26934 19.6059 10.8896 23.2292 15.3598 23.2292Z" fill="#ACDEF5"/>
<path d="M49.9428 44.6738V44.6859C49.9625 44.6859 49.9807 44.6799 50.0002 44.6799C50.0199 44.6799 50.0381 44.6859 50.0576 44.6859V44.6738C53.0971 44.6119 55.5424 42.1395 55.5424 39.0877C55.5424 36.0314 53.0971 33.5605 50.0576 33.4986V33.4863C50.0379 33.4863 50.0197 33.4924 50.0002 33.4924C49.9807 33.4924 49.9625 33.4863 49.9428 33.4863V33.4986C46.9031 33.5605 44.458 36.0314 44.458 39.0877C44.4578 42.1395 46.9031 44.6119 49.9428 44.6738Z" fill="#ACDEF5"/>
<path d="M84.6408 23.2292C89.1109 23.2292 92.7313 19.6059 92.7313 15.1405C92.7313 10.6704 89.1109 7.05005 84.6408 7.05005C80.1721 7.05005 76.5518 10.6704 76.5518 15.1405C76.552 19.6059 80.1723 23.2292 84.6408 23.2292Z" fill="#ACDEF5"/>
<path d="M91.8158 27.0613H84.7236H81.1291C77.0068 27.0613 73.2322 29.372 71.357 33.0421L64.8152 52.1763C64.5899 52.615 64.1711 52.9263 63.684 53.0126C63.1971 53.099 62.6981 52.9523 62.3336 52.615L58.2641 49.0916C57.0467 47.9648 55.45 47.339 53.791 47.339H50H46.209C44.55 47.339 42.9533 47.9648 41.7359 49.0916L37.6666 52.615C37.3022 52.9523 36.8031 53.099 36.3162 53.0126C35.8295 52.9263 35.4105 52.615 35.1852 52.1763L28.6432 33.0421C26.7682 29.372 22.9936 27.0613 18.8713 27.0613H15.2764H8.18398C4.26445 27.0613 0 31.3257 0 35.247V62.4367C0 64.3964 1.58789 65.9857 3.54766 65.9857C4.5123 65.9857 3.54766 65.9857 6.02461 65.9857L7.37344 89.1742C7.37344 91.2593 9.06563 92.95 11.1508 92.95C12.0309 92.95 13.6535 92.95 15.2762 92.95C16.8988 92.95 18.5215 92.95 19.4016 92.95C21.4867 92.95 23.1789 91.2593 23.1789 89.1742L24.5277 65.9857L24.5111 49.4298C24.5111 49.1683 24.6897 48.9429 24.9451 48.8794C25.2008 48.8189 25.4623 48.9398 25.5818 49.1728L30.7717 61.9464C31.3979 63.1683 32.5592 64.0273 33.9111 64.2677C35.2631 64.5082 36.6498 64.1029 37.6584 63.1714L42.6244 59.5134C42.7908 59.3607 43.0313 59.3212 43.2369 59.4076C43.4441 59.5 43.5773 59.7041 43.5773 59.9277L43.5955 74.2847L44.5285 90.3369C44.5285 91.7796 45.7006 92.95 47.1447 92.95C47.7527 92.95 48.8762 92.95 49.9998 92.95C51.1234 92.95 52.2471 92.95 52.8549 92.95C54.299 92.95 55.4709 91.7796 55.4709 90.3369L56.4041 74.2847L56.4223 59.9277C56.4223 59.7039 56.5553 59.5 56.7625 59.4076C56.9682 59.3212 57.2086 59.3607 57.375 59.5134L62.3412 63.1714C63.3498 64.1029 64.7365 64.5082 66.0885 64.2677C67.4404 64.0273 68.6018 63.1683 69.2277 61.9464L74.4178 49.1728C74.5371 48.94 74.7988 48.8189 75.0543 48.8794C75.31 48.9429 75.4883 49.1681 75.4883 49.4298L75.4717 65.9857L76.8205 89.1742C76.8205 91.2593 78.5127 92.95 80.5981 92.95C81.4783 92.95 83.1008 92.95 84.7234 92.95C86.3461 92.95 87.9688 92.95 88.8486 92.95C90.934 92.95 92.6264 91.2593 92.6264 89.1742L93.9752 65.9857C96.4522 65.9857 95.4873 65.9857 96.4522 65.9857C98.4119 65.9857 99.9998 64.3964 99.9998 62.4367V35.247C100 31.3257 95.7355 27.0613 91.8158 27.0613Z" fill="#ACDEF5"/>
</svg>
