<svg width="350" height="350" viewBox="0 0 350 350" fill="none" xmlns="http://www.w3.org/2000/svg">
<path d="M350 267.68H0V267.855H350V267.68Z" fill="#EBEBEB"/>
<path d="M314.93 278.943H291.746V279.118H314.93V278.943Z" fill="#EBEBEB"/>
<path d="M231.854 280.847H225.771V281.022H231.854V280.847Z" fill="#EBEBEB"/>
<path d="M291.046 272.447H277.613V272.622H291.046V272.447Z" fill="#EBEBEB"/>
<path d="M66.9552 273.623H36.7222V273.798H66.9552V273.623Z" fill="#EBEBEB"/>
<path d="M77.6229 273.623H73.1919V273.798H77.6229V273.623Z" fill="#EBEBEB"/>
<path d="M157.605 276.577H92.0288V276.752H157.605V276.577Z" fill="#EBEBEB"/>
<path d="M165.9 236.46H30.7371C29.6782 236.458 28.6634 236.036 27.9153 235.287C27.1672 234.537 26.7471 233.522 26.7471 232.463V42.462C26.7563 41.4092 27.1805 40.4026 27.9276 39.6608C28.6747 38.9189 29.6842 38.5018 30.7371 38.5H165.9C166.96 38.5 167.977 38.9211 168.726 39.6707C169.476 40.4203 169.897 41.4369 169.897 42.497V232.463C169.897 233.523 169.476 234.54 168.726 235.289C167.977 236.039 166.96 236.46 165.9 236.46ZM30.7371 38.64C29.7246 38.6419 28.7543 39.0453 28.039 39.7619C27.3238 40.4785 26.9221 41.4496 26.9221 42.462V232.463C26.9221 233.475 27.3238 234.447 28.039 235.163C28.7543 235.88 29.7246 236.283 30.7371 236.285H165.9C166.913 236.283 167.884 235.88 168.601 235.164C169.317 234.447 169.72 233.476 169.722 232.463V42.462C169.72 41.4489 169.317 40.4778 168.601 39.7615C167.884 39.0451 166.913 38.6419 165.9 38.64H30.7371Z" fill="#EBEBEB"/>
<path d="M317.317 236.46H182.147C181.087 236.458 180.072 236.036 179.323 235.287C178.573 234.538 178.152 233.522 178.15 232.463V42.462C178.161 41.4086 178.587 40.402 179.335 39.6603C180.083 38.9187 181.093 38.5018 182.147 38.5H317.317C318.368 38.5036 319.376 38.9216 320.122 39.6632C320.867 40.4048 321.291 41.4104 321.3 42.462V232.463C321.3 233.521 320.881 234.535 320.134 235.284C319.388 236.034 318.375 236.456 317.317 236.46ZM182.147 38.64C181.134 38.6419 180.163 39.0451 179.446 39.7615C178.73 40.4778 178.327 41.4489 178.325 42.462V232.463C178.327 233.476 178.73 234.447 179.446 235.164C180.163 235.88 181.134 236.283 182.147 236.285H317.317C318.33 236.283 319.301 235.88 320.017 235.164C320.734 234.447 321.137 233.476 321.139 232.463V42.462C321.137 41.4489 320.734 40.4778 320.017 39.7615C319.301 39.0451 318.33 38.6419 317.317 38.64H182.147Z" fill="#EBEBEB"/>
<path d="M283.36 76.5031H224.063V137.711H283.36V76.5031Z" fill="#F5F5F5"/>
<path d="M283.36 76.5031H282.681V137.711H283.36V76.5031Z" fill="#E6E6E6"/>
<path d="M112.754 78.3773C114.262 69.0852 107.952 60.3298 98.6599 58.8215C89.3679 57.3132 80.6124 63.6231 79.1041 72.9152C77.5958 82.2073 83.9058 90.9627 93.1978 92.471C102.49 93.9794 111.245 87.6694 112.754 78.3773Z" fill="#E0E0E0"/>
<path d="M110.231 77.968C111.514 70.0688 106.15 62.6257 98.2503 61.3435C90.3511 60.0613 82.9081 65.4254 81.6259 73.3246C80.3436 81.2239 85.7078 88.6669 93.607 89.9491C101.506 91.2313 108.949 85.8672 110.231 77.968Z" fill="#F0F0F0"/>
<path d="M95.2418 65.709V75.838L88.5288 72.037" fill="#F0F0F0"/>
<path d="M95.2421 76.538C95.122 76.5362 95.0043 76.5049 94.8991 76.447L88.2001 72.646C88.0386 72.5532 87.9205 72.4 87.872 72.2202C87.8234 72.0403 87.8482 71.8486 87.9411 71.687C88.0339 71.5255 88.1871 71.4075 88.3669 71.3589C88.5468 71.3103 88.7386 71.3352 88.9001 71.428L94.5701 74.634V65.709C94.5701 65.5234 94.6438 65.3453 94.7751 65.2141C94.9064 65.0828 95.0844 65.009 95.2701 65.009C95.4557 65.009 95.6338 65.0828 95.765 65.2141C95.8963 65.3453 95.9701 65.5234 95.9701 65.709V75.838C95.9701 76.0237 95.8963 76.2017 95.765 76.333C95.6338 76.4643 95.4557 76.538 95.2701 76.538H95.2421Z" fill="#E0E0E0"/>
<path d="M145.957 113.827H55.7549V213.591H145.957V113.827Z" fill="#E0E0E0"/>
<path d="M148.834 113.827H55.2788V213.591H148.834V113.827Z" fill="#F0F0F0"/>
<path d="M144.879 117.012H59.0869V209.013H144.879V117.012Z" fill="white"/>
<path d="M144.879 117.012H142.401V209.013H144.879V117.012Z" fill="#E0E0E0"/>
<path d="M58.8701 183.169V185.647H142.667V183.169H58.8701Z" fill="#E0E0E0"/>
<path d="M144.879 179.004H57.7568V183.169H144.879V179.004Z" fill="#F0F0F0"/>
<path d="M279.258 100.107H226.758V135.191H279.258V100.107Z" fill="#FAFAFA"/>
<path d="M279.265 100.107H275.429V135.191H279.265V100.107Z" fill="#F0F0F0"/>
<path d="M279.258 100.107H226.758V105.637H279.258V100.107Z" fill="#E0E0E0"/>
<path d="M275.429 100.107H226.758V105.637H275.429V100.107Z" fill="#E6E6E6"/>
<path d="M240.709 109.004H235.172V113.022H240.709V109.004Z" fill="white"/>
<path d="M247.282 109.004H241.745V113.022H247.282V109.004Z" fill="white"/>
<path d="M253.862 109.004H248.325V113.022H253.862V109.004Z" fill="white"/>
<path d="M260.435 109.004H254.898V113.022H260.435V109.004Z" fill="white"/>
<path d="M267.015 109.004H261.478V113.022H267.015V109.004Z" fill="white"/>
<path d="M273.595 109.004H268.058V113.022H273.595V109.004Z" fill="white"/>
<path d="M234.129 114.1H228.592V118.118H234.129V114.1Z" fill="white"/>
<path d="M240.709 114.1H235.172V118.118H240.709V114.1Z" fill="white"/>
<path d="M247.282 114.1H241.745V118.118H247.282V114.1Z" fill="white"/>
<path d="M253.862 114.1H248.325V118.118H253.862V114.1Z" fill="white"/>
<path d="M260.435 114.1H254.898V118.118H260.435V114.1Z" fill="white"/>
<path d="M267.015 114.1H261.478V118.118H267.015V114.1Z" fill="white"/>
<path d="M273.595 114.1H268.058V118.118H273.595V114.1Z" fill="white"/>
<path d="M234.129 119.196H228.592V123.214H234.129V119.196Z" fill="white"/>
<path d="M240.709 119.196H235.172V123.214H240.709V119.196Z" fill="white"/>
<path d="M247.282 119.196H241.745V123.214H247.282V119.196Z" fill="white"/>
<path d="M253.862 119.196H248.325V123.214H253.862V119.196Z" fill="white"/>
<path d="M260.435 119.196H254.898V123.214H260.435V119.196Z" fill="white"/>
<path d="M267.015 119.196H261.478V123.214H267.015V119.196Z" fill="#E6E6E6"/>
<path d="M273.595 119.196H268.058V123.214H273.595V119.196Z" fill="white"/>
<path d="M234.129 124.285H228.592V128.303H234.129V124.285Z" fill="white"/>
<path d="M240.709 124.285H235.172V128.303H240.709V124.285Z" fill="white"/>
<path d="M247.282 124.285H241.745V128.303H247.282V124.285Z" fill="white"/>
<path d="M253.862 124.285H248.325V128.303H253.862V124.285Z" fill="white"/>
<path d="M260.435 124.285H254.898V128.303H260.435V124.285Z" fill="white"/>
<path d="M267.015 124.285H261.478V128.303H267.015V124.285Z" fill="white"/>
<path d="M273.595 124.285H268.058V128.303H273.595V124.285Z" fill="white"/>
<path d="M234.129 129.381H228.592V133.399H234.129V129.381Z" fill="white"/>
<path d="M240.709 129.381H235.172V133.399H240.709V129.381Z" fill="white"/>
<path d="M247.282 129.381H241.745V133.399H247.282V129.381Z" fill="white"/>
<path d="M253.862 129.381H248.325V133.399H253.862V129.381Z" fill="white"/>
<path d="M260.435 129.381H254.898V133.399H260.435V129.381Z" fill="white"/>
<path d="M235.372 108.718L234.96 109.284L240.501 113.305L240.912 112.739L235.372 108.718Z" fill="#E6E6E6"/>
<path d="M240.503 108.736L234.96 112.754L235.371 113.321L240.914 109.302L240.503 108.736Z" fill="#E6E6E6"/>
<path d="M241.952 108.719L241.541 109.286L247.082 113.307L247.493 112.741L241.952 108.719Z" fill="#E6E6E6"/>
<path d="M247.084 108.731L241.541 112.749L241.952 113.316L247.495 109.297L247.084 108.731Z" fill="#E6E6E6"/>
<path d="M248.526 108.714L248.115 109.281L253.656 113.302L254.067 112.735L248.526 108.714Z" fill="#E6E6E6"/>
<path d="M253.664 108.733L248.121 112.751L248.532 113.317L254.075 109.299L253.664 108.733Z" fill="#E6E6E6"/>
<path d="M255.103 108.721L254.692 109.288L260.233 113.309L260.644 112.743L255.103 108.721Z" fill="#E6E6E6"/>
<path d="M260.239 108.732L254.696 112.75L255.107 113.317L260.649 109.298L260.239 108.732Z" fill="#E6E6E6"/>
<path d="M261.684 108.716L261.272 109.283L266.813 113.304L267.224 112.737L261.684 108.716Z" fill="#E6E6E6"/>
<path d="M266.819 108.734L261.276 112.752L261.687 113.319L267.23 109.3L266.819 108.734Z" fill="#E6E6E6"/>
<path d="M268.261 108.716L267.85 109.283L273.39 113.304L273.801 112.737L268.261 108.716Z" fill="#E6E6E6"/>
<path d="M273.394 108.733L267.851 112.751L268.262 113.318L273.805 109.299L273.394 108.733Z" fill="#E6E6E6"/>
<path d="M268.256 113.812L267.845 114.379L273.386 118.4L273.797 117.833L268.256 113.812Z" fill="#E6E6E6"/>
<path d="M273.392 113.826L267.849 117.844L268.26 118.411L273.803 114.393L273.392 113.826Z" fill="#E6E6E6"/>
<path d="M261.679 113.805L261.268 114.372L266.809 118.393L267.22 117.826L261.679 113.805Z" fill="#E6E6E6"/>
<path d="M266.817 113.82L261.274 117.838L261.685 118.405L267.228 114.387L266.817 113.82Z" fill="#E6E6E6"/>
<path d="M255.099 113.81L254.688 114.377L260.228 118.398L260.639 117.832L255.099 113.81Z" fill="#E6E6E6"/>
<path d="M260.237 113.825L254.694 117.843L255.105 118.41L260.647 114.392L260.237 113.825Z" fill="#E6E6E6"/>
<path d="M248.529 113.803L248.118 114.37L253.658 118.391L254.069 117.824L248.529 113.803Z" fill="#E6E6E6"/>
<path d="M253.662 113.819L248.119 117.837L248.53 118.404L254.073 114.386L253.662 113.819Z" fill="#E6E6E6"/>
<path d="M241.948 113.808L241.537 114.375L247.078 118.396L247.489 117.83L241.948 113.808Z" fill="#E6E6E6"/>
<path d="M247.081 113.824L241.539 117.842L241.949 118.409L247.492 114.391L247.081 113.824Z" fill="#E6E6E6"/>
<path d="M235.367 113.814L234.956 114.38L240.497 118.401L240.908 117.835L235.367 113.814Z" fill="#E6E6E6"/>
<path d="M240.501 113.822L234.958 117.84L235.369 118.407L240.912 114.389L240.501 113.822Z" fill="#E6E6E6"/>
<path d="M228.791 113.807L228.379 114.373L233.92 118.394L234.331 117.828L228.791 113.807Z" fill="#E6E6E6"/>
<path d="M233.927 113.823L228.384 117.841L228.795 118.408L234.337 114.39L233.927 113.823Z" fill="#E6E6E6"/>
<path d="M228.792 118.893L228.381 119.459L233.921 123.48L234.333 122.914L228.792 118.893Z" fill="#E6E6E6"/>
<path d="M233.928 118.89L228.389 122.913L228.801 123.479L234.34 119.456L233.928 118.89Z" fill="#E6E6E6"/>
<path d="M235.369 118.893L234.958 119.46L240.498 123.481L240.909 122.914L235.369 118.893Z" fill="#E6E6E6"/>
<path d="M240.5 118.891L234.96 122.914L235.372 123.481L240.911 119.458L240.5 118.891Z" fill="#E6E6E6"/>
<path d="M241.942 118.895L241.531 119.461L247.072 123.482L247.483 122.916L241.942 118.895Z" fill="#E6E6E6"/>
<path d="M247.077 118.896L241.538 122.919L241.949 123.485L247.488 119.462L247.077 118.896Z" fill="#E6E6E6"/>
<path d="M248.519 118.895L248.108 119.462L253.649 123.483L254.06 122.916L248.519 118.895Z" fill="#E6E6E6"/>
<path d="M253.655 118.897L248.116 122.92L248.527 123.487L254.066 119.464L253.655 118.897Z" fill="#E6E6E6"/>
<path d="M255.1 118.897L254.689 119.463L260.23 123.484L260.641 122.918L255.1 118.897Z" fill="#E6E6E6"/>
<path d="M260.232 118.894L254.693 122.917L255.104 123.484L260.643 119.461L260.232 118.894Z" fill="#E6E6E6"/>
<path d="M267.372 83.958H238.931V90.986H267.372V83.958Z" fill="#E6E6E6"/>
<path d="M258.713 80.262H247.597V82.145H258.713V80.262Z" fill="#E6E6E6"/>
<path d="M175 299.292C249.958 299.292 310.723 295.744 310.723 291.368C310.723 286.992 249.958 283.444 175 283.444C100.042 283.444 39.2769 286.992 39.2769 291.368C39.2769 295.744 100.042 299.292 175 299.292Z" fill="#F5F5F5"/>
<path d="M181.3 69.545H149.359C146.451 69.545 143.663 70.6986 141.605 72.7524C139.547 74.8063 138.388 77.5927 138.383 80.5V111.51C138.38 112.953 138.662 114.382 139.212 115.716C139.763 117.049 140.571 118.261 141.591 119.282C142.61 120.303 143.821 121.113 145.154 121.665C146.487 122.217 147.916 122.501 149.359 122.5H170.443L178.01 134.085V122.5H181.3C182.741 122.501 184.167 122.218 185.499 121.667C186.83 121.116 188.039 120.308 189.058 119.289C190.077 118.271 190.885 117.061 191.436 115.73C191.987 114.399 192.27 112.972 192.269 111.531V80.5C192.265 77.5933 191.108 74.8069 189.051 72.7528C186.994 70.6988 184.207 69.545 181.3 69.545Z" fill="#ACDEF5"/>
<path opacity="0.7" d="M181.3 69.545H149.359C146.451 69.545 143.663 70.6986 141.605 72.7524C139.547 74.8063 138.388 77.5927 138.383 80.5V111.51C138.38 112.953 138.662 114.382 139.212 115.716C139.763 117.049 140.571 118.261 141.591 119.282C142.61 120.303 143.821 121.113 145.154 121.665C146.487 122.217 147.916 122.501 149.359 122.5H170.443L178.01 134.085V122.5H181.3C182.741 122.501 184.167 122.218 185.499 121.667C186.83 121.116 188.039 120.308 189.058 119.289C190.077 118.271 190.885 117.061 191.436 115.73C191.987 114.399 192.27 112.972 192.269 111.531V80.5C192.265 77.5933 191.108 74.8069 189.051 72.7528C186.994 70.6988 184.207 69.545 181.3 69.545Z" fill="white"/>
<path d="M161.952 116.102C159.437 116.072 156.96 115.484 154.7 114.38C151.641 112.924 149.597 110.817 148.946 108.5C148.708 108.388 148.47 108.262 148.246 108.129C147.044 107.349 146.023 106.321 145.251 105.113C144.479 103.906 143.975 102.547 143.773 101.129C143.143 97.0279 143.78 92.8322 145.6 89.1031C145.426 88.1805 145.37 87.2397 145.432 86.3031C145.628 82.9991 147.273 80.0451 149.73 78.6031C151.326 77.6855 153.22 77.434 155.001 77.9031C157.598 76.1328 160.611 75.0689 163.744 74.8161C166.831 74.5962 169.9 75.4493 172.431 77.2311C173.847 76.8227 175.34 76.7576 176.786 77.0413C178.232 77.3249 179.59 77.9491 180.747 78.8621C182.659 80.5079 183.903 82.7957 184.247 85.2951C184.42 86.5523 184.408 87.8282 184.212 89.0821C185.373 90.4657 186.215 92.0878 186.68 93.8334C187.144 95.5789 187.219 97.4053 186.9 99.1831C186.177 102.123 184.417 104.704 181.944 106.449C182.231 107.149 182.358 107.905 182.315 108.661C182.133 111.16 180.04 112.98 178.045 113.673C175.932 114.284 173.697 114.342 171.556 113.841C170.066 114.788 168.33 115.275 166.565 115.241C165.096 115.82 163.53 116.112 161.952 116.102ZM149.961 108.906C151.004 111.447 153.769 113.015 155.057 113.624C158.956 115.479 163.072 115.773 166.257 114.471C166.275 114.464 166.295 114.464 166.313 114.471C166.593 114.352 166.866 114.226 167.132 114.086C167.657 113.801 168.161 113.475 168.637 113.113C167.61 112.752 166.66 112.201 165.837 111.489C165.503 111.189 165.199 110.859 164.927 110.502C162.806 110.482 160.703 110.11 158.704 109.403C158.258 109.239 157.821 109.052 157.395 108.843C154.971 109.56 152.396 109.582 149.961 108.906ZM169.603 113.4C169.252 113.7 168.882 113.979 168.497 114.233C169.144 114.107 169.77 113.893 170.359 113.596L169.603 113.4ZM172.403 113.134C174.184 113.484 176.024 113.398 177.765 112.882C179.501 112.28 181.328 110.719 181.475 108.598C181.514 108.037 181.433 107.474 181.237 106.946C180.719 107.285 180.184 107.596 179.634 107.877C177.91 108.727 176.081 109.343 174.195 109.711C173.944 111.004 173.318 112.194 172.396 113.134H172.403ZM170.345 112.728C170.695 112.812 171.045 112.889 171.36 112.952C172.32 112.168 172.999 111.091 173.292 109.886L172.592 110.005C171.935 110.979 171.18 111.882 170.338 112.7L170.345 112.728ZM166.04 110.495C166.159 110.614 166.278 110.733 166.404 110.845C167.283 111.589 168.308 112.14 169.414 112.462C170.167 111.763 170.847 110.989 171.444 110.152C170.408 110.278 169.414 110.355 168.49 110.411C167.699 110.453 166.88 110.488 166.033 110.495H166.04ZM165.34 109.655C166.404 109.655 167.44 109.655 168.42 109.571C169.54 109.508 170.772 109.41 172.06 109.228C172.431 108.647 172.795 108.024 173.152 107.352L173.453 106.771C173.278 105.651 172.956 104.559 172.494 103.523C171.077 104.079 169.591 104.439 168.077 104.594C166.74 105.098 165.431 105.679 164.136 106.246L163.912 106.351C164.195 107.529 164.683 108.647 165.354 109.655H165.34ZM158.62 108.458L158.984 108.598C160.701 109.211 162.502 109.555 164.325 109.62C163.798 108.7 163.398 107.714 163.135 106.687C161.665 107.352 160.163 107.943 158.634 108.458H158.62ZM173.509 108.458C173.39 108.668 173.271 108.878 173.152 109.074L173.453 109.025C173.449 108.985 173.449 108.946 173.453 108.906C173.502 108.738 173.516 108.591 173.523 108.437L173.509 108.458ZM174.314 106.939C174.384 107.574 174.384 108.215 174.314 108.85C176.011 108.489 177.657 107.918 179.214 107.149C179.775 106.867 180.317 106.549 180.838 106.197C180.281 105.237 179.457 104.461 178.465 103.964C177.642 103.567 176.756 103.318 175.847 103.229C175.401 104.487 174.885 105.719 174.3 106.918L174.314 106.939ZM149.646 107.919C151.781 108.684 154.096 108.796 156.296 108.241C155.076 107.515 154.034 106.525 153.247 105.344C152.46 104.163 151.947 102.821 151.746 101.416C150.409 103.32 149.331 105.301 149.576 107.464C149.594 107.61 149.622 107.755 149.66 107.898L149.646 107.919ZM152.446 100.422C152.541 102.01 153.061 103.544 153.949 104.863C154.838 106.183 156.064 107.24 157.5 107.926C159.369 107.354 161.195 106.653 162.967 105.826C162.855 105.301 162.764 104.762 162.701 104.223C161.698 103.987 160.722 103.65 159.789 103.215C158.508 102.606 155.512 100.87 155.407 97.8811V97.5871C155.12 97.5871 154.826 97.5871 154.532 97.5871C154.126 98.1891 153.685 98.7981 153.223 99.4211L152.964 99.7641L152.446 100.422ZM145.88 90.4681C144.455 93.7873 143.994 97.4409 144.55 101.01C144.741 102.307 145.204 103.55 145.908 104.656C146.613 105.762 147.543 106.707 148.638 107.429L148.708 107.471C148.442 104.713 150.052 102.249 151.683 100.051L152.243 99.3021L152.502 98.9591C152.866 98.4761 153.202 97.9931 153.545 97.5171C152.009 97.2584 150.564 96.6155 149.345 95.6481C147.706 94.2975 146.511 92.4854 145.915 90.4471L145.88 90.4681ZM176.12 102.417C177.064 102.527 177.982 102.797 178.836 103.215C179.95 103.774 180.882 104.638 181.524 105.707C183.774 104.088 185.374 101.72 186.039 99.0291C186.315 97.4936 186.272 95.9174 185.91 94.3996C185.549 92.8818 184.878 91.4551 183.939 90.2091C183.6 91.6413 183.085 93.0262 182.406 94.3321C180.99 97.096 178.95 99.4925 176.449 101.332C176.4 101.689 176.267 102.046 176.155 102.396L176.12 102.417ZM163.52 104.461C163.569 104.818 163.632 105.161 163.702 105.539L163.779 105.504L165.641 104.692C164.941 104.649 164.244 104.565 163.555 104.44L163.52 104.461ZM173.257 103.257C173.574 103.989 173.834 104.745 174.034 105.518C174.377 104.748 174.692 103.964 174.979 103.173C174.415 103.158 173.852 103.18 173.292 103.236L173.257 103.257ZM163.457 103.593C164.916 103.871 166.408 103.939 167.888 103.796C169.251 103.277 170.656 102.877 172.088 102.599C171.49 101.445 170.787 100.348 169.988 99.3231C167.915 100.048 165.692 100.236 163.527 99.8691C163.376 101.107 163.355 102.358 163.464 103.6L163.457 103.593ZM156.233 97.5801C156.226 97.6896 156.226 97.7995 156.233 97.9091C156.324 100.506 159.243 102.109 160.139 102.508C160.929 102.885 161.754 103.183 162.603 103.397C162.519 102.165 162.554 100.927 162.708 99.7011C161.83 99.4924 160.977 99.1872 160.167 98.7911C159.315 98.3774 158.521 97.8525 157.808 97.2301C157.296 97.3883 156.771 97.4984 156.24 97.5591L156.233 97.5801ZM170.793 98.9801C171.601 100.064 172.304 101.221 172.893 102.438C173.875 101.989 174.812 101.447 175.693 100.821C176.87 96.6067 177.219 92.2043 176.722 87.8571C176.603 86.7594 176.407 85.6716 176.134 84.6021C174.096 83.8891 171.981 83.4192 169.834 83.2021C168.904 83.0998 167.969 83.0461 167.034 83.0411C166.3 84.5424 165.666 86.0904 165.137 87.6751L165.039 87.9411C164.468 89.6425 163.732 91.2838 162.841 92.8411C163.432 92.9872 164.009 93.1887 164.563 93.4431L164.815 92.9811C165.669 91.1957 167.065 89.7258 168.805 88.7811C169.712 88.303 170.745 88.1139 171.763 88.239C172.782 88.3641 173.737 88.7975 174.503 89.4811C175.139 90.1968 175.552 91.0836 175.69 92.0316C175.829 92.9796 175.686 93.9474 175.28 94.8151C174.459 96.4764 173.103 97.8129 171.43 98.6091C171.262 98.7701 171.031 98.8821 170.8 98.9801H170.793ZM174.993 102.312H175.308C175.308 102.235 175.357 102.151 175.385 102.067C175.252 102.158 175.119 102.235 175 102.312H174.993ZM177.149 84.9731C177.36 85.8963 177.517 86.8313 177.618 87.7731C178.086 91.8679 177.822 96.0133 176.841 100.016C178.853 98.3412 180.504 96.2738 181.692 93.9401C182.453 92.4951 182.995 90.9453 183.302 89.3411C182.828 88.7757 182.309 88.2512 181.748 87.7731C180.367 86.6063 178.813 85.6617 177.142 84.9731H177.149ZM163.66 99.0221C165.595 99.3531 167.581 99.209 169.449 98.6021C168.621 97.5941 167.71 96.6575 166.726 95.8021C166.193 95.3438 165.619 94.936 165.011 94.5841C164.366 95.9977 163.909 97.4897 163.653 99.0221H163.66ZM158.704 96.8661C159.275 97.3145 159.892 97.7016 160.545 98.0211C161.278 98.3789 162.048 98.6558 162.841 98.8471C163.106 97.2485 163.576 95.6909 164.241 94.2131C163.652 93.935 163.031 93.7305 162.393 93.6041C161.587 94.806 160.522 95.8128 159.278 96.5511C159.096 96.6631 158.9 96.7681 158.697 96.8661H158.704ZM165.375 93.8421C166.047 94.2237 166.681 94.6716 167.265 95.1791C168.362 96.1223 169.37 97.1651 170.275 98.2941C170.559 98.18 170.837 98.0515 171.108 97.9091C172.61 97.2043 173.831 96.013 174.573 94.5281C174.911 93.8138 175.034 93.0166 174.927 92.2336C174.82 91.4506 174.488 90.7155 173.971 90.1181C172.732 88.8651 170.646 88.9001 169.232 89.5791C167.653 90.4429 166.385 91.7795 165.606 93.4011L165.375 93.8421ZM155.071 96.7891C155.218 96.7891 155.365 96.7891 155.512 96.7891C155.633 96.2602 155.849 95.7575 156.149 95.3051L156.065 95.1791C155.75 95.7041 155.4 96.2431 155.064 96.7891H155.071ZM146.468 89.2011C146.904 91.461 148.114 93.4981 149.891 94.9621C151.104 95.922 152.556 96.5319 154.091 96.7261C154.637 95.9001 155.134 95.0951 155.575 94.3041C155.318 93.749 155.135 93.1632 155.029 92.5611C154.532 89.6841 155.967 86.5901 158.599 84.6161C158.698 83.1602 158.312 81.7124 157.5 80.5001C156.899 79.7141 156.07 79.1324 155.127 78.8341C154.469 79.2821 153.874 79.7441 153.349 80.1781C150.438 82.6629 148.09 85.7387 146.461 89.2011H146.468ZM156.688 96.0471C156.576 96.2533 156.482 96.4687 156.408 96.6911C156.653 96.6911 156.891 96.6001 157.108 96.5441C156.961 96.3831 156.8 96.2151 156.681 96.0471H156.688ZM157.178 95.3471C157.432 95.6771 157.711 95.9883 158.011 96.2781C158.311 96.158 158.604 96.0177 158.886 95.8581C159.892 95.2565 160.768 94.4591 161.462 93.5131C161.078 93.4929 160.693 93.5117 160.314 93.5691C159.091 93.7606 157.977 94.3809 157.171 95.3191L157.178 95.3471ZM156.541 94.3531L156.695 94.6191C157.615 93.6146 158.849 92.951 160.195 92.7361C160.799 92.6554 161.411 92.6554 162.015 92.7361C162.963 91.1494 163.735 89.4641 164.318 87.7101L164.409 87.4371C164.914 85.9669 165.494 84.5231 166.145 83.1111C164.102 83.1522 162.095 83.6598 160.279 84.5951C159.99 84.7492 159.712 84.9223 159.446 85.1131C159.446 85.4911 159.383 85.8901 159.327 86.2961C158.894 89.1206 157.947 91.8419 156.534 94.3251L156.541 94.3531ZM158.543 85.8131C156.73 87.4581 155.435 89.9081 155.876 92.4491C155.931 92.7627 156.011 93.0716 156.114 93.3731C157.314 91.1258 158.122 88.6896 158.501 86.1701L158.543 85.8131ZM176.883 84.0001C178.848 84.7342 180.674 85.7996 182.28 87.1501C182.688 87.5013 183.078 87.8727 183.449 88.2631C183.541 87.3308 183.523 86.3908 183.393 85.4631C183.084 83.1722 181.952 81.072 180.208 79.5551C179.238 78.7885 178.111 78.2455 176.907 77.9648C175.703 77.6841 174.452 77.6725 173.243 77.9311C173.734 78.3561 174.186 78.8246 174.594 79.3311C175.656 80.7216 176.434 82.3083 176.883 84.0001ZM153.216 78.5401C152.139 78.5363 151.081 78.819 150.15 79.3591C147.931 80.6681 146.44 83.3631 146.258 86.4011C146.224 86.8671 146.224 87.335 146.258 87.8011C147.901 84.6695 150.127 81.8803 152.817 79.5831C153.195 79.2751 153.601 78.9531 154.042 78.6311C153.77 78.5705 153.494 78.5307 153.216 78.5121V78.5401ZM156.016 78.2951C156.882 78.6681 157.635 79.2619 158.2 80.0171C159.03 81.2104 159.472 82.6304 159.467 84.0841C159.6 84.0001 159.74 83.9231 159.887 83.8461C161.965 82.7866 164.266 82.2371 166.6 82.2431C167.328 80.8741 168.328 79.6687 169.54 78.7011C170.126 78.2535 170.769 77.8841 171.451 77.6021C169.172 76.1556 166.492 75.4738 163.8 75.6561C161.026 75.8752 158.348 76.7718 156.002 78.2671L156.016 78.2951ZM167.573 82.2431C168.357 82.2431 169.169 82.3131 170.023 82.4041C172.025 82.6129 174 83.0281 175.917 83.6431C175.49 82.2742 174.824 80.9919 173.95 79.8561C173.46 79.2343 172.895 78.6748 172.27 78.1901C171.469 78.4534 170.718 78.851 170.051 79.3661C169.046 80.1481 168.2 81.1151 167.559 82.2151L167.573 82.2431Z" fill="#263238"/>
<path d="M201.096 220.437C183.596 216.237 163.478 206.822 153.545 191.037C152.693 189.757 152.042 188.355 151.613 186.879C147.721 171.346 169.169 162.19 180.558 157.773C184.619 156.24 188.763 154.934 192.969 153.86L195.881 161.749C188.881 165.578 168.28 176.379 166.082 183.225C166.159 183.225 166.194 182.805 166.152 182.525C166.146 182.447 166.132 182.369 166.11 182.294C166.11 182.294 166.11 182.294 166.11 182.252C174.622 193.536 190.351 199.598 203.581 203.539L204.799 203.875L201.089 220.43L201.096 220.437Z" fill="#F3CFB7"/>
<path d="M200.795 230.503L196.406 227.871L193.697 226.247L171.906 213.192L176.323 189.98C176.323 189.98 189.063 197.792 195.594 200.004C195.594 200.004 199.591 203.756 200.9 211.316C201.106 212.501 201.234 213.698 201.285 214.9C201.285 215.6 201.341 216.3 201.355 217C201.544 221.509 201.357 226.025 200.795 230.503Z" fill="#ACDEF5"/>
<path opacity="0.2" d="M200.795 230.503L196.406 227.871C197.253 223.671 199.479 219.73 201.355 216.979C201.546 221.495 201.358 226.019 200.795 230.503Z" fill="#212121"/>
<path d="M198.345 140.7C198.302 140.699 198.261 140.683 198.23 140.655C198.198 140.627 198.176 140.588 198.17 140.546C198.17 140.546 197.673 136.864 195.272 135.492C195.233 135.467 195.206 135.429 195.194 135.385C195.182 135.341 195.188 135.294 195.209 135.254C195.232 135.214 195.27 135.185 195.315 135.174C195.36 135.162 195.407 135.168 195.447 135.191C198.002 136.647 198.499 140.343 198.52 140.504C198.524 140.55 198.51 140.596 198.482 140.632C198.453 140.669 198.412 140.693 198.366 140.7H198.345Z" fill="#263238"/>
<path d="M268.1 278.208C268.695 259.337 267.412 240.454 264.271 221.837C263.536 217.462 262.752 213.437 261.975 209.874C260.536 202.861 258.682 195.94 256.424 189.147C256.424 189.147 237.083 203.147 221.585 203.147C212.837 203.128 204.124 202.063 195.629 199.976C201.516 228.081 202.447 261.744 202.51 278.18L268.1 278.208Z" fill="#ACDEF5"/>
<path d="M189.812 158.459L189.441 145.558L201.285 149.226C201.285 149.226 199.696 161.378 195.874 161.644L189.812 158.459Z" fill="#F3CFB7"/>
<path d="M197.869 137.669L205.436 142.359L201.285 149.226L189.441 145.558L197.869 137.669Z" fill="#F3CFB7"/>
<path d="M215.061 197.323C216.678 195.986 233.471 191.45 235.662 192.178C237.853 192.906 229.215 208.677 220.815 205.772C212.415 202.867 213.178 198.87 215.061 197.323Z" fill="#ACDEF5"/>
<path d="M237.132 195.958C237.132 195.958 236.866 202.818 223.083 206.458C221.754 207.89 220.694 209.55 219.954 211.358C219.26 210.127 218.719 208.815 218.344 207.452C205.436 209.51 212.59 201.782 212.59 201.782C216.972 199.549 218.596 196.777 218.743 193.802C218.777 192.098 218.483 190.403 217.875 188.811C217.463 187.615 216.977 186.446 216.419 185.311L218.456 182.567L229.026 172.403C229.19 175.592 229.557 178.767 230.125 181.909C231.273 187.971 233.38 193.704 237.132 195.958Z" fill="#F3CFB7"/>
<path opacity="0.2" d="M230.125 181.895C228.116 186.627 223.433 191.212 218.743 193.795C218.777 192.091 218.483 190.396 217.875 188.804C217.463 187.608 216.977 186.439 216.419 185.304L218.456 182.56L229.026 172.396C229.19 175.582 229.557 178.755 230.125 181.895Z" fill="#212121"/>
<path d="M223.083 206.43L228.795 212.03C228.795 212.03 240.492 205.947 242.683 196.728L235.683 192.185C235.683 192.185 233.373 200.942 223.083 206.43Z" fill="#ACDEF5"/>
<path d="M218.344 207.438L211.113 214.2C211.113 214.2 208.607 207.291 209.349 202.083L215.061 197.302C215.061 197.302 214.557 203.343 218.344 207.438Z" fill="#ACDEF5"/>
<path opacity="0.2" d="M223.083 206.43L228.795 212.03C228.795 212.03 240.492 205.947 242.683 196.728L235.683 192.185C235.683 192.185 233.373 200.942 223.083 206.43Z" fill="white"/>
<path opacity="0.2" d="M218.344 207.438L211.113 214.2C211.113 214.2 208.607 207.291 209.349 202.083L215.061 197.302C215.061 197.302 214.557 203.343 218.344 207.438Z" fill="white"/>
<path d="M202.055 151.564C197.302 155.323 198.086 171.164 205.716 172.697C213.346 174.23 211.05 144.452 202.055 151.564Z" fill="#263238"/>
<path d="M230.559 161.784C230.902 172.921 231.665 179.403 226.625 185.78C219.051 195.37 205.009 192.038 201.369 181.342C198.093 171.71 198.086 155.113 208.453 149.352C218.666 143.668 230.223 150.647 230.559 161.784Z" fill="#F3CFB7"/>
<path d="M223.832 156.31C222.684 162.673 226.975 171.178 230.454 171.955C234.654 173.943 239.715 166.621 240.415 162.855C241.038 159.488 240.1 152.166 237.93 149.366L223.832 156.31Z" fill="#263238"/>
<path d="M235.746 172.2C234.555 174.69 232.539 176.691 230.041 177.863C226.849 179.263 225.33 176.358 226.275 172.963C227.129 169.904 229.817 165.48 232.988 165.522C236.159 165.564 237.258 169.064 235.746 172.2Z" fill="#F3CFB7"/>
<path d="M207.291 168.315C207.291 168.315 205.73 173.768 203.721 176.554C205.443 177.842 208.075 176.82 208.075 176.82L207.291 168.315Z" fill="#C08A74"/>
<path d="M212.961 161.63C212.873 161.652 212.793 161.698 212.73 161.763C212.633 161.863 212.579 161.998 212.579 162.137C212.579 162.277 212.633 162.411 212.73 162.512C213.301 163.122 214.014 163.582 214.805 163.851C215.596 164.119 216.442 164.189 217.266 164.052C217.335 164.039 217.4 164.012 217.458 163.973C217.515 163.933 217.565 163.882 217.602 163.823C217.639 163.764 217.664 163.698 217.675 163.629C217.686 163.56 217.682 163.49 217.665 163.422C217.65 163.354 217.622 163.29 217.582 163.233C217.542 163.177 217.492 163.128 217.433 163.091C217.375 163.054 217.309 163.029 217.241 163.017C217.173 163.006 217.103 163.007 217.035 163.023C216.388 163.114 215.729 163.048 215.114 162.83C214.498 162.612 213.945 162.248 213.5 161.77C213.431 161.7 213.345 161.651 213.25 161.626C213.155 161.601 213.055 161.603 212.961 161.63Z" fill="#263238"/>
<path d="M204.19 161.7C204.103 161.696 204.016 161.713 203.938 161.751C203.86 161.789 203.792 161.846 203.742 161.917C203.364 162.482 202.862 162.952 202.273 163.29C201.684 163.629 201.025 163.827 200.347 163.87C200.206 163.87 200.071 163.926 199.971 164.026C199.871 164.126 199.815 164.261 199.815 164.402C199.815 164.543 199.871 164.678 199.971 164.778C200.071 164.878 200.206 164.934 200.347 164.934C201.197 164.894 202.026 164.657 202.768 164.242C203.51 163.826 204.146 163.244 204.624 162.54C204.682 162.462 204.718 162.37 204.727 162.274C204.736 162.177 204.718 162.08 204.675 161.993C204.632 161.906 204.566 161.833 204.484 161.781C204.402 161.729 204.308 161.701 204.211 161.7H204.19Z" fill="#263238"/>
<path d="M215.6 167.951C215.563 167.951 215.527 167.944 215.493 167.93C215.459 167.915 215.429 167.894 215.404 167.867C215.075 167.503 214.004 167.503 213.374 167.587C213.319 167.595 213.264 167.585 213.215 167.56C213.166 167.535 213.126 167.496 213.101 167.447C213.077 167.4 213.068 167.346 213.075 167.293C213.083 167.241 213.106 167.192 213.143 167.153C213.424 166.805 213.777 166.522 214.178 166.323C214.58 166.125 215.019 166.016 215.467 166.005C215.529 166.015 215.586 166.047 215.626 166.095C215.667 166.143 215.69 166.204 215.69 166.268C215.69 166.331 215.667 166.392 215.626 166.44C215.586 166.488 215.529 166.52 215.467 166.53C214.96 166.537 214.469 166.706 214.067 167.013C214.686 166.953 215.306 167.133 215.796 167.517C215.844 167.565 215.87 167.631 215.87 167.699C215.87 167.767 215.844 167.833 215.796 167.881C215.77 167.906 215.739 167.926 215.705 167.938C215.672 167.95 215.635 167.954 215.6 167.951Z" fill="#263238"/>
<path d="M201.957 169.4C201.91 169.399 201.864 169.387 201.824 169.365C201.764 169.33 201.721 169.273 201.702 169.206C201.684 169.14 201.692 169.069 201.726 169.008C202.126 168.535 202.692 168.232 203.308 168.161C202.861 167.948 202.359 167.882 201.873 167.972C201.805 167.987 201.734 167.976 201.674 167.941C201.614 167.906 201.57 167.849 201.551 167.783C201.533 167.715 201.544 167.643 201.579 167.583C201.614 167.523 201.672 167.479 201.74 167.461C202.18 167.38 202.633 167.396 203.067 167.507C203.501 167.618 203.905 167.822 204.253 168.105C204.295 168.136 204.327 168.18 204.343 168.23C204.36 168.281 204.36 168.335 204.344 168.385C204.331 168.438 204.301 168.485 204.26 168.52C204.218 168.555 204.167 168.577 204.113 168.581C203.497 168.623 202.426 168.847 202.181 169.281C202.157 169.318 202.123 169.349 202.084 169.37C202.045 169.391 202.001 169.401 201.957 169.4Z" fill="#263238"/>
<path d="M219.569 178.633C219.515 179.083 219.316 179.504 219.004 179.832C218.691 180.16 218.28 180.378 217.833 180.453C215.649 181.153 213.539 182.065 211.533 183.176L211.477 183.078C211.033 182.226 210.443 181.458 209.734 180.81C209.622 180.718 209.494 180.649 209.356 180.607V180.565C209.685 180.117 212.646 176.19 217.378 176.421C217.884 176.429 218.375 176.598 218.778 176.904C219.042 177.105 219.252 177.368 219.39 177.669C219.528 177.971 219.59 178.302 219.569 178.633Z" fill="white"/>
<path opacity="0.2" d="M209.377 180.551L209.727 180.796C209.615 180.704 209.487 180.635 209.349 180.593L209.377 180.551Z" fill="#212121"/>
<path opacity="0.1" d="M219.268 178.283C218.133 178.41 217.012 178.644 215.922 178.983L216.006 179.55L215.67 179.067C214.76 179.368 213.879 179.75 213.038 180.208L213.234 180.677L212.856 180.313C212.152 180.719 211.487 181.187 210.868 181.713L211.47 183.071C211.026 182.219 210.436 181.451 209.727 180.803L210.665 181.447C211.195 180.875 211.803 180.381 212.471 179.977L212.142 179.2L212.765 179.802C213.592 179.315 214.47 178.919 215.383 178.619L215.124 177.919L215.824 178.458C216.834 178.16 217.87 177.956 218.918 177.849L218.75 176.897C219.017 177.098 219.23 177.363 219.369 177.668C219.508 177.972 219.57 178.306 219.548 178.64L219.268 178.283Z" fill="#212121"/>
<path d="M239.645 160.3C239.645 160.3 247.674 149.933 239.099 146.538C239.099 146.538 236.873 139.118 232.764 137.333C228.655 135.548 225.344 139.748 225.344 139.748C224.606 138.137 223.403 136.784 221.89 135.862C220.377 134.94 218.623 134.492 216.853 134.575C210.602 134.827 209.727 140.014 209.727 140.014C209.727 140.014 204.925 137.956 200.795 140.714C200.239 141.039 199.753 141.471 199.366 141.985C198.978 142.5 198.697 143.086 198.539 143.71C198.38 144.335 198.348 144.984 198.443 145.621C198.539 146.258 198.76 146.869 199.094 147.42C199.094 147.42 192.906 150.815 194.782 155.12C196.658 159.425 201.782 157.353 201.782 157.353C201.782 157.353 201.642 159.768 204.673 159.859C207.704 159.95 212.611 156.555 212.611 156.555C213.105 157.173 213.732 157.672 214.446 158.012C215.16 158.353 215.943 158.527 216.734 158.522C219.597 158.606 222.243 156.639 222.243 156.639C222.685 157.644 223.341 158.541 224.166 159.266C224.99 159.992 225.963 160.528 227.017 160.839C230.559 161.784 239.645 160.3 239.645 160.3Z" fill="#263238"/>
<path d="M245.742 147L241.017 134.995L231.567 143.017C231.567 143.017 237.797 153.566 241.423 152.313L245.742 147Z" fill="#F3CFB7"/>
<path d="M230.174 131.012L225.05 138.299L231.567 142.989L241.017 134.967L230.174 131.012Z" fill="#F3CFB7"/>
<path d="M209.727 142.156H209.692C209.67 142.152 209.648 142.143 209.629 142.131C209.611 142.118 209.594 142.102 209.582 142.083C209.57 142.064 209.561 142.043 209.557 142.02C209.553 141.998 209.554 141.975 209.559 141.953C209.727 140.858 209.591 139.738 209.166 138.715C208.742 137.692 208.045 136.804 207.151 136.15C207.095 136.498 206.962 136.829 206.76 137.119C206.559 137.408 206.296 137.649 205.989 137.823C205.9 137.903 205.796 137.964 205.683 138.004C205.57 138.043 205.45 138.059 205.331 138.051C205.211 138.043 205.095 138.012 204.988 137.958C204.881 137.904 204.786 137.83 204.708 137.739C204.495 137.424 204.392 137.047 204.415 136.668C204.438 136.288 204.585 135.926 204.834 135.639C205.065 135.387 205.681 134.939 206.822 135.52C206.671 134.487 206.136 133.55 205.324 132.895C205.294 132.864 205.277 132.823 205.276 132.78C205.275 132.737 205.289 132.695 205.317 132.662C205.345 132.629 205.384 132.608 205.426 132.601C205.469 132.595 205.512 132.605 205.548 132.629C206.018 133.005 206.406 133.473 206.687 134.006C206.967 134.538 207.135 135.123 207.179 135.723L207.347 135.835C210.616 138.11 209.909 141.96 209.902 142.002C209.895 142.044 209.874 142.083 209.842 142.111C209.81 142.139 209.769 142.155 209.727 142.156ZM205.8 135.597C205.669 135.592 205.538 135.616 205.417 135.667C205.297 135.718 205.188 135.794 205.1 135.891C204.916 136.116 204.806 136.392 204.786 136.682C204.766 136.971 204.837 137.26 204.988 137.508C205.226 137.795 205.569 137.669 205.807 137.508C206.096 137.35 206.342 137.121 206.52 136.844C206.699 136.566 206.805 136.248 206.829 135.919C206.52 135.724 206.165 135.613 205.8 135.597Z" fill="#263238"/>
<path d="M200.27 148.015C198.453 148.03 196.68 147.455 195.217 146.378C193.754 145.3 192.68 143.777 192.157 142.037C192.149 142.015 192.146 141.991 192.147 141.968C192.149 141.945 192.155 141.922 192.165 141.901C192.176 141.88 192.19 141.862 192.208 141.847C192.226 141.831 192.246 141.82 192.269 141.813C192.312 141.8 192.359 141.804 192.4 141.825C192.44 141.846 192.471 141.882 192.486 141.925C193.006 143.618 194.065 145.094 195.502 146.129C196.939 147.164 198.674 147.701 200.445 147.658C200.468 147.656 200.491 147.659 200.513 147.666C200.535 147.674 200.555 147.686 200.573 147.702C200.59 147.718 200.603 147.737 200.613 147.758C200.622 147.78 200.627 147.803 200.627 147.826C200.629 147.871 200.613 147.915 200.583 147.949C200.553 147.983 200.511 148.004 200.466 148.008L200.27 148.015Z" fill="#263238"/>
<path d="M194.425 161C194.385 160.999 194.347 160.985 194.316 160.959C194.286 160.934 194.265 160.899 194.257 160.86C194.252 160.837 194.252 160.814 194.256 160.791C194.26 160.768 194.269 160.747 194.283 160.728C194.296 160.709 194.313 160.693 194.332 160.68C194.352 160.668 194.374 160.66 194.397 160.657C198.156 159.957 200.277 155.974 200.298 155.939C200.308 155.918 200.323 155.9 200.34 155.884C200.358 155.869 200.379 155.858 200.401 155.85C200.423 155.843 200.446 155.841 200.47 155.843C200.493 155.845 200.515 155.851 200.536 155.862C200.556 155.873 200.574 155.888 200.589 155.906C200.603 155.924 200.614 155.944 200.62 155.966C200.627 155.989 200.629 156.012 200.627 156.035C200.624 156.058 200.617 156.08 200.606 156.1C200.522 156.268 198.394 160.265 194.46 161H194.425Z" fill="#263238"/>
<path d="M236.516 136.864C236.301 136.864 236.089 136.818 235.893 136.731C235.628 136.607 235.395 136.422 235.212 136.193C235.03 135.963 234.904 135.695 234.843 135.408C234.22 135.765 233.653 136.213 233.163 136.738C233.13 136.77 233.086 136.788 233.04 136.788C232.995 136.788 232.951 136.77 232.918 136.738C232.885 136.704 232.867 136.659 232.867 136.612C232.867 136.565 232.885 136.52 232.918 136.486C233.458 135.91 234.087 135.423 234.78 135.044C234.678 134.276 234.728 133.496 234.927 132.748C234.932 132.726 234.941 132.704 234.955 132.686C234.968 132.667 234.985 132.651 235.005 132.64C235.024 132.628 235.046 132.62 235.069 132.617C235.092 132.614 235.115 132.616 235.137 132.622C235.181 132.632 235.219 132.659 235.244 132.697C235.269 132.735 235.278 132.781 235.27 132.825C235.098 133.499 235.046 134.198 235.116 134.89C235.391 134.782 235.682 134.721 235.977 134.708C236.218 134.697 236.458 134.739 236.682 134.829C236.905 134.92 237.106 135.058 237.272 135.233C237.448 135.365 237.57 135.557 237.612 135.773C237.655 135.989 237.616 136.213 237.503 136.402C237.389 136.554 237.239 136.675 237.067 136.756C236.895 136.836 236.706 136.874 236.516 136.864ZM235.165 135.254C235.209 135.502 235.311 135.736 235.461 135.938C235.612 136.139 235.808 136.303 236.033 136.416C236.223 136.511 236.439 136.543 236.649 136.508C236.859 136.473 237.053 136.372 237.202 136.22C237.342 136.017 237.272 135.758 237.006 135.52C236.872 135.381 236.711 135.272 236.532 135.198C236.354 135.125 236.163 135.089 235.97 135.093C235.706 135.104 235.446 135.158 235.2 135.254H235.165Z" fill="#263238"/>
<path d="M225.561 141.729C225.527 141.728 225.494 141.718 225.465 141.7C225.437 141.681 225.414 141.655 225.4 141.624C225.4 141.582 223.881 137.788 227.5 133.469C227.513 133.448 227.531 133.431 227.552 133.418C227.573 133.405 227.596 133.396 227.621 133.393C227.645 133.389 227.67 133.391 227.694 133.398C227.717 133.404 227.739 133.416 227.758 133.432C227.777 133.448 227.792 133.468 227.803 133.49C227.814 133.512 227.82 133.536 227.821 133.561C227.821 133.585 227.817 133.61 227.807 133.633C227.798 133.656 227.784 133.676 227.766 133.693C224.308 137.844 225.722 141.449 225.743 141.491C225.759 141.534 225.758 141.581 225.739 141.623C225.721 141.665 225.687 141.698 225.645 141.715L225.561 141.729Z" fill="#263238"/>
<path d="M243.6 162.253C243.56 162.254 243.521 162.24 243.49 162.214C243.459 162.188 243.438 162.153 243.432 162.113C242.83 159.124 238.637 157.983 238.595 157.969C238.571 157.965 238.548 157.956 238.527 157.943C238.506 157.929 238.489 157.912 238.476 157.891C238.462 157.87 238.454 157.847 238.45 157.823C238.446 157.799 238.447 157.774 238.454 157.75C238.46 157.727 238.472 157.705 238.487 157.686C238.503 157.667 238.522 157.651 238.544 157.64C238.566 157.629 238.59 157.623 238.614 157.621C238.638 157.62 238.663 157.624 238.686 157.633C238.868 157.682 243.131 158.837 243.775 162.043C243.783 162.089 243.773 162.137 243.747 162.176C243.721 162.215 243.681 162.243 243.635 162.253H243.6Z" fill="#263238"/>
<path opacity="0.2" d="M264.236 221.837C256.536 218.491 255.612 209.363 255.612 209.363C257.721 208.985 259.892 209.161 261.912 209.874C262.717 213.5 263.501 217.462 264.236 221.837Z" fill="#212121"/>
<path d="M249.788 194.635C260.652 185.857 273.497 173.446 276.878 159.551C276.934 159.796 277.13 160.405 277.291 160.426C277.452 160.447 277.228 160.188 276.892 159.894C269.297 154.567 251.23 153.419 241.451 152.376L241.031 143.976C253.344 142.226 269.549 141.295 281.351 145.873C288.862 148.897 293.615 155.064 291.732 163.632C288.449 181.006 275.849 195.454 262.584 206.241L261.184 207.291L260.484 207.816L259.686 208.397L249.767 194.628L249.788 194.635Z" fill="#F3CFB7"/>
<path d="M247.723 194.6C247.723 194.6 264.306 180.95 270.2 172.319L283.787 189.175L263.27 217.322C263.27 217.322 255.724 215.614 251.44 208.852C248.843 204.563 247.551 199.611 247.723 194.6Z" fill="#ACDEF5"/>
<path d="M72.0022 268.87C70.0422 231.56 80.8922 206.969 90.3352 192.906C100.653 177.548 111.398 171.15 111.846 170.884L114.324 175.084L113.085 172.984L114.331 175.084C114.226 175.14 103.943 181.321 94.2412 195.853C85.2882 209.272 75.0122 232.778 76.8952 268.583L72.0022 268.87Z" fill="#ACDEF5"/>
<g opacity="0.2">
<path d="M72.0022 268.87C70.0422 231.56 80.8922 206.969 90.3352 192.906C100.653 177.548 111.398 171.15 111.846 170.884L114.324 175.084L113.085 172.984L114.331 175.084C114.226 175.14 103.943 181.321 94.2412 195.853C85.2882 209.272 75.0122 232.778 76.8952 268.583L72.0022 268.87Z" fill="#212121"/>
</g>
<g opacity="0.2">
<path d="M114.1 175.252L111.482 171.108L111.86 170.877L114.317 175.119L114.1 175.252Z" fill="#212121"/>
<path d="M71.82 264.236V263.536L76.72 263.431V264.131L71.82 264.236ZM71.771 259.259V258.559L76.671 258.601V259.301L71.771 259.259ZM76.769 254.457L71.869 254.282V253.582L76.769 253.785V254.457ZM77.021 249.648L72.121 249.305L72.17 248.605L77.07 248.969L77.021 249.648ZM77.441 244.846L72.541 244.342L72.618 243.642L77.518 244.181L77.441 244.846ZM78.029 240.079L73.178 239.379L73.283 238.679L78.127 239.379L78.029 240.079ZM78.792 235.333L73.969 234.5L74.102 233.8L78.918 234.696L78.792 235.333ZM79.744 230.622L74.956 229.6L75.117 228.9L79.891 229.992L79.744 230.622ZM80.878 225.96L76.146 224.7L76.328 224L81.053 225.288L80.878 225.96ZM82.208 221.361L77.532 219.898L77.749 219.198L82.418 220.689L82.208 221.361ZM83.741 216.825L79.135 215.152L79.38 214.452L83.972 216.153L83.741 216.825ZM85.477 212.359L80.948 210.483L81.228 209.818L85.736 211.729L85.477 212.359ZM87.409 207.984L82.978 205.884L83.286 205.233L87.703 207.333L87.409 207.984ZM89.558 203.714L85.232 201.411L85.575 200.774L89.88 203.119L89.558 203.714ZM91.91 199.563L87.71 197.036L88.081 196.42L92.281 198.975L91.91 199.563ZM94.472 195.538L90.412 192.794L90.811 192.206L94.857 194.971L94.472 195.538ZM97.272 191.653L93.366 188.692L93.8 188.125L97.685 191.107L97.272 191.653ZM100.247 187.929L96.481 184.8L96.95 184.254L100.66 187.446L100.247 187.929ZM103.425 184.387L99.876 181.013L100.38 180.488L103.88 183.904L103.425 184.387ZM106.806 181.055L103.481 177.457L104.013 176.967L107.303 180.593L106.806 181.055ZM110.383 177.968L107.324 174.139L107.898 173.684L110.915 177.548L110.383 177.968Z" fill="#212121"/>
<path d="M72.002 268.87L71.981 268.506L76.881 268.275L76.895 268.583L72.002 268.87Z" fill="#212121"/>
</g>
<path d="M120.4 159.635C118.971 159.007 117.41 158.739 115.854 158.852C114.297 158.966 112.792 159.458 111.469 160.286C110.146 161.114 109.046 162.253 108.263 163.604C107.481 164.954 107.041 166.475 106.981 168.035L112.238 179.599L120.386 174.475L128.506 169.4L120.4 159.635Z" fill="#ACDEF5"/>
<path opacity="0.2" d="M120.4 159.635C118.971 159.007 117.41 158.739 115.854 158.852C114.297 158.966 112.792 159.458 111.469 160.286C110.146 161.114 109.046 162.253 108.263 163.604C107.481 164.954 107.041 166.475 106.981 168.035L112.238 179.599L120.386 174.475L128.506 169.4L120.4 159.635Z" fill="white"/>
<path d="M136.5 172.9C134.358 169.498 130.263 168.448 129.122 168.217H129.066L128.814 168.168C126.364 167.804 122.395 168.987 118.468 171.451C114.541 173.915 111.762 176.988 111.027 179.347C111.027 179.347 111.027 179.438 110.957 179.599V179.648C110.67 180.782 109.844 184.919 111.979 188.328C113.729 191.128 120.645 189.917 127.428 185.654C134.211 181.391 138.236 175.7 136.5 172.9Z" fill="#ACDEF5"/>
<path opacity="0.2" d="M111.923 188.342C113.673 191.142 120.589 189.931 127.372 185.668C134.155 181.405 138.236 175.7 136.5 172.9C134.764 170.1 127.827 171.311 121.044 175.574C114.261 179.837 110.166 185.556 111.923 188.342Z" fill="white"/>
<path opacity="0.2" d="M135.926 173.243C137.438 175.651 133.413 180.894 126.938 184.968C120.463 189.042 113.988 190.393 112.469 187.992C111.566 186.543 112.665 184.065 115.108 181.426C118.936 177.482 123.656 174.517 128.87 172.781C132.3 171.717 135.023 171.801 135.926 173.243Z" fill="#212121"/>
<path d="M129.017 172.991C129.585 173.896 129.97 174.903 130.149 175.956C130.329 177.01 130.298 178.088 130.061 179.13C129.823 180.171 129.383 181.156 128.765 182.027C128.147 182.899 127.363 183.64 126.458 184.209C125.554 184.777 124.546 185.162 123.493 185.341C122.44 185.52 121.361 185.49 120.32 185.252C119.278 185.015 118.293 184.574 117.422 183.956C116.551 183.338 115.809 182.555 115.241 181.65L115.108 181.426C118.935 177.482 123.655 174.517 128.87 172.781C128.919 172.844 128.968 172.9 129.017 172.991Z" fill="white"/>
<path d="M92.8271 277.095V272.426C92.8271 271.236 92.3544 270.095 91.5129 269.253C90.6714 268.412 89.5302 267.939 88.3401 267.939H60.6691C59.4791 267.939 58.3378 268.412 57.4963 269.253C56.6549 270.095 56.1821 271.236 56.1821 272.426V277.095H92.8271Z" fill="#ACDEF5"/>
<path d="M92.8271 274.68H56.1821V277.095H92.8271V274.68Z" fill="#212121"/>
<path d="M56.5529 247.282C56.4432 248.994 57.0142 250.68 58.1418 251.972C59.2693 253.265 60.862 254.06 62.5729 254.184L63.5109 254.24H63.7069H64.1689V253.876L64.2669 252.434L62.7829 252.336H62.6709C61.4417 252.248 60.2972 251.678 59.4868 250.749C58.6765 249.821 58.266 248.61 58.3449 247.38L58.4569 245.686C58.4801 245.418 58.6074 245.169 58.8115 244.994C59.0157 244.819 59.2804 244.73 59.5489 244.748L61.3969 244.874L63.6509 245.028L63.7769 243.208L61.2989 243.04L59.6749 242.928C58.9267 242.892 58.1944 243.152 57.6373 243.653C57.0802 244.154 56.7433 244.854 56.6999 245.602L56.5529 247.282Z" fill="#ACDEF5"/>
<g opacity="0.5">
<path d="M56.5529 247.282C56.4432 248.994 57.0142 250.68 58.1418 251.972C59.2693 253.265 60.862 254.06 62.5729 254.184L63.5109 254.24H63.7069H64.1689V253.876L64.2669 252.434L62.7829 252.336H62.6709C61.4417 252.248 60.2972 251.678 59.4868 250.749C58.6765 249.821 58.266 248.61 58.3449 247.38L58.4569 245.686C58.4801 245.418 58.6074 245.169 58.8115 244.994C59.0157 244.819 59.2804 244.73 59.5489 244.748L61.3969 244.874L63.6509 245.028L63.7769 243.208L61.2989 243.04L59.6749 242.928C58.9267 242.892 58.1944 243.152 57.6373 243.653C57.0802 244.154 56.7433 244.854 56.6999 245.602L56.5529 247.282Z" fill="white"/>
</g>
<path d="M61.2988 242.2V242.368C61.2988 242.592 61.2988 242.816 61.2988 243.068C61.2988 243.698 61.3408 244.314 61.3968 244.902C61.5288 247.445 61.9997 249.959 62.7968 252.378C63.044 253.001 63.3462 253.601 63.6998 254.17L63.7418 254.254C64.1164 254.95 64.7125 255.502 65.4358 255.822C65.6012 255.887 65.7762 255.925 65.9538 255.934L74.3538 256.508C75.4878 256.592 76.6218 255.64 77.6298 253.904C78.2216 252.851 78.7138 251.745 79.0998 250.6C79.8525 248.361 80.4099 246.061 80.7658 243.726V243.572L61.2988 242.2Z" fill="#ACDEF5"/>
<path opacity="0.6" d="M61.2988 242.2V242.368C61.2988 242.592 61.2988 242.816 61.2988 243.068C61.2988 243.698 61.3408 244.314 61.3968 244.902C61.5288 247.445 61.9997 249.959 62.7968 252.378C63.044 253.001 63.3462 253.601 63.6998 254.17L63.7418 254.254C64.1164 254.95 64.7125 255.502 65.4358 255.822C65.6012 255.887 65.7762 255.925 65.9538 255.934L74.3538 256.508C75.4878 256.592 76.6218 255.64 77.6298 253.904C78.2216 252.851 78.7138 251.745 79.0998 250.6C79.8525 248.361 80.4099 246.061 80.7658 243.726V243.572L61.2988 242.2Z" fill="white"/>
<path opacity="0.1" d="M63.5107 254.24H63.7067C64.0813 254.936 64.6774 255.488 65.4007 255.808C68.7887 255.472 73.8007 254.604 77.5667 253.89C78.1794 252.844 78.6927 251.742 79.0997 250.6C76.2997 250.908 68.8097 251.888 64.2177 253.918C64.0357 254.002 63.8537 254.072 63.6857 254.17C63.6247 254.186 63.5659 254.209 63.5107 254.24Z" fill="#212121"/>
<path d="M80.0937 263.55L78.5117 263.795L78.2317 261.996L79.8137 261.751C81.0312 261.558 82.1227 260.891 82.8494 259.895C83.5762 258.899 83.879 257.656 83.6917 256.438L83.4327 254.772C83.3896 254.506 83.2434 254.268 83.0258 254.11C82.8082 253.951 82.5369 253.885 82.2707 253.925L78.2107 254.562L77.9307 252.763L81.9907 252.126C82.7332 252.011 83.4909 252.196 84.0973 252.64C84.7037 253.083 85.1092 253.75 85.2247 254.492L85.4907 256.158C85.7505 257.853 85.3287 259.582 84.3174 260.968C83.3061 262.353 81.7875 263.281 80.0937 263.55Z" fill="#ACDEF5"/>
<g opacity="0.5">
<path d="M83.6847 256.445C83.8738 257.663 83.5715 258.906 82.8443 259.901C82.1171 260.896 81.0244 261.561 79.8067 261.751H79.6807L78.2247 261.989L78.3997 263.2L78.4977 263.788L78.9457 263.718L80.0797 263.55C80.1214 263.556 80.1639 263.556 80.2057 263.55C81.8705 263.255 83.3545 262.322 84.3416 260.949C85.3287 259.576 85.741 257.872 85.4907 256.2L85.2247 254.534C85.1719 254.164 85.0458 253.809 84.8537 253.489C84.6615 253.169 84.4074 252.89 84.106 252.67C83.8047 252.449 83.4623 252.291 83.099 252.205C82.7358 252.119 82.3589 252.106 81.9907 252.168L80.3807 252.42L77.9307 252.798L78.2107 254.59L80.4367 254.24L82.2707 253.96C82.5379 253.92 82.8102 253.987 83.028 254.147C83.2457 254.307 83.3912 254.547 83.4327 254.814L83.6847 256.445Z" fill="white"/>
</g>
<path d="M76.8949 265.594L68.5999 266.889C66.0449 267.288 62.9999 262.297 61.0819 254.702L61.0469 254.548L80.3319 251.538V251.699C80.8639 259.511 79.4499 265.195 76.8949 265.594Z" fill="#ACDEF5"/>
<path opacity="0.6" d="M61.0469 254.555L61.0889 254.695C61.7021 257.323 62.5987 259.877 63.7629 262.311C65.3169 265.391 67.0529 267.127 68.5929 266.889L76.8949 265.587C77.7069 265.461 78.4069 264.817 78.9529 263.725C79.0219 263.598 79.0827 263.467 79.1349 263.333C79.3612 262.827 79.5439 262.302 79.6809 261.765C80.2726 259.291 80.5269 256.748 80.4369 254.205C80.4369 253.617 80.4369 253.015 80.3809 252.385C80.3809 252.161 80.3809 251.937 80.3389 251.685V251.531L61.0469 254.555Z" fill="white"/>
<path opacity="0.1" d="M63.7627 262.311C65.3167 265.391 67.0527 267.127 68.5927 266.889L76.8947 265.587C77.7067 265.461 78.4067 264.817 78.9527 263.725L80.0867 263.557C80.1284 263.564 80.171 263.564 80.2127 263.557C79.8767 263.487 79.5127 263.431 79.1347 263.361L78.4347 263.235C74.4447 262.563 68.5997 261.849 63.7627 262.311Z" fill="#212121"/>
<path d="M64.8197 275.366H66.4227V273.546H64.8197C63.5924 273.537 62.4184 273.043 61.5532 272.173C60.688 271.302 60.2015 270.125 60.1997 268.898V267.211C60.1997 266.942 60.3067 266.684 60.497 266.493C60.6874 266.303 60.9455 266.196 61.2147 266.196H65.3237V264.376H61.1867C60.4415 264.387 59.7304 264.69 59.2067 265.221C58.6829 265.751 58.3885 266.466 58.3867 267.211V268.898C58.3885 270.607 59.0658 272.246 60.2708 273.457C61.4758 274.669 63.1109 275.355 64.8197 275.366Z" fill="#ACDEF5"/>
<g opacity="0.5">
<path d="M64.8197 275.366H66.4227V273.546H64.8197C63.5924 273.537 62.4184 273.043 61.5532 272.173C60.688 271.302 60.2015 270.125 60.1997 268.898V267.211C60.1997 266.942 60.3067 266.684 60.497 266.493C60.6874 266.303 60.9455 266.196 61.2147 266.196H65.3237V264.376H61.1867C60.4415 264.387 59.7304 264.69 59.2067 265.221C58.6829 265.751 58.3885 266.466 58.3867 267.211V268.898C58.3885 270.607 59.0658 272.246 60.2708 273.457C61.4758 274.669 63.1109 275.355 64.8197 275.366Z" fill="white"/>
</g>
<path d="M68.2919 276.892H76.6919C79.2819 276.892 81.5499 271.495 82.2359 263.697V263.543H62.7339V263.697C63.4339 271.495 65.7089 276.892 68.2919 276.892Z" fill="#ACDEF5"/>
<path opacity="0.6" d="M68.2919 276.892H76.6919C79.2819 276.892 81.5499 271.495 82.2359 263.697V263.543H62.7339V263.697C63.4339 271.495 65.7089 276.892 68.2919 276.892Z" fill="white"/>
<path opacity="0.4" d="M69.8599 242.816C70.6929 242.879 70.4829 245.728 71.0359 246.211C71.5889 246.694 71.7989 243.649 72.4919 243.859C73.1849 244.069 73.9689 244.657 74.6549 243.159L69.8599 242.816Z" fill="#212121"/>
<path opacity="0.4" d="M61.8379 254.38C61.8379 254.38 62.2509 257.285 62.7339 257.32C63.2169 257.355 62.8389 254.863 63.5109 255.073C64.1829 255.283 64.9949 253.939 64.9949 253.939L61.8379 254.38Z" fill="#212121"/>
<path d="M97.2158 271.677V275.576C97.2158 276.577 98.3988 276.976 99.3858 276.976H177.345C178.346 276.976 179.55 276.57 179.55 275.576V271.677H97.2158Z" fill="#263238"/>
<path opacity="0.4" d="M97.2158 271.677V275.576C97.2158 276.577 98.3988 276.976 99.3858 276.976H177.345C178.346 276.976 179.55 276.57 179.55 275.576V271.677H97.2158Z" fill="white"/>
<path opacity="0.2" d="M97.2158 271.677V275.576C97.2158 276.577 98.3988 276.976 99.3858 276.976H150.808C151.802 276.976 152.992 276.57 152.992 275.576V271.677H97.2158Z" fill="#212121"/>
<path d="M84.175 231.168L93.457 273.266C93.6249 273.941 94.011 274.541 94.5553 274.974C95.0996 275.407 95.7716 275.648 96.467 275.66H147.168C147.487 275.656 147.801 275.577 148.085 275.431C148.368 275.284 148.613 275.073 148.801 274.814C148.989 274.556 149.113 274.258 149.165 273.943C149.217 273.628 149.195 273.305 149.1 273L139.825 231.224C139.517 229.824 138.18 229.166 136.815 229.166H86.1C84.7 229.18 83.874 229.796 84.175 231.168Z" fill="#263238"/>
<path opacity="0.4" d="M84.175 231.168L93.457 273.266C93.6249 273.941 94.011 274.541 94.5553 274.974C95.0996 275.407 95.7716 275.648 96.467 275.66H145.467C145.783 275.653 146.094 275.573 146.374 275.426C146.655 275.279 146.897 275.07 147.083 274.813C147.269 274.557 147.393 274.261 147.445 273.949C147.497 273.637 147.477 273.317 147.385 273.014L138.103 231.238C137.802 229.838 136.451 229.18 135.093 229.18H86.1C84.7 229.18 83.874 229.796 84.175 231.168Z" fill="white"/>
<path opacity="0.2" d="M109.2 252.567C109.2 256.165 113.064 259.098 115.892 259.098C118.72 259.098 120.407 256.165 119.602 252.567C118.797 248.969 115.976 246.155 113.204 246.043C114.009 249.648 112.28 252.567 109.459 252.567C109.373 252.576 109.286 252.576 109.2 252.567Z" fill="#212121"/>
<path d="M303.359 278.334H49.8818V290.892H303.359V278.334Z" fill="#263238"/>
<path opacity="0.5" d="M303.359 278.334H49.8818V290.892H303.359V278.334Z" fill="white"/>
<path d="M306.103 277.123H47.145C46.364 277.123 45.731 277.756 45.731 278.537V280.567C45.731 281.348 46.364 281.981 47.145 281.981H306.103C306.884 281.981 307.517 281.348 307.517 280.567V278.537C307.517 277.756 306.884 277.123 306.103 277.123Z" fill="#263238"/>
<path opacity="0.6" d="M306.103 277.123H47.145C46.364 277.123 45.731 277.756 45.731 278.537V280.567C45.731 281.348 46.364 281.981 47.145 281.981H306.103C306.884 281.981 307.517 281.348 307.517 280.567V278.537C307.517 277.756 306.884 277.123 306.103 277.123Z" fill="white"/>
<path d="M248.227 257.922H281.547V250.068H248.227V257.922Z" fill="#ACDEF5"/>
<path opacity="0.7" d="M248.227 257.922H281.547V250.068H248.227V257.922Z" fill="white"/>
<path d="M268.66 249.34H294.763C295.966 249.387 297.103 249.897 297.937 250.764C298.772 251.632 299.238 252.788 299.238 253.992C299.238 255.195 298.772 256.351 297.937 257.219C297.103 258.086 295.966 258.596 294.763 258.643H268.66V256.942H272.629C273.387 256.905 274.101 256.578 274.624 256.029C275.148 255.48 275.439 254.75 275.439 253.992C275.439 253.233 275.148 252.504 274.624 251.954C274.101 251.405 273.387 251.078 272.629 251.041H268.66V249.34Z" fill="#ACDEF5"/>
<g opacity="0.4">
<path d="M268.66 249.34H294.763C295.966 249.387 297.103 249.897 297.937 250.764C298.772 251.632 299.238 252.788 299.238 253.992C299.238 255.195 298.772 256.351 297.937 257.219C297.103 258.086 295.966 258.596 294.763 258.643H268.66V256.942H272.629C273.387 256.905 274.101 256.578 274.624 256.029C275.148 255.48 275.439 254.75 275.439 253.992C275.439 253.233 275.148 252.504 274.624 251.954C274.101 251.405 273.387 251.078 272.629 251.041H268.66V249.34Z" fill="white"/>
</g>
<path d="M246.526 249.34H272.629C273.832 249.387 274.969 249.897 275.804 250.764C276.638 251.632 277.104 252.788 277.104 253.992C277.104 255.195 276.638 256.351 275.804 257.219C274.969 258.086 273.832 258.596 272.629 258.643H246.526V256.942H272.629C273.387 256.905 274.101 256.578 274.625 256.029C275.148 255.48 275.44 254.75 275.44 253.992C275.44 253.233 275.148 252.504 274.625 251.954C274.101 251.405 273.387 251.078 272.629 251.041H246.526V249.34Z" fill="#ACDEF5"/>
<g opacity="0.2">
<path d="M246.526 249.34H272.629C273.832 249.387 274.969 249.897 275.804 250.764C276.638 251.632 277.104 252.788 277.104 253.992C277.104 255.195 276.638 256.351 275.804 257.219C274.969 258.086 273.832 258.596 272.629 258.643H246.526V256.942H272.629C273.387 256.905 274.101 256.578 274.625 256.029C275.148 255.48 275.44 254.75 275.44 253.992C275.44 253.233 275.148 252.504 274.625 251.954C274.101 251.405 273.387 251.078 272.629 251.041H246.526V249.34Z" fill="white"/>
</g>
<path d="M296.009 240.765H262.689V248.619H296.009V240.765Z" fill="#ACDEF5"/>
<path opacity="0.7" d="M296.009 240.765H262.689V248.619H296.009V240.765Z" fill="white"/>
<path d="M275.576 240.044H249.48C248.87 240.044 248.265 240.164 247.701 240.398C247.137 240.631 246.625 240.974 246.193 241.405C245.762 241.837 245.419 242.349 245.186 242.913C244.952 243.477 244.832 244.082 244.832 244.692C244.832 245.302 244.952 245.907 245.186 246.471C245.419 247.035 245.762 247.547 246.193 247.979C246.625 248.41 247.137 248.753 247.701 248.986C248.265 249.22 248.87 249.34 249.48 249.34H275.576V247.639H271.6C270.818 247.639 270.069 247.329 269.516 246.776C268.964 246.223 268.653 245.474 268.653 244.692C268.653 243.91 268.964 243.161 269.516 242.608C270.069 242.056 270.818 241.745 271.6 241.745H275.562L275.576 240.044Z" fill="#ACDEF5"/>
<g opacity="0.4">
<path d="M275.576 240.044H249.48C248.87 240.044 248.265 240.164 247.701 240.398C247.137 240.631 246.625 240.974 246.193 241.405C245.762 241.837 245.419 242.349 245.186 242.913C244.952 243.477 244.832 244.082 244.832 244.692C244.832 245.302 244.952 245.907 245.186 246.471C245.419 247.035 245.762 247.547 246.193 247.979C246.625 248.41 247.137 248.753 247.701 248.986C248.265 249.22 248.87 249.34 249.48 249.34H275.576V247.639H271.6C270.818 247.639 270.069 247.329 269.516 246.776C268.964 246.223 268.653 245.474 268.653 244.692C268.653 243.91 268.964 243.161 269.516 242.608C270.069 242.056 270.818 241.745 271.6 241.745H275.562L275.576 240.044Z" fill="#212121"/>
</g>
<path d="M297.71 240.044H271.6C270.367 240.044 269.185 240.534 268.314 241.405C267.442 242.277 266.952 243.459 266.952 244.692C266.952 245.925 267.442 247.107 268.314 247.979C269.185 248.85 270.367 249.34 271.6 249.34H297.71V247.639H271.6C270.819 247.639 270.069 247.329 269.516 246.776C268.964 246.223 268.653 245.474 268.653 244.692C268.653 243.91 268.964 243.161 269.516 242.608C270.069 242.056 270.819 241.745 271.6 241.745H297.71V240.044Z" fill="#ACDEF5"/>
<g opacity="0.2">
<path d="M297.71 240.044H271.6C270.367 240.044 269.185 240.534 268.314 241.405C267.442 242.277 266.952 243.459 266.952 244.692C266.952 245.925 267.442 247.107 268.314 247.979C269.185 248.85 270.367 249.34 271.6 249.34H297.71V247.639H271.6C270.819 247.639 270.069 247.329 269.516 246.776C268.964 246.223 268.653 245.474 268.653 244.692C268.653 243.91 268.964 243.161 269.516 242.608C270.069 242.056 270.819 241.745 271.6 241.745H297.71V240.044Z" fill="#212121"/>
</g>
<path d="M241.388 267.218H274.708V259.364H241.388V267.218Z" fill="#ACDEF5"/>
<path opacity="0.7" d="M241.388 267.218H274.708V259.364H241.388V267.218Z" fill="white"/>
<path d="M261.8 258.643H287.896C288.507 258.643 289.111 258.763 289.675 258.997C290.239 259.23 290.751 259.573 291.183 260.004C291.615 260.436 291.957 260.948 292.19 261.512C292.424 262.076 292.544 262.681 292.544 263.291C292.544 263.901 292.424 264.506 292.19 265.07C291.957 265.634 291.615 266.146 291.183 266.578C290.751 267.009 290.239 267.352 289.675 267.585C289.111 267.819 288.507 267.939 287.896 267.939H261.8V266.238H265.762C266.544 266.238 267.293 265.928 267.846 265.375C268.399 264.822 268.709 264.073 268.709 263.291C268.709 262.509 268.399 261.76 267.846 261.207C267.293 260.655 266.544 260.344 265.762 260.344H261.8V258.643Z" fill="#263238"/>
<g opacity="0.2">
<path d="M261.8 258.643H287.896C288.507 258.643 289.111 258.763 289.675 258.997C290.239 259.23 290.751 259.573 291.183 260.004C291.615 260.436 291.957 260.948 292.19 261.512C292.424 262.076 292.544 262.681 292.544 263.291C292.544 263.901 292.424 264.506 292.19 265.07C291.957 265.634 291.615 266.146 291.183 266.578C290.751 267.009 290.239 267.352 289.675 267.585C289.111 267.819 288.507 267.939 287.896 267.939H261.8V266.238H265.762C266.544 266.238 267.293 265.928 267.846 265.375C268.399 264.822 268.709 264.073 268.709 263.291C268.709 262.509 268.399 261.76 267.846 261.207C267.293 260.655 266.544 260.344 265.762 260.344H261.8V258.643Z" fill="white"/>
</g>
<path d="M239.68 258.643H265.783C267.016 258.643 268.198 259.133 269.07 260.004C269.941 260.876 270.431 262.058 270.431 263.291C270.431 264.524 269.941 265.706 269.07 266.578C268.198 267.449 267.016 267.939 265.783 267.939H239.68V266.238H265.783C266.565 266.238 267.314 265.928 267.867 265.375C268.42 264.822 268.73 264.073 268.73 263.291C268.73 262.509 268.42 261.76 267.867 261.207C267.314 260.655 266.565 260.344 265.783 260.344H239.68V258.643Z" fill="#263238"/>
<g opacity="0.4">
<path d="M239.68 258.643H265.783C267.016 258.643 268.198 259.133 269.07 260.004C269.941 260.876 270.431 262.058 270.431 263.291C270.431 264.524 269.941 265.706 269.07 266.578C268.198 267.449 267.016 267.939 265.783 267.939H239.68V266.238H265.783C266.565 266.238 267.314 265.928 267.867 265.375C268.42 264.822 268.73 264.073 268.73 263.291C268.73 262.509 268.42 261.76 267.867 261.207C267.314 260.655 266.565 260.344 265.783 260.344H239.68V258.643Z" fill="white"/>
</g>
<path d="M295.169 268.66H261.849V276.514H295.169V268.66Z" fill="#ACDEF5"/>
<path opacity="0.7" d="M295.169 268.66H261.849V276.514H295.169V268.66Z" fill="white"/>
<path d="M296.877 267.939H270.774C269.572 267.986 268.434 268.496 267.6 269.363C266.766 270.231 266.3 271.387 266.3 272.591C266.3 273.794 266.766 274.951 267.6 275.818C268.434 276.685 269.572 277.195 270.774 277.242H296.877V275.541H270.774C270.017 275.504 269.302 275.177 268.779 274.628C268.256 274.079 267.964 273.349 267.964 272.591C267.964 271.832 268.256 271.103 268.779 270.553C269.302 270.004 270.017 269.677 270.774 269.64H296.877V267.939Z" fill="#263238"/>
<path d="M274.736 267.939H248.64C247.438 267.986 246.3 268.496 245.466 269.363C244.632 270.231 244.166 271.387 244.166 272.591C244.166 273.794 244.632 274.951 245.466 275.818C246.3 276.685 247.438 277.195 248.64 277.242H274.736V275.541H270.774C270.016 275.504 269.302 275.177 268.779 274.628C268.256 274.079 267.964 273.349 267.964 272.591C267.964 271.832 268.256 271.103 268.779 270.553C269.302 270.004 270.016 269.677 270.774 269.64H274.736V267.939Z" fill="#263238"/>
<g opacity="0.4">
<path d="M296.877 267.939H270.774C269.572 267.986 268.434 268.496 267.6 269.363C266.766 270.231 266.3 271.387 266.3 272.591C266.3 273.794 266.766 274.951 267.6 275.818C268.434 276.685 269.572 277.195 270.774 277.242H296.877V275.541H270.774C270.017 275.504 269.302 275.177 268.779 274.628C268.256 274.079 267.964 273.349 267.964 272.591C267.964 271.832 268.256 271.103 268.779 270.553C269.302 270.004 270.017 269.677 270.774 269.64H296.877V267.939Z" fill="white"/>
</g>
<path d="M244.321 239.323H277.641V231.469H244.321V239.323Z" fill="#ACDEF5"/>
<path opacity="0.7" d="M244.321 239.323H277.641V231.469H244.321V239.323Z" fill="white"/>
<path d="M242.62 240.044H268.716C269.342 240.068 269.967 239.966 270.552 239.743C271.138 239.52 271.672 239.182 272.124 238.747C272.575 238.313 272.934 237.792 273.18 237.216C273.425 236.639 273.552 236.019 273.552 235.393C273.552 234.766 273.425 234.146 273.18 233.57C272.934 232.993 272.575 232.472 272.124 232.038C271.672 231.603 271.138 231.265 270.552 231.042C269.967 230.819 269.342 230.717 268.716 230.741H242.62V232.442H268.716C269.116 232.423 269.515 232.484 269.89 232.624C270.265 232.763 270.608 232.978 270.897 233.254C271.187 233.529 271.417 233.861 271.575 234.229C271.733 234.597 271.814 234.993 271.814 235.393C271.814 235.793 271.733 236.188 271.575 236.556C271.417 236.924 271.187 237.256 270.897 237.532C270.608 237.807 270.265 238.022 269.89 238.161C269.515 238.301 269.116 238.363 268.716 238.343H242.62V240.044Z" fill="#263238"/>
<path d="M264.754 240.044H290.857C292.06 239.997 293.197 239.487 294.032 238.62C294.866 237.752 295.332 236.596 295.332 235.393C295.332 234.189 294.866 233.033 294.032 232.165C293.197 231.298 292.06 230.788 290.857 230.741H264.754V232.442H268.716C269.116 232.423 269.515 232.485 269.89 232.624C270.265 232.763 270.608 232.978 270.897 233.254C271.187 233.529 271.418 233.861 271.575 234.229C271.733 234.597 271.814 234.993 271.814 235.393C271.814 235.793 271.733 236.188 271.575 236.556C271.418 236.924 271.187 237.256 270.897 237.532C270.608 237.808 270.265 238.022 269.89 238.161C269.515 238.301 269.116 238.363 268.716 238.343H264.754V240.044Z" fill="#263238"/>
<g opacity="0.4">
<path d="M242.62 240.044H268.716C269.342 240.068 269.967 239.966 270.552 239.743C271.138 239.52 271.672 239.182 272.124 238.747C272.575 238.313 272.934 237.792 273.18 237.216C273.425 236.639 273.552 236.019 273.552 235.393C273.552 234.766 273.425 234.146 273.18 233.57C272.934 232.993 272.575 232.472 272.124 232.038C271.672 231.603 271.138 231.265 270.552 231.042C269.967 230.819 269.342 230.717 268.716 230.741H242.62V232.442H268.716C269.116 232.423 269.515 232.484 269.89 232.624C270.265 232.763 270.608 232.978 270.897 233.254C271.187 233.529 271.417 233.861 271.575 234.229C271.733 234.597 271.814 234.993 271.814 235.393C271.814 235.793 271.733 236.188 271.575 236.556C271.417 236.924 271.187 237.256 270.897 237.532C270.608 237.807 270.265 238.022 269.89 238.161C269.515 238.301 269.116 238.363 268.716 238.343H242.62V240.044Z" fill="white"/>
</g>
<g opacity="0.2">
<path d="M241.381 261.093L265.566 261.352L241.381 261.618V261.093Z" fill="#212121"/>
<path d="M241.381 262.381L257.467 262.647L241.381 262.906V262.381Z" fill="#212121"/>
<path d="M241.381 263.676L267.827 263.935L241.381 264.201V263.676Z" fill="#212121"/>
<path d="M241.381 264.964L264.201 265.223L241.381 265.489V264.964Z" fill="#212121"/>
</g>
<g opacity="0.2">
<path d="M248.227 251.79L272.412 252.056L248.227 252.315V251.79Z" fill="#212121"/>
<path d="M248.227 253.085L264.313 253.344L248.227 253.61V253.085Z" fill="#212121"/>
<path d="M248.227 254.373L274.666 254.639L248.227 254.898V254.373Z" fill="#212121"/>
<path d="M248.227 255.668L271.04 255.927L248.227 256.193V255.668Z" fill="#212121"/>
</g>
<g opacity="0.2">
<path d="M244.244 233.191L268.436 233.457L244.244 233.716V233.191Z" fill="#212121"/>
<path d="M244.244 234.486L260.33 234.745L244.244 235.011V234.486Z" fill="#212121"/>
<path d="M244.244 235.774L270.69 236.04L244.244 236.299V235.774Z" fill="#212121"/>
<path d="M244.244 237.069L267.064 237.328L244.244 237.594V237.069Z" fill="#212121"/>
</g>
<g opacity="0.2">
<path d="M295.106 274.82L270.921 274.554L295.106 274.295V274.82Z" fill="#212121"/>
<path d="M295.106 273.525L279.02 273.266L295.106 273V273.525Z" fill="#212121"/>
<path d="M295.106 272.237L268.667 271.978L295.106 271.712V272.237Z" fill="#212121"/>
<path d="M295.106 270.949L272.286 270.683L295.106 270.424V270.949Z" fill="#212121"/>
</g>
<g opacity="0.2">
<path d="M296.016 246.89L271.824 246.624L296.016 246.365V246.89Z" fill="#212121"/>
<path d="M296.016 245.602L279.93 245.336L296.016 245.077V245.602Z" fill="#212121"/>
<path d="M296.016 244.307L269.57 244.048L296.016 243.782V244.307Z" fill="#212121"/>
<path d="M296.016 243.019L273.196 242.753L296.016 242.494V243.019Z" fill="#212121"/>
</g>
<path d="M245.742 272.356C245.742 272.356 236.082 267.505 230.755 267.365H180.502L183.582 276.997L205.1 276.248L244.832 275.667L245.742 272.356Z" fill="#ACDEF5"/>
<path opacity="0.7" d="M245.742 272.356C245.742 272.356 236.082 267.505 230.755 267.365H180.502L183.582 276.997L205.1 276.248L244.832 275.667L245.742 272.356Z" fill="white"/>
<path d="M166.95 272.832C166.95 272.832 172.613 268.121 179.473 267.435C186.333 266.749 188.734 272.139 188.734 272.139C188.734 272.139 191.996 267.652 197.134 267.372C202.272 267.092 212.8 272.356 212.8 272.356L211.925 275.667L167.503 276.318L166.95 272.832Z" fill="#ACDEF5"/>
<path opacity="0.6" d="M166.95 272.832C166.95 272.832 172.613 268.121 179.473 267.435C186.333 266.749 188.734 272.139 188.734 272.139C188.734 272.139 191.996 267.652 197.134 267.372C202.272 267.092 212.8 272.356 212.8 272.356L211.925 275.667L167.503 276.318L166.95 272.832Z" fill="white"/>
<path opacity="0.2" d="M245.742 272.356L245.567 273.007L245.455 273.42L244.853 275.667H211.89L212.268 274.232L212.394 273.798L212.772 272.356H245.742Z" fill="#212121"/>
<g opacity="0.2">
<path d="M211.89 272.748C209.979 271.908 208.023 271.174 206.031 270.55C204.065 269.876 202.029 269.43 199.962 269.22C197.897 269.112 195.838 269.537 193.984 270.452C192.104 271.321 190.346 272.431 188.755 273.756L188.587 273.889L188.447 273.728C187.193 272.293 185.68 271.105 183.988 270.228C183.142 269.787 182.237 269.471 181.3 269.29C180.373 269.135 179.427 269.135 178.5 269.29C176.612 269.659 174.773 270.244 173.019 271.033C171.238 271.777 169.501 272.623 167.818 273.567C169.461 272.585 171.158 271.695 172.9 270.9C174.658 270.064 176.506 269.435 178.409 269.024C179.377 268.83 180.372 268.804 181.349 268.947C182.322 269.128 183.265 269.447 184.149 269.892C185.9 270.789 187.465 272.01 188.762 273.49H188.454C190.08 272.142 191.878 271.016 193.802 270.144C195.72 269.211 197.848 268.794 199.976 268.933C202.061 269.191 204.111 269.681 206.087 270.396C208.064 271.071 210.001 271.856 211.89 272.748Z" fill="#212121"/>
</g>
<g opacity="0.2">
<path d="M168.154 274.008C169.779 273.255 171.453 272.615 173.166 272.09C174.883 271.557 176.653 271.207 178.444 271.047C180.253 270.904 182.073 271.085 183.82 271.579C185.568 272.054 187.224 272.819 188.72 273.84H188.496C190.263 273.024 192.096 272.361 193.977 271.859C195.849 271.294 197.806 271.058 199.759 271.159C201.691 271.338 203.609 271.649 205.499 272.09C207.365 272.529 209.232 273.03 211.099 273.595C209.23 273.105 207.347 272.671 205.45 272.307C203.567 271.903 201.659 271.634 199.738 271.502C197.827 271.42 195.915 271.657 194.082 272.202C192.233 272.717 190.428 273.379 188.685 274.183L188.566 274.232L188.461 274.162C187.01 273.155 185.398 272.402 183.694 271.936C181.989 271.447 180.214 271.248 178.444 271.348C176.669 271.472 174.912 271.779 173.201 272.265C171.482 272.734 169.796 273.316 168.154 274.008Z" fill="#212121"/>
</g>
<g opacity="0.2">
<path d="M170.38 274.008C173.38 273.324 176.453 273.011 179.529 273.077C181.07 273.09 182.609 273.204 184.135 273.42C185.661 273.628 187.174 273.927 188.664 274.316H188.573C190.288 274.008 192.017 273.812 193.746 273.616C195.475 273.42 197.204 273.315 198.947 273.259C200.69 273.203 202.447 273.224 204.155 273.315C205.888 273.439 207.611 273.673 209.314 274.015C205.885 273.534 202.416 273.405 198.961 273.63C195.506 273.805 192.063 274.174 188.65 274.736H188.552C187.081 274.337 185.587 274.028 184.079 273.812C182.568 273.594 181.047 273.456 179.522 273.399C177.993 273.338 176.463 273.362 174.937 273.469C173.408 273.547 171.885 273.727 170.38 274.008Z" fill="#212121"/>
</g>
<g opacity="0.2">
<path d="M245.567 273.007L245.455 273.42L213.864 273.217L245.567 273.007Z" fill="#212121"/>
</g>
<g opacity="0.2">
<path d="M242.508 274.015L212.268 274.232L212.394 273.798L242.508 274.015Z" fill="#212121"/>
</g>
<path d="M187.362 275.1C187.362 275.1 187.53 272.419 188.762 272.174C189.994 271.929 189.889 275.1 189.889 275.1H187.362Z" fill="#263238"/>
<path d="M247.219 274.519H164.878V277.123H247.219V274.519Z" fill="#263238"/>
<path opacity="0.2" d="M247.219 274.519H164.878V277.123H247.219V274.519Z" fill="white"/>
<path opacity="0.2" d="M247.226 274.519H214.291V277.123H247.226V274.519Z" fill="#212121"/>
<path d="M238.035 279.706L235.935 274.022L238.035 269.444H242.095L246.043 264.698H251.531C252.567 264.698 257.131 268.044 257.131 268.044C257.131 268.044 256.767 271.362 257.131 271.754C257.495 272.146 259.462 274.022 259.462 274.022L257.817 275.422V278.6L257.117 279.867L251.517 279.517C250.755 279.271 249.934 279.271 249.172 279.517C247.772 279.916 246.687 281.848 245.672 281.372C244.657 280.896 238.035 279.706 238.035 279.706Z" fill="#ACDEF5"/>
<path opacity="0.7" d="M259.462 274.029L257.824 275.429V278.6L257.124 279.874L251.524 279.517C250.762 279.267 249.94 279.267 249.179 279.517C247.779 279.923 246.694 281.848 245.679 281.379C244.664 280.91 238.021 279.706 238.021 279.706L235.921 274.036L238.021 269.451H242.081L246.029 264.705H251.517C252.546 264.705 257.117 268.044 257.117 268.044C256.976 269.205 256.95 270.378 257.04 271.544C257.053 271.611 257.08 271.675 257.117 271.733C257.495 272.146 259.462 274.029 259.462 274.029Z" fill="white"/>
<path opacity="0.4" d="M257.047 271.6L255.458 268.1L252.504 272.671L250.404 271.719V267.414L246.092 269.073L246.708 272.671L245.42 275.471L240.303 270.879L239.071 274.183L235.935 274.085L238.035 269.5H242.095L246.043 264.754H251.531C252.56 264.754 257.131 268.093 257.131 268.093C256.988 269.256 256.959 270.431 257.047 271.6Z" fill="white"/>
<path opacity="0.1" d="M238.035 279.699L240.576 279.09V273.455L245.546 277.655L248.346 271.18L249.865 273.707L253.19 274.022L255.29 271.859L256.396 272.958L255.206 275.107L256.396 275.961L257.838 275.408L256.2 276.5L254.8 275.688L253.204 274.575L249.424 274.001L248.101 275.8L249.277 276.955L249.158 275.114L251.993 278.516L253.183 276.528L251.293 276.164L253.589 276.115L253.876 276.745L252.196 278.845C252.196 278.845 249.277 277.648 249.445 277.641C249.613 277.634 246.533 280.378 246.533 280.378L242.753 279.069L242.711 275.989L241.192 279.489L238.035 279.825" fill="#212121"/>
<path d="M154.994 274.554L154.854 274.624L154.49 274.848C154.417 274.882 154.347 274.921 154.28 274.967L153.811 275.268C153.737 275.302 153.666 275.344 153.601 275.394L153.139 275.688C152.747 275.926 152.32 276.192 151.914 276.465C151.83 276.521 151.739 276.563 151.662 276.626C151.585 276.689 151.333 276.843 151.179 276.948L150.941 277.102C150.372 277.446 149.84 277.847 149.352 278.299C149.3 278.36 149.235 278.41 149.163 278.446C149.121 278.453 149.079 278.453 149.037 278.446H148.799C148.368 278.356 147.955 278.198 147.574 277.977C147.014 277.656 146.395 277.451 145.754 277.375C145.053 277.328 144.361 277.559 143.829 278.019L139.37 279.909L138.306 278.838L137.074 275.688L135.184 274.771C135.184 274.771 135.408 274.176 135.646 273.504C135.709 273.35 135.765 273.175 135.835 273.014C135.858 272.928 135.886 272.844 135.919 272.762C136.003 272.524 136.08 272.314 136.129 272.153L136.227 271.873C136.231 271.847 136.231 271.822 136.227 271.796C136.227 271.761 136.227 271.712 136.227 271.663C136.128 271.263 135.994 270.872 135.828 270.494C135.632 270.011 135.401 269.493 135.205 269.094C135.149 268.961 135.086 268.835 135.03 268.723C135.027 268.696 135.015 268.671 134.995 268.653C134.904 268.457 134.841 268.324 134.806 268.261C134.953 267.981 137.27 263.683 138.096 263.424L142.611 261.912L143.759 262.724L147.693 265.524L151.032 264.411L154.532 268.373L154.994 274.554Z" fill="#ACDEF5"/>
<path opacity="0.7" d="M154.98 274.561L154.847 274.652L154.483 274.876C154.41 274.91 154.34 274.949 154.273 274.995L153.804 275.296C153.73 275.33 153.659 275.372 153.594 275.422C153.45 275.506 153.296 275.604 153.132 275.716C152.74 275.954 152.313 276.22 151.907 276.493C151.823 276.549 151.732 276.591 151.655 276.654C151.578 276.717 151.326 276.871 151.172 276.976L150.934 277.13C150.365 277.474 149.833 277.875 149.345 278.327C149.293 278.388 149.228 278.438 149.156 278.474C149.115 278.481 149.072 278.481 149.03 278.474H148.792C148.361 278.384 147.948 278.226 147.567 278.005C147.007 277.684 146.388 277.48 145.747 277.403C145.046 277.356 144.354 277.587 143.822 278.047L139.363 279.937L138.299 278.866L137.067 275.716L135.177 274.799C135.177 274.799 135.401 274.204 135.639 273.532C135.702 273.378 135.758 273.203 135.828 273.042C135.851 272.956 135.879 272.872 135.912 272.79C135.989 272.552 136.073 272.342 136.122 272.181L136.22 271.901C136.224 271.875 136.224 271.85 136.22 271.824C136.22 271.789 136.22 271.74 136.22 271.691C136.121 271.291 135.987 270.9 135.821 270.522C135.625 270.039 135.394 269.521 135.198 269.122C135.142 268.989 135.079 268.863 135.023 268.751C135.02 268.724 135.008 268.699 134.988 268.681C134.897 268.485 134.834 268.352 134.799 268.289C134.946 268.009 137.263 263.711 138.089 263.452L142.604 261.94L143.752 262.752L147.686 265.552L151.018 264.439L154.518 268.387L154.98 274.561Z" fill="white"/>
<path opacity="0.4" d="M154.994 274.554L151.725 274.12L153.202 268.366L149.933 269.206L148.183 266.252L144.858 265.048L147.889 268.842L145.922 271.355L139.37 265.755L140.651 270.109L134.792 268.254C134.939 267.974 137.256 263.676 138.082 263.417L142.597 261.905L143.745 262.717L147.679 265.517L151.018 264.404L154.518 268.366L154.994 274.554Z" fill="white"/>
<path opacity="0.1" d="M145.747 277.445C145.046 277.398 144.354 277.629 143.822 278.089L139.363 279.979L138.299 278.908L137.067 275.758L135.177 274.841C135.177 274.841 135.401 274.246 135.639 273.574C135.702 273.42 135.758 273.245 135.828 273.084C135.851 272.998 135.879 272.914 135.912 272.832C135.989 272.594 136.073 272.384 136.122 272.223L136.22 271.943L142.863 272.699L142.681 270.865L146.181 273.609L142.597 274.505L142.744 276.129H145.096L145.747 277.445Z" fill="#212121"/>
<path opacity="0.1" d="M148.988 278.509H148.792C148.361 278.419 147.948 278.261 147.567 278.04C147.007 277.719 146.388 277.515 145.747 277.438L148.939 275.338L148.4 272.3L150.983 272.034C150.983 272.034 149.863 275.289 150.052 275.366C150.241 275.443 148.806 278.439 148.988 278.509Z" fill="#212121"/>
<path d="M119.14 272.454L119.182 272.538L119.294 272.783C119.322 272.827 119.345 272.874 119.364 272.923L119.504 273.245C119.532 273.288 119.553 273.335 119.567 273.385L119.707 273.7C119.826 273.966 119.959 274.253 120.071 274.547C120.101 274.603 120.127 274.662 120.148 274.722C120.197 274.827 120.246 274.946 120.288 275.051L120.358 275.219C120.535 275.601 120.674 276 120.771 276.409C120.773 276.462 120.79 276.513 120.82 276.556C120.834 276.576 120.851 276.595 120.869 276.612C120.898 276.645 120.934 276.671 120.974 276.689C121.23 276.796 121.502 276.86 121.779 276.878C122.187 276.91 122.584 277.022 122.948 277.207C123.33 277.43 123.609 277.795 123.725 278.222L125.391 280.791L126.329 280.602L128.086 279.391L129.402 279.58L129.605 278.754C129.605 278.649 129.661 278.537 129.682 278.425C129.703 278.373 129.719 278.319 129.731 278.264C129.731 278.11 129.801 277.977 129.836 277.872C129.871 277.767 129.871 277.732 129.885 277.69C129.882 277.676 129.882 277.662 129.885 277.648C129.903 277.628 129.919 277.607 129.934 277.585C130.128 277.412 130.337 277.255 130.557 277.116C130.83 276.927 131.138 276.738 131.39 276.584C131.46 276.535 131.544 276.493 131.614 276.451C131.684 276.409 131.614 276.451 131.656 276.451L131.887 276.311C131.887 276.115 132.209 273.042 131.887 272.615L130.116 270.2H129.22L126.175 270.27L124.817 268.506L121.59 269.346L119.14 272.454Z" fill="#ACDEF5"/>
<path opacity="0.7" d="M119.147 272.461C119.149 272.491 119.149 272.522 119.147 272.552L119.259 272.797C119.287 272.842 119.31 272.888 119.329 272.937L119.469 273.259C119.497 273.302 119.518 273.349 119.532 273.399C119.584 273.502 119.631 273.607 119.672 273.714C119.791 273.98 119.924 274.267 120.036 274.561C120.066 274.617 120.092 274.676 120.113 274.736C120.162 274.841 120.211 274.96 120.253 275.065L120.323 275.233C120.5 275.615 120.638 276.014 120.736 276.423C120.737 276.476 120.754 276.527 120.785 276.57C120.799 276.59 120.816 276.609 120.834 276.626C120.863 276.659 120.899 276.686 120.939 276.703C121.195 276.81 121.467 276.874 121.744 276.892C122.151 276.924 122.549 277.036 122.913 277.221C123.295 277.444 123.574 277.809 123.69 278.236L125.356 280.805L126.294 280.616L128.051 279.405L129.367 279.594L129.57 278.768C129.57 278.663 129.626 278.551 129.647 278.439C129.667 278.387 129.684 278.333 129.696 278.278C129.738 278.131 129.766 277.991 129.801 277.886C129.836 277.781 129.836 277.746 129.85 277.704C129.847 277.69 129.847 277.676 129.85 277.662C129.867 277.642 129.884 277.621 129.899 277.599C130.093 277.426 130.302 277.269 130.522 277.13C130.795 276.941 131.103 276.752 131.355 276.598C131.425 276.549 131.509 276.507 131.579 276.465C131.649 276.423 131.579 276.465 131.621 276.465L131.852 276.325C131.852 276.129 132.174 273.056 131.852 272.629L130.116 270.2H129.22L126.175 270.277L124.817 268.513L121.59 269.346L119.147 272.461Z" fill="white"/>
<path opacity="0.4" d="M119.14 272.454L121.009 273.378L122.269 269.843L123.669 271.439L125.629 270.508L127.799 271.054L124.866 271.971L125.006 273.987L130.417 273.371L128.212 275.198L131.936 276.297C131.936 276.101 132.258 273.028 131.936 272.601L130.116 270.2H129.22L126.175 270.27L124.817 268.506L121.59 269.346L119.14 272.454Z" fill="white"/>
<path opacity="0.1" d="M122.969 277.235C123.351 277.458 123.63 277.823 123.746 278.25L125.412 280.819L126.35 280.63L128.107 279.419L129.423 279.608L129.626 278.782C129.626 278.677 129.682 278.565 129.703 278.453C129.724 278.401 129.74 278.347 129.752 278.292C129.794 278.145 129.822 278.005 129.857 277.9C129.892 277.795 129.892 277.76 129.906 277.718L126.154 275.8L126.896 274.904L124.096 275.1L125.65 276.836L125.006 277.634L123.781 276.794L122.969 277.235Z" fill="#212121"/>
<path opacity="0.1" d="M120.89 276.64C120.919 276.673 120.955 276.7 120.995 276.717C121.251 276.824 121.523 276.888 121.8 276.906C122.208 276.938 122.605 277.05 122.969 277.235L122.024 275.023L123.424 273.581L122.171 272.531C122.001 273.25 121.767 273.953 121.471 274.631C121.331 274.575 121.009 276.675 120.89 276.64Z" fill="#212121"/>
</svg>
