<svg width="402" height="289" viewBox="0 0 402 289" fill="none" xmlns="http://www.w3.org/2000/svg">
<path d="M394.5 210.25L229.23 254.402C224.564 255.648 220.497 258.521 217.764 262.503L216.475 264.379C208.637 275.793 191.571 275.118 184.66 263.12V263.12C182.157 258.776 178.025 255.611 173.179 254.325L7 210.25" stroke="#552F72" stroke-width="14" stroke-linecap="round"/>
<path d="M69.1044 167.614L199.477 216.889L199.477 204.374L87.8807 150.54L69.1044 167.614Z" fill="#EF7B54"/>
<path d="M332.403 167.614L202.031 216.889L202.031 204.374L313.627 150.54L332.403 167.614Z" fill="#83D0F3"/>
<path d="M24.5 193.583L199.5 242.75V226.946L46.877 169L24.5 193.583Z" fill="#E94E1F"/>
<path d="M377 193.583L202 242.75V226.946L354.623 169L377 193.583Z" fill="#00B0D0"/>
<path fill-rule="evenodd" clip-rule="evenodd" d="M225.081 163.259C222.046 165.203 223.878 171.105 227.371 170.22C261.091 161.683 283.691 146.714 281.309 132.423C278.264 114.155 235.551 103.913 185.907 109.546C159.854 112.502 137.07 119.243 121.739 127.622C118.636 129.318 120.039 130.788 123.173 129.15C133.442 123.783 146.046 119.245 160.1 116.202C201.107 107.324 238.933 114.54 244.586 132.32C247.794 142.408 239.955 153.729 225.081 163.259Z" fill="#005697"/>
<path d="M165.84 30H163.84C159.422 30 155.84 33.5817 155.84 38V168C155.84 172.418 159.422 176 163.84 176H165.84C170.258 176 173.84 172.418 173.84 168V38C173.84 33.5817 170.258 30 165.84 30Z" fill="#008AC5"/>
<path d="M205.84 167V69C205.84 64.0294 201.81 60 196.84 60C191.869 60 187.84 64.0294 187.84 69V167C187.84 171.971 191.869 176 196.84 176C201.81 176 205.84 171.971 205.84 167Z" fill="#2FB4E9"/>
<circle cx="196.84" cy="42" r="12" fill="#008AC5"/>
<circle cx="164.84" cy="12" r="12" fill="#2FB4E9"/>
</svg>
