<svg xmlns="http://www.w3.org/2000/svg" width="100" height="100" viewBox="0 0 100 100" fill="none">
  <path fill-rule="evenodd" clip-rule="evenodd" d="M87.4079 42.1357C85.4354 39.406 81.2885 37.0446 74.0071 35.6622L74.3434 33.8906C81.7918 35.3047 86.4948 37.7933 88.8695 41.0795C91.2896 44.4288 91.1416 48.3831 89.4187 52.2997C89.2596 52.6615 89.0996 53.0222 88.9403 53.3815C87.4246 56.7997 85.9627 60.0965 85.7206 63.1349C85.5899 64.7763 85.8238 66.2921 86.5839 67.6783C87.3455 69.0674 88.678 70.4041 90.876 71.6116C94.7287 73.728 96.0356 76.1174 95.7021 78.4126C95.3924 80.5432 93.7029 82.1616 92.586 82.9214L91.5717 81.4305C92.5275 80.7803 93.7157 79.542 93.9176 78.1533C94.0955 76.9291 93.5476 75.1365 90.0078 73.192C87.5856 71.8615 85.9667 70.3035 85.0027 68.5452C84.0371 66.784 83.7711 64.8995 83.9231 62.9917C84.1913 59.6246 85.7889 56.0302 87.2784 52.6793C87.4436 52.3075 87.6075 51.9387 87.7681 51.5736C89.327 48.0298 89.3347 44.8023 87.4079 42.1357Z" fill="#002F6D"/>
  <path d="M3.59131 7.72818C3.59131 3.46003 7.05133 0 11.3195 0H72.3721C76.6403 0 80.1003 3.46003 80.1003 7.72818V41.217C80.1003 45.4851 76.6403 48.9452 72.3721 48.9452H11.3195C7.05133 48.9452 3.59131 45.4851 3.59131 41.217V7.72818Z" fill="#5B8BCB"/>
  <path fill-rule="evenodd" clip-rule="evenodd" d="M72.3721 3.34888H11.3195C8.90087 3.34888 6.94019 5.30956 6.94019 7.72818V41.217C6.94019 43.6356 8.90087 45.5963 11.3195 45.5963H72.3721C74.7908 45.5963 76.7514 43.6356 76.7514 41.217V7.72818C76.7514 5.30956 74.7908 3.34888 72.3721 3.34888ZM11.3195 0C7.05133 0 3.59131 3.46003 3.59131 7.72818V41.217C3.59131 45.4851 7.05133 48.9452 11.3195 48.9452H72.3721C76.6403 48.9452 80.1003 45.4851 80.1003 41.217V7.72818C80.1003 3.46003 76.6403 0 72.3721 0H11.3195Z" fill="#002F6D"/>
  <path d="M51.7637 20.3523C51.7637 25.9009 47.2657 30.3989 41.717 30.3989C36.1684 30.3989 31.6704 25.9009 31.6704 20.3523C31.6704 14.8037 36.1684 10.3057 41.717 10.3057C47.2657 10.3057 51.7637 14.8037 51.7637 20.3523Z" fill="#FBA70E"/>
  <path fill-rule="evenodd" clip-rule="evenodd" d="M25.1289 12.1074C25.6979 12.1074 26.1593 12.5688 26.1593 13.1378V17.29L28.1955 18.5914C30.1098 19.8149 32.1654 20.8015 34.3174 21.5297L36.8515 22.3871C40.0564 23.4715 43.5314 23.4556 46.7262 22.3418L49.4207 21.4025C51.2696 20.7579 53.046 19.9217 54.7209 18.9076L57.2337 17.3861V13.1378C57.2337 12.5688 57.6951 12.1074 58.2642 12.1074C58.8332 12.1074 59.2946 12.5688 59.2946 13.1378V17.3315C62.1215 23.6558 66.991 28.8753 73.1511 32.1306L73.9683 32.5624H74.6852C74.9697 32.5624 75.2004 32.7931 75.2004 33.0777C75.2004 33.3622 74.9697 33.5929 74.6852 33.5929L59.2946 33.5929V38.3558C59.2946 38.9249 58.8332 39.3863 58.2642 39.3863C57.6951 39.3863 57.2337 38.9249 57.2337 38.3558V33.5929L26.1593 33.5929V38.3558C26.1593 38.9249 25.6979 39.3863 25.1289 39.3863C24.5598 39.3863 24.0984 38.9249 24.0984 38.3558V33.5929L9.00105 33.5929C8.71651 33.5929 8.48584 33.3622 8.48584 33.0777C8.48584 32.7931 8.71651 32.5624 9.00105 32.5624H9.42466L10.2419 32.1306C16.402 28.8753 21.2715 23.6558 24.0984 17.3314V13.1378C24.0984 12.5688 24.5598 12.1074 25.1289 12.1074ZM10.5273 32.5624L24.0984 32.5624V18.5462C21.1782 24.5082 16.4394 29.4261 10.5273 32.5624ZM26.1593 32.5624L57.2337 32.5624V17.9884L54.9878 19.3483C53.2821 20.3811 51.4731 21.2326 49.5903 21.889L46.8958 22.8283C43.5927 23.9798 39.9999 23.9963 36.6864 22.8752L34.1522 22.0177C31.9608 21.2762 29.8674 20.2714 27.9181 19.0255L26.1593 17.9014V32.5624ZM59.2946 32.5624L72.8657 32.5624C66.9536 29.4261 62.2148 24.5083 59.2946 18.5463V32.5624Z" fill="#E0E0E0"/>
  <path fill-rule="evenodd" clip-rule="evenodd" d="M78.3012 67.787C78.1484 67.0472 77.52 66.4629 76.7645 66.4629H9.91662C8.99185 66.4629 8.24218 65.7132 8.24218 64.7885V64.7885C8.24218 63.8637 8.99185 63.114 9.91662 63.114H76.7918C77.5417 63.114 78.1672 62.5381 78.3249 61.8049V61.8049C78.5426 60.7926 77.8188 59.7651 76.7833 59.7651H9.91662C8.99185 59.7651 8.24218 59.0155 8.24218 58.0907V58.0907C8.24218 57.1659 8.99185 56.4163 9.91662 56.4163H79.9842C80.4492 56.4163 80.8821 56.1899 81.1732 55.8273C81.8102 55.0337 82.5294 54.3089 83.318 53.6657C83.562 53.4667 83.4435 53.0674 83.1287 53.0674V53.0674H12.2211C5.74771 53.0674 0.5 58.3151 0.5 64.7885C0.5 71.2618 5.7477 76.5095 12.2211 76.5095H83.1287V76.5095C83.3888 76.5095 83.4903 76.1804 83.2891 76.0154C82.472 75.3455 81.7296 74.5875 81.0765 73.7559C80.7891 73.3899 80.3564 73.1607 79.8909 73.1607H9.91662C8.99185 73.1607 8.24218 72.411 8.24218 71.4862V71.4862C8.24218 70.5615 8.99184 69.8118 9.91661 69.8118H76.7562C77.7863 69.8118 78.5097 68.7958 78.3012 67.787V67.787Z" fill="#002F6D"/>
  <path d="M75.2061 32.9725C75.2061 34.3953 74.0527 35.5486 72.63 35.5486C71.2073 35.5486 70.054 34.3953 70.054 32.9725C70.054 31.5498 71.2073 30.3965 72.63 30.3965C74.0527 30.3965 75.2061 31.5498 75.2061 32.9725Z" fill="#002F6D"/>
  <path d="M13.638 32.9725C13.638 34.3953 12.4846 35.5486 11.0619 35.5486C9.63918 35.5486 8.48584 34.3953 8.48584 32.9725C8.48584 31.5498 9.63918 30.3965 11.0619 30.3965C12.4846 30.3965 13.638 31.5498 13.638 32.9725Z" fill="#EA3427"/>
  <path d="M94.3158 84.1922C96.9711 89.1465 96.2678 94.6933 92.7451 96.5813C89.2223 98.4692 84.2141 95.9835 81.5589 91.0292C78.9037 86.0749 79.607 80.5281 83.1297 78.6401C86.6524 76.7521 91.6606 79.2379 94.3158 84.1922Z" fill="white"/>
  <path d="M93.2678 84.5451C95.5698 88.8404 94.9601 93.6494 91.906 95.2862C88.8518 96.9231 84.5098 94.768 82.2077 90.4727C79.9057 86.1773 80.5154 81.3684 83.5696 79.7315C86.6237 78.0947 90.9658 80.2498 93.2678 84.5451Z" fill="#002F6D"/>
  <path fill-rule="evenodd" clip-rule="evenodd" d="M87.2257 87.388L82.7541 80.2127L83.6286 79.6677L88.1002 86.8431L87.2257 87.388Z" fill="white"/>
  <path fill-rule="evenodd" clip-rule="evenodd" d="M93.8799 84.4177L82.2239 91.6797L81.6791 90.8051L93.335 83.5431L93.8799 84.4177Z" fill="white"/>
</svg>