<svg width="350" height="350" viewBox="0 0 350 350" fill="none" xmlns="http://www.w3.org/2000/svg">
<path d="M173.229 30.646H28V160.58H173.229V30.646Z" fill="#FAFAFA"/>
<path d="M173.229 160.573C173.229 160.573 173.229 159.74 173.194 158.165C173.159 156.59 173.194 154.238 173.194 151.2C173.194 145.103 173.145 136.185 173.103 124.824C173.068 102.123 173.005 69.685 172.935 30.646L173.264 30.975L28.0004 31.031L28.3854 30.646C28.3854 77.917 28.3854 122.395 28.3434 160.573L28.0004 160.237L133.042 160.405L162.666 160.496L170.513 160.538H172.536H173.236C173.236 160.538 173.019 160.538 172.578 160.538H170.597L162.82 160.58L133.266 160.671L28.0004 160.916H27.6574V160.573C27.6574 122.395 27.6574 77.917 27.6084 30.646V30.254H28.0004L173.215 30.31H173.544V30.646C173.474 69.769 173.418 102.284 173.376 125.034C173.376 136.36 173.313 145.257 173.292 151.34C173.292 154.343 173.292 156.653 173.257 158.235C173.222 159.817 173.229 160.573 173.229 160.573Z" fill="#E0E0E0"/>
<path d="M83.6851 53.732C83.6851 53.942 76.0411 54.117 66.6121 54.117C57.1831 54.117 49.5391 53.942 49.5391 53.732C49.5391 53.522 57.1831 53.34 66.6121 53.34C76.0411 53.34 83.6851 53.515 83.6851 53.732Z" fill="#E0E0E0"/>
<path d="M145.223 63.483C145.223 63.7 124.223 63.875 98.3229 63.875C72.4229 63.875 51.4229 63.7 51.4229 63.483C51.4229 63.266 72.4229 63.098 98.3229 63.098C124.223 63.098 145.223 63.273 145.223 63.483Z" fill="#E0E0E0"/>
<path d="M55.909 80.01H49.791V86.128H55.909V80.01Z" fill="#E0E0E0"/>
<path d="M70.9666 80.01H64.8486V86.128H70.9666V80.01Z" fill="#E0E0E0"/>
<path d="M86.3104 79.73H80.1924V85.848H86.3104V79.73Z" fill="#E0E0E0"/>
<path d="M101.095 80.01H94.9766V86.128H101.095V80.01Z" fill="#E0E0E0"/>
<path d="M116.151 80.01H110.033V86.128H116.151V80.01Z" fill="#E0E0E0"/>
<path d="M131.216 80.01H125.098V86.128H131.216V80.01Z" fill="#E0E0E0"/>
<path d="M146.272 80.01H140.154V86.128H146.272V80.01Z" fill="#EBEBEB"/>
<path d="M55.909 93.016H49.791V99.134H55.909V93.016Z" fill="#EBEBEB"/>
<path d="M70.9666 93.016H64.8486V99.134H70.9666V93.016Z" fill="#E0E0E0"/>
<path d="M86.0301 93.016H79.9121V99.134H86.0301V93.016Z" fill="#EBEBEB"/>
<path d="M101.095 93.016H94.9766V99.134H101.095V93.016Z" fill="#E0E0E0"/>
<path d="M116.151 93.016H110.033V99.134H116.151V93.016Z" fill="#E0E0E0"/>
<path d="M131.495 92.743H125.377V98.861H131.495V92.743Z" fill="#E0E0E0"/>
<path d="M146.272 93.016H140.154V99.134H146.272V93.016Z" fill="#E0E0E0"/>
<path d="M55.909 106.029H49.791V112.147H55.909V106.029Z" fill="#E0E0E0"/>
<path d="M71.2459 105.749H65.1279V111.867H71.2459V105.749Z" fill="#E0E0E0"/>
<path d="M86.0301 106.029H79.9121V112.147H86.0301V106.029Z" fill="#E0E0E0"/>
<path d="M101.095 106.029H94.9766V112.147H101.095V106.029Z" fill="#EBEBEB"/>
<path d="M116.151 106.029H110.033V112.147H116.151V106.029Z" fill="#E0E0E0"/>
<path d="M131.216 106.029H125.098V112.147H131.216V106.029Z" fill="#E0E0E0"/>
<path d="M146.272 106.029H140.154V112.147H146.272V106.029Z" fill="#E0E0E0"/>
<path d="M55.909 119.035H49.791V125.153H55.909V119.035Z" fill="#E0E0E0"/>
<path d="M70.9666 119.035H64.8486V125.153H70.9666V119.035Z" fill="#E0E0E0"/>
<path d="M86.0301 119.035H79.9121V125.153H86.0301V119.035Z" fill="#E0E0E0"/>
<path d="M101.367 118.755H95.249V124.873H101.367V118.755Z" fill="#E0E0E0"/>
<path d="M116.151 119.035H110.033V125.153H116.151V119.035Z" fill="#E0E0E0"/>
<path d="M131.216 119.035H125.098V125.153H131.216V119.035Z" fill="#EBEBEB"/>
<path d="M146.272 119.035H140.154V125.153H146.272V119.035Z" fill="#E0E0E0"/>
<path d="M55.909 132.041H49.791V138.159H55.909V132.041Z" fill="#E0E0E0"/>
<path d="M70.9666 132.041H64.8486V138.159H70.9666V132.041Z" fill="#EBEBEB"/>
<path d="M86.0301 132.041H79.9121V138.159H86.0301V132.041Z" fill="#E0E0E0"/>
<path d="M101.095 132.041H94.9766V138.159H101.095V132.041Z" fill="#E0E0E0"/>
<path d="M116.151 132.041H110.033V138.159H116.151V132.041Z" fill="#E0E0E0"/>
<path d="M131.495 131.761H125.377V137.879H131.495V131.761Z" fill="#E0E0E0"/>
<path d="M146.272 132.041H140.154V138.159H146.272V132.041Z" fill="#E0E0E0"/>
<path d="M301.126 205.296C307.601 201.957 315.217 201.523 322.406 202.713C326.263 203.35 330.288 204.505 332.906 207.403C335.524 210.301 336.028 215.404 333.018 217.903C331.219 219.387 328.713 219.611 326.389 219.583C320.789 219.52 314.524 218.526 310.03 221.914C307.468 223.839 305.76 227.052 302.694 228.004C299.628 228.956 296.31 227.164 294.721 224.455C293.132 221.746 293.083 218.365 293.818 215.313C294.185 213.194 295.035 211.188 296.303 209.451C297.57 207.714 299.221 206.292 301.126 205.296Z" fill="#EBEBEB"/>
<path d="M286.3 176.673C290.255 182.329 297.948 180.453 301.518 177.009C305.088 173.565 306.586 168.553 307.958 163.786C311.094 152.894 314.258 141.463 311.927 130.375C311.227 127.057 309.989 123.746 307.658 121.275C305.327 118.804 301.743 117.348 298.467 118.216C294.589 119.238 292.167 123.039 290.438 126.616C285.304 137.283 282.614 148.96 282.562 160.797C282.562 166.306 283.192 172.081 286.3 176.624" fill="#EBEBEB"/>
<path d="M275.437 184.8C279.735 179.697 280.547 172.263 278.636 165.9C276.725 159.537 272.406 154.077 267.436 149.646C261.579 144.428 254.759 140.404 247.36 137.802C244.462 136.78 241.396 135.975 238.337 136.269C235.278 136.563 232.191 138.124 230.763 140.847C228.663 144.879 230.672 149.765 232.863 153.748C236.722 160.776 241.129 167.489 246.044 173.824C249.999 178.92 254.521 183.946 260.548 186.249C266.575 188.552 272.826 188.279 276.018 184.1" fill="#EBEBEB"/>
<path d="M286.034 261.933C286.241 261.091 286.361 260.23 286.391 259.364C286.573 257.495 286.804 255.164 287.091 252.364C287.444 248.914 287.972 245.484 288.673 242.088C289.589 237.951 290.837 233.894 292.404 229.957C293.942 226.021 296.03 222.323 298.606 218.974C300.7 216.248 303.376 214.024 306.439 212.464C308.515 211.435 310.741 210.741 313.033 210.406C313.895 210.371 314.751 210.249 315.588 210.042C314.725 209.928 313.851 209.914 312.984 210C310.604 210.181 308.276 210.788 306.11 211.792C302.884 213.311 300.054 215.559 297.843 218.358C295.162 221.753 292.998 225.528 291.424 229.558C289.832 233.554 288.591 237.681 287.714 241.892C287.033 245.325 286.561 248.797 286.3 252.287C286.076 255.262 285.992 257.67 285.95 259.336C285.887 260.202 285.915 261.073 286.034 261.933Z" fill="#E0E0E0"/>
<path d="M286.517 256.536C286.584 256.143 286.608 255.744 286.587 255.346C286.587 254.45 286.587 253.323 286.587 251.937C286.587 248.983 286.587 244.699 286.741 239.414C287 228.844 287.91 217.469 289.674 201.432C291.333 186.354 293.573 168.805 295.925 157.395C296.436 154.798 296.94 152.495 297.423 150.395C297.906 148.295 298.27 146.58 298.648 145.145C299.026 143.71 299.229 142.702 299.439 141.834C299.557 141.452 299.628 141.057 299.649 140.658C299.47 141.015 299.332 141.39 299.236 141.778L298.249 145.04C297.808 146.44 297.36 148.211 296.849 150.255C296.338 152.299 295.757 154.623 295.204 157.213C292.282 170.708 290.085 184.349 288.624 198.079C286.86 214.144 286.069 228.781 285.999 239.379C285.936 244.678 286.048 248.969 286.181 251.93C286.272 253.33 286.335 254.436 286.391 255.332C286.388 255.737 286.43 256.141 286.517 256.536Z" fill="#E0E0E0"/>
<path d="M286.587 228.319C286.68 227.133 286.68 225.942 286.587 224.756C286.387 221.525 286.024 218.305 285.502 215.11C284.72 210.372 283.674 205.682 282.366 201.061C280.835 195.377 278.869 189.819 276.486 184.436C271.586 172.872 264.992 163.436 259.231 157.563C257.959 156.221 256.603 154.961 255.171 153.79C254.548 153.265 254.002 152.74 253.442 152.327L251.867 151.242C250.918 150.523 249.913 149.88 248.864 149.317C248.696 149.548 253.113 152.152 258.664 158.081C264.215 164.01 270.655 173.39 275.464 184.856C277.807 190.208 279.791 195.711 281.4 201.327C282.749 205.906 283.863 210.551 284.739 215.243C285.474 219.247 285.901 222.523 286.139 224.791C286.199 225.977 286.349 227.156 286.587 228.319Z" fill="#E0E0E0"/>
<path d="M259.309 278.096L262.137 316.841H311.907L314.735 278.096H259.309Z" fill="#E0E0E0"/>
<path d="M320.671 262.829H254.5V278.103H320.671V262.829Z" fill="#E0E0E0"/>
<path d="M254.5 315.357V319.592H257.608H319.585V315.357H254.5Z" fill="#EBEBEB"/>
<path d="M260.659 327.04L257.607 319.592H317.212L313.656 327.04H260.659Z" fill="#E0E0E0"/>
<path d="M313.81 290.759C313.81 290.759 313.747 290.892 313.579 291.116L312.837 292.103L309.939 295.813L309.806 295.981L309.68 295.806L302.561 285.957H302.967L295.967 295.883L295.743 296.198L295.498 295.904L287.182 286.006H287.658L287.203 286.58C284.62 289.814 282.128 292.95 279.762 295.904L279.517 296.219L279.286 295.897C276.766 292.32 274.386 288.981 272.286 285.964H272.692L264.054 295.813L263.9 295.988L263.781 295.785C262.64 293.874 261.737 292.348 261.079 291.242L260.379 290.031C260.291 289.896 260.221 289.75 260.169 289.597C260.282 289.714 260.38 289.843 260.463 289.982C260.659 290.29 260.918 290.682 261.226 291.151L264.068 295.61H263.795L272.3 285.635L272.517 285.39L272.706 285.656L279.79 295.54H279.314L286.734 286.202L287.189 285.628L287.427 285.334L287.672 285.621L295.96 295.54H295.498L302.582 285.663L302.785 285.376L302.988 285.663L309.988 295.624H309.729L312.746 292.005L313.558 291.067C313.632 290.957 313.717 290.853 313.81 290.759Z" fill="#F5F5F5"/>
<path d="M315.427 277.844C315.427 278.012 302.96 278.152 287.574 278.152C272.188 278.152 259.721 278.012 259.721 277.844C259.721 277.676 272.195 277.536 287.574 277.536C302.953 277.536 315.427 277.669 315.427 277.844Z" fill="#F5F5F5"/>
<path d="M317.94 320.012C317.94 320.18 304.388 320.32 287.672 320.32C270.956 320.32 257.404 320.18 257.404 320.012C257.404 319.844 270.956 319.697 287.672 319.697C304.388 319.697 317.94 319.837 317.94 320.012Z" fill="#F5F5F5"/>
<path d="M138.432 172.998L132.832 176.001L120.435 185.542C120.435 185.542 82.4741 190.582 81.0181 191.674C79.5621 192.766 60.7181 201.733 58.1281 213.766C55.5381 225.799 50.3301 304.276 50.3301 304.276L57.2181 327.46L195.475 327.677L227.899 327.215C227.899 327.215 240.352 298.116 240.352 290.115C240.352 282.114 236.712 221.956 236.712 221.956L197.827 194.537L138.432 172.998Z" fill="#F2A085"/>
<path d="M120.085 184.975C120.035 185.089 119.971 185.197 119.896 185.297C119.728 185.535 119.532 185.829 119.287 186.186C118.741 186.942 117.999 188.076 117.138 189.497C116.718 190.197 116.242 190.995 115.801 191.87C115.36 192.745 114.884 193.676 114.401 194.67C113.424 196.85 112.584 199.09 111.888 201.376C110.689 205.548 109.791 209.801 109.2 214.102C108.962 215.712 108.773 217.035 108.633 218.015C108.57 218.442 108.521 218.792 108.479 219.079C108.469 219.204 108.441 219.326 108.395 219.443C108.38 219.32 108.38 219.195 108.395 219.072C108.395 218.785 108.451 218.428 108.486 217.994C108.57 217.063 108.724 215.719 108.934 214.067C109.467 209.736 110.347 205.454 111.566 201.264C112.268 198.968 113.122 196.72 114.121 194.537C114.597 193.529 115.059 192.584 115.521 191.737C115.983 190.89 116.466 190.085 116.921 189.371C117.824 187.971 118.594 186.844 119.175 186.109L119.84 185.262C119.911 185.157 119.993 185.061 120.085 184.975Z" fill="#263238"/>
<g opacity="0.3">
<path d="M120.946 208.047C120.715 207.305 120.421 206.472 119.7 206.185C119.14 205.954 119.364 206.318 118.804 206.556C113.554 208.719 111.02 213.556 108.794 219.044L108.92 218.911C108.762 219.37 108.76 219.869 108.916 220.329C109.072 220.789 109.376 221.184 109.781 221.452C110.964 222.152 112.483 221.767 113.701 221.137C114.919 220.507 116.032 219.632 117.362 219.296C120.232 218.554 123.095 220.521 125.125 222.691C127.155 224.861 128.975 227.437 131.747 228.508C126.931 222.402 123.27 215.468 120.946 208.047Z" fill="#212121"/>
</g>
<path d="M108.382 219.443C109.013 217.906 109.757 216.418 110.608 214.991C111.577 213.301 112.692 211.699 113.94 210.203C114.73 209.271 115.606 208.415 116.558 207.648C117.631 206.772 118.898 206.165 120.254 205.877H120.359L120.401 205.982C121.276 208.271 122.2 210.77 123.271 213.402C124.364 216.201 125.672 218.911 127.184 221.508C128.856 224.345 130.878 226.96 133.204 229.292C135.709 231.759 138.471 233.95 141.443 235.83C142.458 236.425 143.438 237.062 144.453 237.622L147.484 239.239H147.302L152.356 235.739L154.806 234.052C155.618 233.499 156.409 232.946 157.158 232.358C159.98 230.133 162.604 227.667 164.998 224.987C167.857 222.824 170.298 220.157 172.201 217.119C173.66 214.786 174.753 212.244 175.442 209.58C175.883 207.869 176.159 206.121 176.268 204.358C176.31 203.742 176.268 203.273 176.317 202.958C176.366 202.643 176.317 202.482 176.317 202.482C176.317 202.482 176.317 202.643 176.317 202.958C176.317 203.273 176.317 203.749 176.317 204.358C176.252 206.133 176.003 207.898 175.575 209.622C174.909 212.315 173.83 214.889 172.376 217.252C170.487 220.318 168.056 223.015 165.201 225.211C162.8 227.916 160.167 230.406 157.333 232.652C156.577 233.247 155.786 233.807 154.974 234.36L152.524 236.054L147.47 239.554L147.386 239.617L147.288 239.568L144.243 237.944C143.221 237.384 142.234 236.747 141.219 236.145C138.218 234.255 135.432 232.044 132.91 229.551C130.568 227.197 128.533 224.555 126.855 221.69C125.354 219.065 124.059 216.326 122.984 213.5C121.92 210.854 121.01 208.348 120.149 206.059L120.296 206.143C118.981 206.418 117.751 207.001 116.705 207.844C115.761 208.594 114.889 209.431 114.101 210.343C112.849 211.821 111.722 213.402 110.734 215.068C109.915 216.468 109.334 217.546 108.963 218.295L108.536 219.156C108.498 219.258 108.446 219.355 108.382 219.443Z" fill="#263238"/>
<path d="M186.62 202.209C186.726 205.775 186.558 209.344 186.116 212.884C185.678 216.75 184.965 220.579 183.981 224.343C182.773 228.973 181.224 233.507 179.347 237.909L179.081 238.539L178.997 237.839C178.948 237.433 178.913 236.992 178.843 236.544C178.514 234.032 177.93 231.56 177.1 229.166C176.701 228.004 176.246 226.884 175.756 225.806C175.511 225.267 175.252 224.742 174.986 224.224C174.745 223.714 174.459 223.227 174.132 222.768C173.825 222.322 173.398 221.972 172.9 221.76C172.664 221.675 172.41 221.655 172.164 221.702C171.918 221.748 171.688 221.86 171.5 222.026C171.117 222.377 170.762 222.756 170.436 223.16L169.421 224.315L165.718 228.515L160.335 234.612L158.9 236.292L158.508 236.712L158.368 236.845C158.4 236.788 158.438 236.734 158.48 236.684L158.844 236.243L160.244 234.549L165.536 228.375L169.204 224.119C169.54 223.734 169.904 223.349 170.212 222.95C170.551 222.531 170.921 222.138 171.318 221.774C171.546 221.576 171.822 221.442 172.118 221.386C172.415 221.329 172.721 221.352 173.005 221.452C173.554 221.687 174.025 222.073 174.363 222.565C174.706 223.039 175.005 223.543 175.259 224.07C175.525 224.588 175.791 225.12 176.036 225.659C176.533 226.744 176.995 227.878 177.436 229.047C178.274 231.469 178.865 233.969 179.2 236.509C179.27 236.957 179.305 237.405 179.354 237.818L179.004 237.769C180.874 233.382 182.428 228.868 183.652 224.259C184.645 220.512 185.382 216.703 185.857 212.856C186.263 209.58 186.431 206.913 186.501 205.072C186.55 204.148 186.55 203.434 186.571 202.972C186.571 202.748 186.571 202.566 186.571 202.419C186.571 202.272 186.62 202.209 186.62 202.209Z" fill="#263238"/>
<path d="M134.401 182.868C134.401 182.868 134.401 182.924 134.296 183.008L133.96 183.386C133.652 183.708 133.26 184.219 132.735 184.884C131.348 186.831 130.219 188.948 129.375 191.184C128.093 194.471 127.248 197.911 126.862 201.418C126.37 205.709 126.559 210.051 127.422 214.284C127.864 216.473 128.521 218.614 129.382 220.675C130.181 222.593 131.159 224.433 132.301 226.17C134.231 229.121 136.59 231.768 139.301 234.024C140.428 235.018 141.576 235.76 142.535 236.474C143.494 237.188 144.418 237.678 145.146 238.091L146.847 239.029L147.288 239.281C147.341 239.306 147.391 239.339 147.435 239.379C147.435 239.379 147.379 239.379 147.274 239.316L146.819 239.092L145.076 238.217C144.334 237.818 143.459 237.258 142.423 236.642C141.387 236.026 140.323 235.242 139.14 234.22C136.379 231.974 133.976 229.321 132.014 226.352C130.866 224.581 129.889 222.706 129.095 220.752C128.222 218.673 127.556 216.514 127.107 214.305C126.235 210.033 126.056 205.649 126.575 201.32C126.981 197.789 127.856 194.329 129.179 191.03C130.058 188.796 131.235 186.69 132.679 184.772C133.077 184.256 133.51 183.767 133.974 183.309L134.331 182.952L134.401 182.868Z" fill="#263238"/>
<path d="M74.8585 250.131C74.8585 250.131 74.9145 250.187 74.9985 250.327L75.3695 250.978H75.2645C74.7675 248.626 73.4095 241.416 71.8625 232.883C70.9385 227.633 70.0985 222.88 69.4755 219.373C69.1955 217.679 68.9645 216.293 68.7755 215.271C68.7125 214.816 68.6565 214.452 68.6145 214.151C68.5856 214.022 68.5739 213.891 68.5795 213.759C68.6277 213.883 68.6629 214.012 68.6845 214.144C68.7475 214.431 68.8245 214.802 68.9155 215.25C69.1185 216.258 69.3845 217.644 69.7135 219.331C70.3645 222.831 71.2395 227.57 72.2125 232.82C73.7525 241.346 75.0125 248.584 75.3625 250.957L75.4185 251.314L75.2575 250.992L74.9285 250.292C74.9006 250.24 74.8772 250.187 74.8585 250.131Z" fill="#263238"/>
<path d="M73.1717 248.689C73.0807 248.731 71.3167 245.189 69.2307 240.772C67.1447 236.355 65.5347 232.736 65.6257 232.694C65.7167 232.652 67.4807 236.194 69.5667 240.611C71.6527 245.028 73.2627 248.647 73.1717 248.689Z" fill="#263238"/>
<g opacity="0.3">
<path d="M72.4502 325.654C76.8392 327.859 87.0172 323.967 90.7132 319.116C94.4092 314.265 95.4802 307.951 96.3132 301.903C97.5219 292.789 98.3852 283.64 98.9032 274.456C106.518 279.992 115.782 282.79 125.188 282.394C131.124 282.121 137.893 279.762 139.734 274.113C141.575 268.464 137.634 262.766 133.574 258.517C129.706 254.469 125.49 250.768 120.974 247.457C118.013 245.287 114.765 243.257 111.111 242.83C107.17 242.403 103.187 244.013 100.191 246.61C97.1952 249.207 95.1022 252.707 93.5692 256.361C88.8862 267.526 89.1382 280.021 88.1792 292.061C87.2202 304.101 85.9462 316.624 75.2572 324.478" fill="#212121"/>
</g>
<path d="M72.7373 325.696C72.833 325.64 72.9338 325.593 73.0383 325.556L73.9203 325.171C74.9938 324.601 75.9989 323.91 76.9163 323.113C80.1181 320.193 82.8458 316.792 85.0013 313.033V313.089C85.6383 308.294 86.4013 302.694 87.1783 296.744C88.4663 287.308 89.6003 278.768 90.5173 272.594C91.0843 269.549 91.5393 267.078 91.8683 265.328C92.0293 264.495 92.1553 263.837 92.2533 263.354L92.3583 262.843C92.3675 262.785 92.384 262.729 92.4073 262.675C92.418 262.733 92.418 262.792 92.4073 262.85C92.4073 262.99 92.3583 263.158 92.3303 263.368L92.0153 265.356C91.7143 267.106 91.3153 269.556 90.7763 272.636C89.9503 278.845 88.8093 287.336 87.5493 296.793C86.7373 302.743 85.9743 308.336 85.3233 313.131V313.166C83.1308 316.943 80.3468 320.344 77.0773 323.239C76.1392 324.03 75.1071 324.703 74.0043 325.241C73.6123 325.402 73.3043 325.507 73.0943 325.577C72.9836 325.638 72.8626 325.679 72.7373 325.696Z" fill="#263238"/>
<path d="M140.12 327.215C140.087 327.146 140.064 327.073 140.05 326.998C140.008 326.83 139.959 326.613 139.896 326.34C139.77 325.759 139.539 324.94 139.357 323.806C138.796 320.666 138.474 317.488 138.391 314.3C138.28 309.579 138.532 304.856 139.147 300.174C139.791 294.882 140.862 289.121 142.108 283.101C143.354 277.081 144.803 271.404 146.021 266.231C147.177 261.667 147.929 257.011 148.268 252.315C148.449 249.147 148.332 245.969 147.918 242.823C147.799 241.703 147.61 240.849 147.526 240.261L147.428 239.596C147.418 239.519 147.418 239.442 147.428 239.365C147.456 239.437 147.475 239.512 147.484 239.589C147.519 239.757 147.568 239.974 147.624 240.247C147.722 240.828 147.939 241.647 148.079 242.802C148.547 245.955 148.704 249.146 148.548 252.329C148.245 257.052 147.516 261.737 146.371 266.329C145.167 271.516 143.676 277.172 142.486 283.199C141.296 289.226 140.162 294.959 139.497 300.237C138.863 304.897 138.58 309.598 138.65 314.3C138.709 317.473 138.992 320.638 139.497 323.771C139.658 324.884 139.868 325.731 139.966 326.319C140.015 326.592 140.057 326.816 140.085 326.984C140.113 327.152 140.12 327.215 140.12 327.215Z" fill="#263238"/>
<path d="M151.901 248.283C151.817 248.227 153.021 246.302 154.365 243.845C155.709 241.388 156.682 239.337 156.78 239.379C156.678 239.867 156.508 240.338 156.276 240.779C155.912 241.626 155.359 242.774 154.687 244.013C154.015 245.252 153.336 246.33 152.818 247.093C152.568 247.53 152.26 247.93 151.901 248.283Z" fill="#263238"/>
<g opacity="0.3">
<path d="M154.154 245.378C157.803 241.107 161.754 237.105 165.977 233.401C167.132 232.386 168.385 231.357 169.904 231.105C171.752 230.797 173.635 231.749 174.916 233.121C176.123 234.56 177.088 236.187 177.772 237.937C179.606 233.429 177.702 228.347 175.812 223.86C175.196 222.397 174.132 220.661 172.564 220.899C171.744 221.128 171.03 221.638 170.548 222.341C164.481 229.385 158.87 236.808 153.748 244.566" fill="#212121"/>
</g>
<g opacity="0.3">
<path d="M215.698 212.037L215.957 209.818C213.29 210.07 210.014 210.385 207.886 212.009C205.401 213.906 204.386 217.133 203.588 220.143C201.684 226.989 207.088 262.234 206.808 269.339C209.167 268.338 210.833 253.239 211.253 250.677C212.289 244.51 210.196 240.66 210.833 238.938C211.47 237.216 211.449 235.347 211.498 233.52C211.729 225.337 212.541 219.583 215.698 212.037Z" fill="#212121"/>
</g>
<path d="M180.901 98.917C177.513 94.717 178.626 88.004 182.504 84.217C186.382 80.43 192.304 79.38 197.603 80.276C201.465 80.963 205.109 82.5549 208.237 84.9214C211.366 87.2879 213.889 90.3616 215.6 93.891C217.42 97.706 218.4 102.214 221.739 104.804C224.665 107.086 228.697 107.282 232.029 108.92C236.495 111.104 239.379 115.787 240.429 120.652C241.479 125.517 240.835 130.585 239.806 135.457C238.861 139.923 237.601 144.753 239.519 148.89C241.437 153.027 245.756 155.134 248.619 158.536C254.037 164.927 252.819 175.805 246.106 180.831C243.971 182.434 241.269 183.631 240.247 186.123C239.316 188.377 240.107 190.932 240.058 193.368C239.939 199.668 233.016 204.813 226.961 203.168C223.909 202.328 221.095 200.074 217.952 200.501C214.809 200.928 212.751 203.812 210.252 205.681C207.695 207.458 204.604 208.301 201.499 208.067C198.394 207.834 195.463 206.539 193.2 204.4C191.366 202.573 189.889 200.088 187.383 199.423C184.877 198.758 182.252 200.193 179.683 199.843C176.33 199.388 174.125 196.056 173.131 192.843C172.137 189.63 171.878 186.095 170.205 183.155C168 179.263 163.8 177.1 160.3 174.37C156.413 171.366 153.216 167.562 150.927 163.215C148.637 158.868 147.308 154.081 147.029 149.176C146.75 144.271 147.528 139.363 149.311 134.785C151.093 130.207 153.838 126.065 157.36 122.64" fill="#263238"/>
<path d="M133.952 182.889C130.628 186.771 128.273 191.387 127.083 196.358C125.893 201.328 125.901 206.51 127.106 211.477C129.605 221.354 137.865 235.795 147.406 239.379C153.594 234.843 161.546 228.508 167.314 223.454C171.045 220.185 173.026 215.404 174.874 210.798C175.938 208.138 177.023 205.268 176.358 202.482C175.861 200.431 174.475 198.723 173.012 197.204C168.26 192.35 162.42 188.697 155.976 186.547C149.532 184.398 142.669 183.813 135.954 184.842" fill="#F3CFB7"/>
<path d="M162.282 111.776C164.003 108.284 166.873 105.49 170.409 103.861C173.945 102.233 177.934 101.868 181.707 102.83L205.584 108.92C217.519 112.763 226.864 131.236 219.829 147.42C214.271 160.195 208.58 176.246 202.875 185.066C191.395 202.79 175.701 198.737 175.701 198.737L167.231 217.637L132.602 185.164L162.282 111.776Z" fill="#F3CFB7"/>
<path d="M202.601 152.411C203.049 152.243 204.225 154.511 206.801 155.722C209.377 156.933 211.925 156.59 212.051 157.045C212.121 157.255 211.54 157.675 210.42 157.871C208.92 158.1 207.386 157.856 206.031 157.171C204.68 156.527 203.572 155.467 202.867 154.147C202.377 153.181 202.384 152.481 202.601 152.411Z" fill="#263238"/>
<path d="M175.56 140.098C176.064 140 177.226 142.485 180.012 144.214C182.798 145.943 185.612 145.992 185.731 146.475C185.794 146.699 185.129 147.028 183.876 147.042C182.171 147.008 180.507 146.507 179.067 145.593C177.637 144.719 176.488 143.453 175.756 141.946C175.266 140.847 175.315 140.133 175.56 140.098Z" fill="#263238"/>
<path d="M187.019 166.502C187.075 166.348 188.832 166.789 191.632 167.629C192.332 167.853 193.032 168.007 193.347 167.594C193.662 167.181 193.76 166.334 193.781 165.403C193.872 163.499 193.97 161.504 194.061 159.404C194.537 150.899 195.188 144.004 195.531 144.039C195.874 144.074 195.776 150.976 195.307 159.488C195.176 161.583 195.05 163.581 194.929 165.48C194.845 166.355 194.894 167.419 194.11 168.28C193.906 168.474 193.661 168.618 193.393 168.703C193.125 168.788 192.841 168.811 192.563 168.77C192.146 168.707 191.74 168.592 191.352 168.427C188.622 167.377 186.963 166.656 187.019 166.502Z" fill="#263238"/>
<path d="M175.7 198.8C175.7 198.8 161.875 193.62 152.544 180.341C152.544 180.341 153.069 196.553 173.586 203.553L175.7 198.8Z" fill="#D37A57"/>
<path d="M177.73 131.124C178.164 130.424 180.901 131.376 184.289 131.677C187.677 131.978 190.54 131.642 190.834 132.419C190.96 132.79 190.344 133.413 189.112 133.924C187.481 134.528 185.734 134.753 184.004 134.582C182.273 134.411 180.604 133.849 179.123 132.937C178.017 132.188 177.534 131.46 177.73 131.124Z" fill="#263238"/>
<path d="M208.243 138.824C209.125 138.824 210.217 141.001 212.107 143.08C213.997 145.159 215.95 146.58 215.824 147.462C215.74 147.861 215.005 148.036 213.843 147.693C212.307 147.162 210.941 146.229 209.888 144.991C208.8 143.793 208.057 142.322 207.739 140.735C207.557 139.545 207.83 138.852 208.243 138.824Z" fill="#263238"/>
<path d="M180.951 173.817C180.951 173.817 182.575 172.97 181.819 169.848C181.063 166.726 177.101 163.905 174.588 166.474C174.588 166.474 172.054 166.663 173.048 169.589C174.042 172.515 179.824 176.645 180.902 174.293" fill="#D37A57"/>
<path d="M180.005 176.204C179.543 176.12 180.243 173.075 178.143 170.31C176.043 167.545 172.725 167.125 172.802 166.691C172.802 166.488 173.663 166.271 175.042 166.551C176.829 166.94 178.421 167.95 179.536 169.4C180.611 170.793 181.101 172.551 180.901 174.3C180.726 175.595 180.208 176.267 180.005 176.204Z" fill="#263238"/>
<path d="M141.862 101.829C140.012 103.273 138.528 105.133 137.531 107.258C136.534 109.382 136.051 111.712 136.122 114.058C136.227 116.676 136.864 119.763 134.939 121.541C133.014 123.319 129.885 122.374 127.239 122.388C124.908 122.465 122.679 123.36 120.942 124.916C119.205 126.473 118.071 128.591 117.74 130.9C117.551 132.552 117.74 134.337 116.928 135.8C116.116 137.263 114.289 137.963 112.805 138.866C110.954 139.987 109.43 141.575 108.386 143.471C107.342 145.366 106.814 147.503 106.856 149.667C106.898 151.831 107.507 153.946 108.624 155.8C109.741 157.653 111.325 159.181 113.218 160.23C114.933 161.175 116.935 161.77 118.188 163.275C119.588 165.004 119.672 167.475 120.379 169.575C121.059 171.636 122.368 173.432 124.122 174.709C125.877 175.987 127.987 176.683 130.157 176.698C132.327 176.714 134.448 176.048 136.22 174.796C137.992 173.543 139.326 171.766 140.035 169.715" fill="#263238"/>
<path d="M180.6 95.1299C179.895 97.1836 179.652 99.3673 179.887 101.526C180.122 103.684 180.829 105.764 181.959 107.618C183.09 109.472 184.614 111.054 186.425 112.252C188.236 113.45 190.289 114.234 192.437 114.548C195.755 115.031 199.717 114.611 201.859 117.194C204.113 119.91 202.776 124.236 204.561 127.288C207.102 131.635 211.449 135.107 215.565 138.019C218.75 140.266 215.11 146.517 216.496 150.157C217.882 153.797 223.587 162.106 227.479 162.253C228.333 158.998 233.177 144.697 233.261 141.337C233.345 137.977 232.561 134.477 230.503 131.831C229.362 130.382 227.864 129.227 226.877 127.673C224.742 124.306 225.477 119.973 224.777 116.032C224.308 113.492 223.237 111.101 221.653 109.06C220.07 107.019 218.021 105.386 215.677 104.3C211.792 102.522 207.235 102.326 203.644 100.009C200.991 98.2939 199.094 95.5569 196.343 94.0029C190.988 90.9789 184.282 93.3029 178.745 95.9629" fill="#263238"/>
<path d="M154.791 135.8C154.238 135.429 150.591 138.208 154.189 140.427C160.538 144.305 165.991 131.187 165.76 126.826C168.994 125.426 172.263 124.075 175.112 121.926C177.961 119.777 182.217 112.7 182.98 109.102C185.409 110.089 197.148 110.18 196.126 109.473C193.809 107.87 189.126 104.433 188.503 101.773C187.152 95.9279 183.001 90.8389 177.513 89.3129C174.652 88.5899 171.633 88.8129 168.909 89.9486C166.185 91.0842 163.901 93.0714 162.4 95.6129C155.869 93.4569 148.127 95.3959 142.919 100.513C140.32 103.133 138.396 106.346 137.314 109.875C136.233 113.405 136.025 117.144 136.71 120.771C137.088 122.633 137.718 124.579 137.123 126.427C136.381 128.709 134.085 129.927 132.258 131.425C127.281 135.464 125.139 142.625 125.748 149.044C126.357 155.463 127.463 158.046 130.648 160.377C136.885 164.927 123.921 176.561 135.548 180.495" fill="#263238"/>
<path d="M241.5 180.285C241.5 180.243 241.913 179.998 242.592 179.361C243.594 178.439 244.392 177.319 244.937 176.071C245.819 174.114 246.047 171.924 245.588 169.827C245.042 167.384 243.201 165.06 240.737 163.079C238.273 161.098 235.2 159.187 232.974 155.946C230.748 152.705 230.349 148.246 231.063 144.046C231.777 139.846 233.541 135.646 234.675 131.229C235.285 129.004 235.575 126.704 235.536 124.397C235.515 122.052 234.883 119.752 233.702 117.726C232.429 115.758 230.623 114.192 228.494 113.211C226.407 112.234 224.191 111.56 221.914 111.209C219.646 110.942 217.4 110.511 215.194 109.921C214.087 109.626 213.053 109.109 212.154 108.4C211.254 107.691 210.51 106.805 209.965 105.798C208.95 103.796 208.726 101.675 208.285 99.7499C207.942 97.8833 207.165 96.1233 206.017 94.6119C203.871 91.9066 200.803 90.0872 197.4 89.5019C194.595 89.0251 191.711 89.3703 189.098 90.4959C187.12 91.3477 185.301 92.5314 183.722 93.9959C182.403 95.2901 181.213 96.7083 180.166 98.2309C180.166 98.2309 180.201 98.1049 180.32 97.8949C180.484 97.5755 180.663 97.2648 180.859 96.9639C181.601 95.7906 182.477 94.7076 183.47 93.7369C185.048 92.1929 186.884 90.9373 188.895 90.0269C191.593 88.8094 194.587 88.4032 197.512 88.8579C201.086 89.4448 204.315 91.3352 206.577 94.1639C207.806 95.7587 208.645 97.619 209.027 99.5959C209.489 101.563 209.727 103.635 210.672 105.434C211.172 106.336 211.851 107.127 212.667 107.757C213.483 108.388 214.419 108.846 215.418 109.102C217.585 109.675 219.792 110.089 222.019 110.341C224.387 110.712 226.69 111.419 228.858 112.441C231.146 113.495 233.089 115.177 234.458 117.292C235.721 119.456 236.396 121.912 236.418 124.418C236.46 126.81 236.158 129.196 235.522 131.502C234.339 136.003 232.561 140.112 231.868 144.235C231.175 148.358 231.504 152.509 233.576 155.554C235.648 158.599 238.714 160.496 241.129 162.61C243.544 164.724 245.532 167.132 246.029 169.743C246.469 171.943 246.176 174.227 245.196 176.246C244.604 177.516 243.736 178.637 242.655 179.529C242.308 179.835 241.919 180.09 241.5 180.285Z" fill="#455A64"/>
<path d="M220.003 138.019C220.08 138.054 219.66 139.02 219.233 140.854C218.648 143.444 218.565 146.122 218.988 148.743C219.272 150.542 219.804 152.292 220.57 153.944C221.498 155.826 222.649 157.589 224 159.194C224.736 160.12 225.363 161.128 225.869 162.197C226.406 163.356 226.632 164.634 226.527 165.907C226.324 168.511 225.043 170.807 224.091 173.18C223.139 175.553 222.53 178.003 223.447 180.18C224.364 182.357 226.03 183.988 227.605 185.556C229.222 187.005 230.61 188.69 231.721 190.554C232.657 192.277 232.907 194.289 232.421 196.189C232.1 197.535 231.483 198.792 230.617 199.871C229.75 200.95 228.655 201.822 227.409 202.426C226.732 202.732 226.012 202.933 225.274 203.021C225.019 203.058 224.76 203.058 224.504 203.021C225.45 202.812 226.372 202.507 227.255 202.111C228.398 201.479 229.394 200.611 230.175 199.565C230.956 198.518 231.504 197.317 231.784 196.042C232.192 194.304 231.943 192.476 231.084 190.911C229.986 189.136 228.627 187.536 227.052 186.165C225.47 184.604 223.629 182.924 222.649 180.502C222.164 179.271 222.003 177.935 222.18 176.624C222.382 175.319 222.754 174.045 223.286 172.837C224.273 170.422 225.491 168.175 225.673 165.837C225.855 163.499 224.686 161.448 223.363 159.691C221.993 158.026 220.836 156.197 219.919 154.245C218.041 149.998 217.693 145.231 218.932 140.756C219.125 140.037 219.376 139.335 219.681 138.656C219.756 138.428 219.864 138.214 220.003 138.019Z" fill="#455A64"/>
<path d="M114.975 159.992C114.975 159.992 114.821 159.908 114.576 159.698C114.204 159.387 113.862 159.043 113.554 158.669C112.372 157.233 111.572 155.521 111.23 153.692C110.934 152.263 110.934 150.789 111.229 149.36C111.524 147.931 112.108 146.578 112.945 145.383C114.059 143.826 115.542 142.57 117.261 141.728C118.98 140.886 120.881 140.485 122.794 140.56L122.409 141.078C121.508 138.759 121.105 136.276 121.226 133.791C121.298 132.421 121.671 131.083 122.318 129.873C122.966 128.664 123.871 127.611 124.971 126.791C126.154 125.903 127.588 125.413 129.066 125.391C130.548 125.48 131.992 125.889 133.301 126.588C134.531 127.256 135.841 127.764 137.2 128.1C137.86 128.226 138.541 128.193 139.186 128.001C139.83 127.81 140.419 127.467 140.903 127.001C142.334 125.519 143.154 123.552 143.199 121.492C143.36 119.434 143.164 117.341 143.381 115.248C143.819 111.221 145.639 107.47 148.533 104.636C151.113 102.12 154.438 100.506 158.011 100.037C161.023 99.6137 164.093 99.9978 166.908 101.15L166.516 101.311C167.524 99.2953 169.238 97.7207 171.332 96.8869C172.867 96.2569 174.533 96.0164 176.183 96.1869C177.209 96.2899 178.208 96.5794 179.13 97.0409C179.451 97.198 179.749 97.3956 180.019 97.6289C178.813 97.0176 177.502 96.6422 176.155 96.5229C174.566 96.4257 172.977 96.7114 171.521 97.3559C169.573 98.1789 167.992 99.6849 167.076 101.591L166.95 101.85L166.677 101.745C163.955 100.687 161.005 100.356 158.116 100.786C154.718 101.277 151.567 102.842 149.121 105.252C146.389 107.959 144.675 111.528 144.27 115.353C144.067 117.334 144.27 119.42 144.109 121.59C144.05 123.878 143.127 126.059 141.526 127.694C140.938 128.251 140.226 128.662 139.449 128.894C138.672 129.125 137.851 129.169 137.053 129.024C135.606 128.676 134.211 128.142 132.902 127.435C131.715 126.787 130.402 126.403 129.052 126.308C127.762 126.329 126.51 126.755 125.475 127.526C124.467 128.27 123.636 129.229 123.043 130.333C122.45 131.436 122.109 132.658 122.045 133.91C121.917 136.278 122.282 138.648 123.116 140.868L123.312 141.414H122.731C120.939 141.329 119.154 141.688 117.533 142.459C115.913 143.229 114.508 144.387 113.442 145.831C112.629 146.954 112.051 148.23 111.745 149.582C111.438 150.935 111.408 152.335 111.657 153.699C111.953 155.477 112.673 157.158 113.757 158.599C114.492 159.516 115.01 159.95 114.975 159.992Z" fill="#455A64"/>
<path d="M180.285 100.401C180.327 100.562 178.885 100.331 177.128 101.626C175.371 102.921 173.789 105.952 173.334 109.844L173.299 110.173H172.963C171.03 110.047 169.094 110.37 167.307 111.117C165.519 111.864 163.928 113.014 162.659 114.478C161.953 115.311 161.392 116.258 161 117.278C160.665 118.384 160.431 119.518 160.3 120.666C160.153 121.901 159.919 123.125 159.6 124.327C159.253 125.645 158.478 126.81 157.395 127.638C155.071 129.451 152.215 129.738 149.695 130.158C147.278 130.37 144.912 130.982 142.695 131.971C138.987 133.749 136.092 136.869 134.596 140.7C133.612 143.301 133.283 146.104 133.637 148.862C133.889 150.822 134.337 151.858 134.218 151.886C134.067 151.66 133.951 151.412 133.875 151.151C133.62 150.423 133.424 149.677 133.287 148.918C132.781 146.091 133.022 143.181 133.987 140.476C135.457 136.411 138.445 133.074 142.324 131.166C144.609 130.119 147.054 129.464 149.555 129.227C152.047 128.828 154.756 128.478 156.786 126.875C158.788 125.475 159.005 122.815 159.39 120.484C159.542 119.28 159.802 118.092 160.167 116.935C160.606 115.826 161.226 114.797 162.001 113.89C163.365 112.342 165.073 111.134 166.988 110.365C168.902 109.595 170.97 109.285 173.026 109.459L172.655 109.767C173.215 105.714 174.923 102.578 176.911 101.304C177.642 100.801 178.486 100.486 179.368 100.387C179.673 100.345 179.982 100.35 180.285 100.401Z" fill="#455A64"/>
<path d="M156.142 137.809C158.137 133.903 155.442 128.982 151.067 128.989C148.652 128.989 146.062 130.305 143.906 134.435C138.159 145.453 150.409 148.953 150.591 148.645C150.703 148.456 153.804 142.394 156.142 137.809Z" fill="#F3CFB7"/>
<path d="M149.402 142.716C149.402 142.653 149.143 142.751 148.702 142.716C148.147 142.678 147.627 142.428 147.253 142.016C146.315 140.98 146.294 138.621 147.253 136.612C147.712 135.649 148.384 134.804 149.22 134.141C149.504 133.854 149.854 133.641 150.24 133.519C150.625 133.397 151.034 133.37 151.432 133.441C151.683 133.498 151.907 133.641 152.064 133.846C152.222 134.05 152.302 134.303 152.293 134.561C152.293 134.946 152.097 135.128 152.139 135.177C152.181 135.226 152.475 135.114 152.622 134.617C152.718 134.318 152.711 133.995 152.601 133.7C152.51 133.508 152.383 133.335 152.225 133.192C152.068 133.049 151.884 132.939 151.684 132.867C151.185 132.719 150.656 132.702 150.149 132.817C149.641 132.933 149.172 133.176 148.786 133.525C147.821 134.237 147.043 135.171 146.518 136.248C145.433 138.509 145.489 141.148 146.84 142.471C147.091 142.709 147.392 142.889 147.722 142.997C148.051 143.105 148.4 143.138 148.744 143.094C149.248 142.968 149.43 142.758 149.402 142.716Z" fill="#D37A57"/>
<path d="M145.166 290.843C144.186 289.037 141.666 287.924 141.666 287.924L139.566 282.779C140.069 281.48 140.069 280.039 139.566 278.74C138.733 276.514 132.608 263.585 132.748 263.165L131.166 263.074C131.166 263.074 136.808 276.759 137.361 277.459C137.914 278.159 138.761 282.226 137.361 282.779C135.961 283.332 133.014 281.834 131.761 280.581C130.508 279.328 126.525 269.913 125.832 267.981C125.139 266.049 126.371 263.326 126.371 263.326L127.484 260.687H126C125.39 262.464 124.879 264.272 124.467 266.105C123.914 268.751 130.172 280.294 131.145 281.547C132.118 282.8 135.457 283.773 137.263 285.047C139.069 286.321 138.796 290.199 138.796 290.199C137.855 291.559 137.279 293.138 137.123 294.784C136.983 297.29 142.548 309.113 146.3 311.584C150.052 314.055 154.511 312.284 154.924 312.424C155.337 312.564 156.324 310.471 156.324 310.471C156.324 310.471 146.139 292.649 145.166 290.843ZM150.29 311.5C148.241 311.224 146.385 310.149 145.124 308.511C144.669 307.909 139.797 299.411 139.167 297.857C138.075 295.106 138.831 293.58 139.23 291.97C139.811 289.625 143.43 290.997 143.43 290.997C143.43 290.997 154.084 309.407 153.839 309.967C153.594 310.527 152.292 311.675 150.29 311.5Z" fill="#263238"/>
<path d="M156.289 310.45C156.289 310.45 187.306 298.648 188.755 297.311C190.204 295.974 195.44 288.288 195.44 288.288C195.44 288.288 198.002 288.729 197.666 289.401C197.33 290.073 192.43 297.759 187.166 299.985C181.902 302.211 154.868 312.403 154.868 312.403L156.289 310.45Z" fill="#263238"/>
<path d="M58.1354 213.185L45.3604 286.867C45.3604 286.867 40.6564 301.203 41.3284 304.367C42.0004 307.531 44.3734 321.027 51.5414 325.283C58.7094 329.539 72.9054 326.76 75.8174 323.883C78.7294 321.006 84.4694 315.637 85.1414 313.173C85.8134 310.709 90.5244 273.273 90.5244 273.273L92.3934 262.773C92.3934 262.773 85.4494 265.013 81.1934 262.073C76.9374 259.133 71.3374 246.617 71.3374 246.617L65.1004 256.2L58.1354 213.185Z" fill="#F2A085"/>
<path d="M71.3371 246.547C71.2744 246.694 71.1945 246.832 71.0991 246.96L70.3361 248.115C69.6781 249.109 68.7261 250.558 67.5851 252.364C65.2891 255.976 62.2231 261.023 58.8701 266.63C55.5171 272.237 52.5001 277.312 50.2391 280.959C49.1191 282.779 48.1951 284.242 47.5441 285.25C47.2291 285.719 46.9701 286.104 46.7811 286.398C46.6955 286.534 46.5996 286.662 46.4941 286.783C46.5501 286.632 46.6254 286.488 46.7181 286.356L47.4181 285.173L50.0221 280.826L58.5551 266.441C61.9081 260.841 65.0161 255.801 67.3681 252.224C68.5441 250.432 69.5241 249.004 70.2241 248.024L71.0361 246.911C71.1254 246.781 71.2261 246.659 71.3371 246.547Z" fill="#263238"/>
<path d="M90.7905 271.712C90.7125 271.821 90.6233 271.922 90.5245 272.013C90.3355 272.202 90.0835 272.503 89.7055 272.832C88.6538 273.801 87.4621 274.605 86.1705 275.219C85.2806 275.638 84.3391 275.937 83.3705 276.108C82.2485 276.32 81.0996 276.348 79.9685 276.192C78.721 276.031 77.5011 275.702 76.3425 275.212C75.1131 274.68 73.9405 274.026 72.8425 273.259C71.7603 272.458 70.7676 271.543 69.8815 270.529C67.6901 267.942 66.2218 264.822 65.6255 261.485C65.3649 260.085 65.2685 258.659 65.3385 257.236C65.3385 256.732 65.4225 256.347 65.4435 256.081C65.4558 255.946 65.4792 255.813 65.5135 255.682C65.5399 256.202 65.5399 256.723 65.5135 257.243C65.5013 258.653 65.635 260.06 65.9125 261.443C66.321 263.492 67.0485 265.464 68.0685 267.288C68.6762 268.353 69.3791 269.36 70.1685 270.298C71.0437 271.288 72.0197 272.184 73.0805 272.972C74.1616 273.725 75.3154 274.367 76.5245 274.89C77.6429 275.369 78.8198 275.699 80.0245 275.87C81.1136 276.016 82.2187 275.992 83.3005 275.8C84.2653 275.645 85.2063 275.368 86.1005 274.974C87.3814 274.39 88.5737 273.629 89.6425 272.713C90.3705 272.076 90.7695 271.684 90.7905 271.712Z" fill="#263238"/>
<path d="M71.3379 246.547L80.8999 240.401C80.8999 240.401 106.38 230.048 108.97 229.453C111.56 228.858 114.57 227.661 115.97 229.453C117.37 231.245 131.895 241.794 131.895 241.794C131.895 241.794 140.456 257.894 140.456 260.113C140.456 262.332 142.843 265.104 140.456 265.895L138.041 266.7C138.041 266.7 137.243 270.606 134.254 271.04C131.265 271.474 130.271 271.04 130.271 271.04C130.271 271.04 130.075 274.946 127.688 274.708C125.301 274.47 121.318 271.04 121.318 271.04C121.318 271.04 119.526 273.07 118.133 273.07C116.74 273.07 112.358 270.088 112.358 270.088L103.888 262.717L96.4259 260.134L92.4009 262.675C92.4009 262.675 83.7909 263.41 82.4959 262.675C81.2009 261.94 71.3379 246.547 71.3379 246.547Z" fill="#F3CFB7"/>
<path d="M120.275 271.712C120.096 271.347 119.948 270.968 119.834 270.578C119.708 270.214 119.547 269.766 119.33 269.255C119.113 268.744 118.903 268.156 118.595 267.533C118.287 266.91 117.986 266.21 117.594 265.503C117.202 264.796 116.761 264.033 116.292 263.242C115.23 261.562 114.043 259.964 112.743 258.461C111.419 256.978 109.989 255.593 108.466 254.317C107.766 253.75 107.066 253.19 106.366 252.735C105.666 252.28 105.071 251.839 104.483 251.475C103.895 251.111 103.342 250.775 102.866 250.523C102.39 250.271 101.97 250.019 101.62 249.823C101.251 249.656 100.895 249.462 100.556 249.242C100.944 249.36 101.321 249.512 101.683 249.697C102.12 249.88 102.548 250.085 102.964 250.313C103.454 250.572 104.021 250.852 104.616 251.223C105.211 251.594 105.869 251.979 106.541 252.462C107.213 252.945 107.941 253.463 108.641 254.03C111.773 256.557 114.446 259.605 116.544 263.039C117.013 263.837 117.468 264.586 117.825 265.335C118.182 266.084 118.525 266.735 118.798 267.435C119.071 268.135 119.295 268.674 119.498 269.192C119.701 269.71 119.834 270.165 119.939 270.543C120.081 270.923 120.194 271.314 120.275 271.712Z" fill="#D37A57"/>
<path d="M130.257 271.467C130.257 271.467 130.173 271.369 130.04 271.159C129.907 270.949 129.711 270.648 129.494 270.235C128.885 269.067 128.366 267.855 127.94 266.609C127.387 265.041 126.848 263.109 126.218 261.009C125.588 258.727 124.686 256.529 123.53 254.464C122.304 252.44 120.674 250.691 118.742 249.326C116.978 248.045 115.277 247.009 113.982 245.945C112.93 245.143 112.017 244.173 111.28 243.075C111.087 242.771 110.919 242.453 110.776 242.123C110.715 242.013 110.67 241.895 110.643 241.773C110.678 241.773 110.874 242.235 111.399 242.998C112.169 244.047 113.094 244.972 114.143 245.742C115.445 246.764 117.146 247.772 118.938 249.06C120.921 250.433 122.591 252.21 123.838 254.275C125.011 256.366 125.919 258.595 126.54 260.911C127.156 263.011 127.667 264.929 128.185 266.511C128.576 267.752 129.043 268.968 129.585 270.151C129.833 270.577 130.057 271.016 130.257 271.467Z" fill="#D37A57"/>
<path d="M137.438 266.847C137.385 266.738 137.348 266.623 137.326 266.504C137.263 266.231 137.186 265.902 137.088 265.496C136.99 265.09 136.871 264.523 136.696 263.914C136.521 263.305 136.353 262.591 136.08 261.814C135.807 261.037 135.562 260.225 135.205 259.35C134.848 258.475 134.456 257.551 134.029 256.585C132.079 252.423 129.48 248.598 126.329 245.252C125.587 244.496 124.894 243.761 124.187 243.152C123.48 242.543 122.836 241.941 122.213 241.43C121.59 240.919 121.016 240.492 120.512 240.1C120.008 239.708 119.56 239.4 119.189 239.148L118.335 238.56C118.146 238.42 118.048 238.343 118.055 238.329C118.168 238.373 118.276 238.429 118.377 238.497L119.266 239.036C119.651 239.267 120.113 239.561 120.631 239.939C121.149 240.317 121.758 240.716 122.381 241.234C123.004 241.752 123.697 242.284 124.39 242.935C125.083 243.586 125.79 244.279 126.567 245.035C128.157 246.719 129.617 248.521 130.935 250.425C132.222 252.346 133.359 254.364 134.337 256.459C134.764 257.439 135.184 258.363 135.492 259.259C135.8 260.155 136.101 260.981 136.332 261.758C136.563 262.535 136.738 263.235 136.899 263.858C137.038 264.386 137.15 264.921 137.235 265.461C137.305 265.867 137.361 266.21 137.41 266.483C137.437 266.602 137.447 266.725 137.438 266.847Z" fill="#D37A57"/>
<path d="M99.9326 239.673C99.9326 239.729 99.4356 239.806 98.7006 240.128C97.7416 240.53 96.9057 241.177 96.2776 242.006C95.6494 242.834 95.2514 243.814 95.1236 244.846C95.0186 245.644 95.0816 246.148 95.0256 246.155C94.8566 245.733 94.8035 245.274 94.8716 244.825C94.9328 243.723 95.321 242.664 95.9869 241.784C96.6527 240.904 97.5658 240.242 98.6096 239.883C99.0254 239.701 99.4809 239.629 99.9326 239.673Z" fill="#D37A57"/>
<path d="M107.031 232.925C107.087 233.023 105.855 233.8 104.637 235.102C103.419 236.404 102.691 237.664 102.593 237.615C103.43 235.549 105.014 233.875 107.031 232.925Z" fill="#D37A57"/>
<path d="M206.927 149.8C205.716 150.304 205.471 151.753 205.492 153.062C205.492 154.7 205.926 154.966 207.263 157.71C209.454 162.197 212.072 170.709 212.072 170.709C212.072 170.709 209.923 192.199 211.372 197.246C211.768 198.584 212.485 199.805 213.461 200.802C214.437 201.799 215.643 202.542 216.972 202.965L215.012 219.562H238.455C238.455 219.562 237.622 203.462 237.118 198.562C236.586 193.382 236.936 162.057 236.936 162.057L234.633 145.334L229.208 135.94C228.385 136.478 227.775 137.286 227.483 138.225C227.191 139.163 227.234 140.175 227.605 141.085C228.83 144.522 229.635 151.123 229.635 151.123L216.062 130.697C216.062 130.697 213.395 131.334 213.262 136.297C213.262 136.297 209.314 138.866 211.862 143.038C214.606 147.7 217.56 161.7 216.524 161.7L208.124 149.331L206.927 149.8Z" fill="#F3CFB7"/>
<path d="M214.957 219.562C214.957 219.562 214.957 219.191 215.062 218.463C215.167 217.735 215.265 216.65 215.419 215.25C215.741 212.415 216.217 208.25 216.819 202.951L216.882 203.049C215.79 202.696 214.778 202.135 213.9 201.397C212.933 200.597 212.167 199.583 211.66 198.436C211.156 197.191 210.876 195.866 210.834 194.523C210.754 193.123 210.722 191.7 210.736 190.253C210.799 184.387 211.254 177.821 211.919 170.695V170.751C210.82 167.293 209.602 163.646 208.076 159.95C207.691 159.026 207.285 158.109 206.823 157.199C206.31 156.298 205.861 155.363 205.479 154.399C205.35 153.875 205.293 153.336 205.311 152.796C205.311 152.251 205.391 151.708 205.549 151.186C205.703 150.633 206.051 150.153 206.529 149.835C206.768 149.697 207.018 149.58 207.278 149.485L208.02 149.177L208.146 149.128L208.223 149.24L217.001 162.113L216.679 162.183C216.794 161.105 216.78 160.017 216.637 158.942C216.515 157.84 216.328 156.746 216.077 155.666C215.569 153.457 214.914 151.285 214.117 149.163C213.347 147 212.374 144.9 211.429 142.737C210.927 141.62 210.794 140.372 211.051 139.174C211.338 137.96 212.048 136.889 213.053 136.15L212.976 136.283C213.09 135.204 213.339 134.143 213.718 133.126C213.926 132.595 214.204 132.094 214.544 131.635C214.889 131.139 215.377 130.76 215.944 130.55L216.056 130.515L216.133 130.627L216.294 130.865L229.706 151.06L229.377 151.179C229.049 148.487 228.57 145.816 227.942 143.178C227.781 142.527 227.599 141.89 227.389 141.267C227.151 140.622 227.037 139.938 227.053 139.251C227.091 138.565 227.291 137.898 227.635 137.303C227.979 136.709 228.458 136.203 229.034 135.828L229.181 135.73L229.272 135.891L234.697 145.285C235.495 151.137 236.258 156.714 236.986 162.015C236.888 170.681 236.839 178.612 236.853 185.626C236.853 189.126 236.853 192.416 236.958 195.426C237 196.938 237.084 198.38 237.224 199.766C237.364 201.152 237.427 202.475 237.511 203.728C237.84 208.74 238.036 212.674 238.176 215.355C238.239 216.692 238.288 217.714 238.316 218.414C238.344 219.114 238.351 219.464 238.351 219.464C238.351 219.464 238.316 219.107 238.274 218.414C238.232 217.721 238.162 216.692 238.085 215.362C237.917 212.681 237.686 208.747 237.336 203.735C237.245 202.482 237.154 201.166 237.035 199.78C236.916 198.394 236.79 196.945 236.748 195.433C236.65 192.395 236.622 189.133 236.601 185.633C236.566 178.633 236.601 170.688 236.685 162.022C235.952 156.73 235.18 151.156 234.368 145.299V145.355L228.929 135.975L229.167 136.038C228.643 136.386 228.207 136.849 227.892 137.393C227.578 137.937 227.394 138.547 227.354 139.174C227.347 139.818 227.456 140.458 227.676 141.064C227.895 141.699 228.084 142.343 228.243 142.996C228.875 145.65 229.358 148.338 229.692 151.046L229.79 151.809L229.363 151.165L215.944 130.977L215.79 130.739L215.979 130.816C215.498 131.011 215.084 131.342 214.789 131.768C214.47 132.198 214.211 132.669 214.019 133.168C213.659 134.157 213.424 135.187 213.319 136.234V136.311L213.249 136.367C212.32 137.053 211.663 138.044 211.394 139.167C211.16 140.293 211.287 141.464 211.758 142.513C212.689 144.648 213.676 146.776 214.446 148.946C215.249 151.084 215.908 153.272 216.42 155.498C216.682 156.619 216.876 157.755 217.001 158.9C217.148 160.007 217.162 161.128 217.043 162.239L216.98 162.687L216.721 162.309C213.69 157.843 210.736 153.503 207.95 149.408L208.153 149.464C207.67 149.681 207.117 149.863 206.704 150.094C206.29 150.371 205.991 150.789 205.864 151.27C205.715 151.76 205.64 152.27 205.64 152.782C205.623 153.288 205.674 153.795 205.794 154.287C206.168 155.249 206.608 156.185 207.11 157.087C207.572 158.004 207.985 158.935 208.37 159.887C209.896 163.604 211.107 167.251 212.199 170.723V170.779C211.499 177.898 211.051 184.457 210.967 190.316C210.967 191.777 210.995 193.193 211.051 194.565C211.083 195.883 211.351 197.184 211.842 198.408C212.326 199.474 213.027 200.427 213.901 201.205C214.775 201.984 215.802 202.571 216.917 202.93H216.994V203C216.343 208.313 215.839 212.457 215.496 215.285L215.097 218.498C215.02 219.191 214.957 219.562 214.957 219.562Z" fill="#D37A57"/>
<path d="M225.317 163.485C225.2 163.108 225.116 162.721 225.065 162.33C224.932 161.581 224.708 160.503 224.407 159.173C223.589 155.729 222.428 152.375 220.942 149.163C219.423 145.959 217.656 142.879 215.657 139.951C214.901 138.824 214.257 137.921 213.83 137.298C213.591 136.982 213.373 136.649 213.179 136.304C213.459 136.585 213.714 136.889 213.942 137.214C214.418 137.809 215.083 138.691 215.874 139.804C217.946 142.704 219.753 145.784 221.271 149.009C222.774 152.241 223.91 155.632 224.659 159.117C224.925 160.454 225.121 161.546 225.205 162.309C225.277 162.697 225.314 163.09 225.317 163.485Z" fill="#D37A57"/>
<path d="M232.596 158.27C231.916 157.111 231.342 155.893 230.881 154.63C230.298 153.419 229.829 152.156 229.481 150.857C230.157 152.015 230.729 153.231 231.189 154.49C231.77 155.705 232.241 156.97 232.596 158.27Z" fill="#D37A57"/>
<path d="M213.087 212.688C208.971 249.004 203.616 287.658 197.456 327.81H245.175C254.149 307.944 248.675 290.612 246.267 265.909L238.399 209.818L213.087 212.688Z" fill="#F2A085"/>
<path d="M197.456 327.81C197.448 327.733 197.448 327.656 197.456 327.579L197.54 326.879C197.631 326.256 197.75 325.367 197.904 324.24C198.24 321.923 198.723 318.64 199.304 314.524C200.508 306.306 202.174 294.994 204.008 282.492C205.842 269.99 207.333 258.636 208.334 250.411C208.845 246.295 209.23 242.97 209.489 240.667C209.622 239.533 209.727 238.644 209.804 238.014L209.888 237.314C209.897 237.236 209.913 237.158 209.937 237.083C209.937 237.083 209.937 237.16 209.937 237.314L209.881 238.014C209.825 238.644 209.741 239.54 209.636 240.674C209.419 242.977 209.076 246.316 208.593 250.432C207.662 258.664 206.178 270.032 204.393 282.541C202.608 295.05 200.851 306.341 199.577 314.559C198.94 318.633 198.415 321.937 198.051 324.254C197.869 325.374 197.722 326.256 197.624 326.886C197.575 327.166 197.533 327.397 197.505 327.586C197.495 327.662 197.479 327.737 197.456 327.81Z" fill="#263238"/>
<path d="M300.846 327.495H164.773L182.329 231.994C182.631 230.356 183.496 228.876 184.775 227.808C186.053 226.741 187.664 226.154 189.329 226.149H311.619C312.669 226.151 313.706 226.385 314.655 226.833C315.604 227.281 316.443 227.933 317.111 228.743C317.78 229.552 318.261 230.499 318.522 231.516C318.783 232.533 318.816 233.595 318.619 234.626L300.846 327.495Z" fill="#455A64"/>
<path d="M164.773 327.495H113.155L113.365 327.341C117.969 323.882 123.528 321.926 129.283 321.741L166.187 320.656L164.773 327.495Z" fill="#455A64"/>
<path d="M197.456 226.275C197.456 226.31 197.078 226.205 196.357 226.198C195.304 226.214 194.269 226.473 193.333 226.954C191.85 227.707 190.597 228.846 189.707 230.251C188.582 232.15 187.827 234.245 187.481 236.425C187.04 238.84 186.648 241.521 186.165 244.384C185.682 247.247 185.15 250.299 184.548 253.484C183.365 259.903 181.958 266.945 180.432 274.316C177.359 289.065 174.51 302.4 172.655 312.116C171.717 316.96 170.996 320.887 170.506 323.603C170.261 324.933 170.072 325.976 169.939 326.725C169.869 327.061 169.82 327.327 169.778 327.537C169.763 327.63 169.74 327.721 169.708 327.81C169.708 327.81 169.708 327.719 169.708 327.53C169.708 327.341 169.778 327.047 169.82 326.711C169.939 325.955 170.093 324.905 170.296 323.568C170.723 320.845 171.395 316.904 172.284 312.046C174.055 302.337 176.848 288.981 179.921 274.246C181.447 266.875 182.861 259.847 184.072 253.435C184.688 250.236 185.227 247.184 185.738 244.335C186.249 241.486 186.648 238.812 187.138 236.376C187.509 234.159 188.303 232.035 189.476 230.118C190.409 228.686 191.717 227.536 193.256 226.793C194.219 226.308 195.286 226.068 196.364 226.093C196.735 226.101 197.103 226.163 197.456 226.275Z" fill="#263238"/>
<path d="M254.927 274.673C254.927 275.974 254.541 277.247 253.818 278.329C253.095 279.411 252.067 280.254 250.865 280.752C249.662 281.25 248.339 281.38 247.063 281.127C245.787 280.873 244.614 280.246 243.694 279.326C242.774 278.406 242.147 277.233 241.893 275.957C241.639 274.68 241.769 273.357 242.267 272.155C242.766 270.953 243.609 269.925 244.691 269.202C245.773 268.479 247.045 268.093 248.347 268.093C250.092 268.093 251.765 268.786 252.999 270.02C254.233 271.254 254.927 272.928 254.927 274.673Z" fill="#F5F5F5"/>
<path d="M334.334 327.6C334.334 327.698 262.675 327.782 174.307 327.782C85.9386 327.782 14.2656 327.705 14.2656 327.6C14.2656 327.495 85.9036 327.418 174.307 327.418C262.71 327.418 334.334 327.502 334.334 327.6Z" fill="#263238"/>
<path d="M144.606 76.867L142.737 59.29L133.77 61.313L126.042 47.663L130.858 66.115L139.951 64.029L144.606 76.867Z" fill="#F2A085"/>
<path d="M140.952 80.185L132.622 71.61L128.695 76.433L118.888 72.394L129.15 80.206L133.119 75.299L140.952 80.185Z" fill="#F2A085"/>
<path d="M231 87.766L238.574 73.99L245.231 78.729L256.256 70.189L245.973 83.671L239.225 78.841L231 87.766Z" fill="#F2A085"/>
<path d="M244.895 95.627L252.728 92.288L253.981 96.53L261.534 96.579L252.644 98.882L251.384 94.57L244.895 95.627Z" fill="#F2A085"/>
<path d="M190.561 42.105C190.561 42.105 190.876 41.902 191.506 41.524C192.447 40.9747 193.422 40.4861 194.425 40.061C198.331 38.3875 202.563 37.6148 206.808 37.8C207.523 37.8215 208.235 37.8799 208.943 37.975C209.695 38.0476 210.44 38.1834 211.169 38.381C211.94 38.5818 212.682 38.8831 213.374 39.277C214.113 39.6884 214.733 40.2841 215.173 41.006C215.617 41.7815 215.771 42.6896 215.607 43.568C215.402 44.4713 214.954 45.3014 214.312 45.969C212.946 47.3451 211.264 48.3664 209.412 48.944C205.37 50.4306 201.06 51.0484 196.763 50.757C191.901 50.4584 187.177 49.0196 182.973 46.557L182.875 46.494L182.938 46.396C184.733 43.5716 187.239 41.2686 190.204 39.718C193.342 38.0575 196.792 37.0704 200.333 36.82C204.065 36.5849 207.811 36.8891 211.456 37.723C213.332 38.122 215.208 38.619 217.056 39.2C218.985 39.7224 220.86 40.4255 222.656 41.3C224.515 42.2111 226.073 43.6374 227.143 45.409C227.674 46.3207 228.006 47.3347 228.116 48.384C228.212 49.4518 228.034 50.5264 227.598 51.506C226.615 53.4355 225.016 54.9823 223.055 55.902C221.112 56.8788 219.051 57.6011 216.923 58.051C208.082 60.1977 198.886 60.4363 189.945 58.751C189.364 58.653 188.797 58.513 188.216 58.394C187.635 58.275 187.068 58.142 186.494 57.995C185.333 57.735 184.193 57.3863 183.085 56.952C181.958 56.51 180.907 55.8935 179.97 55.125C178.997 54.3392 178.331 53.2368 178.087 52.01C177.881 50.7613 178.162 49.481 178.871 48.433C179.569 47.406 180.455 46.5201 181.482 45.822C182.501 45.1201 183.584 44.5155 184.716 44.016C185.262 43.736 185.836 43.491 186.403 43.253C186.97 43.015 187.544 42.77 188.132 42.553C192.858 40.7787 197.855 39.8315 202.902 39.753C205.466 39.7103 208.028 39.8883 210.56 40.285C211.197 40.383 211.834 40.488 212.471 40.635C213.108 40.782 213.738 40.887 214.361 41.062C215.634 41.3519 216.878 41.7549 218.078 42.266C219.301 42.771 220.435 43.4681 221.438 44.331C222.467 45.2059 223.2 46.3768 223.538 47.684L223.643 48.181L223.685 48.692C223.71 49.0299 223.71 49.3691 223.685 49.707C223.596 50.3789 223.398 51.0315 223.097 51.639C222.482 52.8423 221.618 53.9016 220.563 54.747C219.532 55.6086 218.404 56.3485 217.203 56.952C216.608 57.267 215.992 57.533 215.376 57.792C214.76 58.051 214.144 58.317 213.514 58.555C211.004 59.5242 208.426 60.308 205.8 60.9C200.474 62.1332 194.996 62.586 189.539 62.244C186.75 62.1409 184.018 61.4238 181.538 60.144C180.283 59.4799 179.208 58.5186 178.409 57.344C177.644 56.1247 177.29 54.6915 177.401 53.256C177.506 52.093 177.882 50.9709 178.5 49.98C179.122 49.0058 179.881 48.1264 180.754 47.369C182.492 45.8885 184.462 44.7059 186.585 43.869C190.737 42.108 195.15 41.0437 199.647 40.719C201.866 40.5567 204.095 40.5731 206.311 40.768C207.417 40.866 208.516 41.006 209.608 41.195C210.707 41.3626 211.787 41.6321 212.835 42C213.892 42.3464 214.892 42.8464 215.803 43.484C216.744 44.1109 217.487 44.9922 217.945 46.025C218.389 47.0753 218.426 48.2527 218.05 49.329C217.677 50.3811 217.038 51.319 216.195 52.052C214.515 53.536 212.345 54.152 210.28 54.663C208.215 55.174 206.129 55.65 204.057 56.105C199.962 57.0573 195.806 57.7239 191.618 58.1C187.5 58.4743 183.349 58.2764 179.284 57.512C175.296 56.7608 171.5 55.2107 168.126 52.955L167.944 52.836L168.105 52.689C173.8 47.7758 180.794 44.6154 188.244 43.589C195.312 42.497 202.544 43.4013 209.125 46.2C209.91 46.5725 210.643 47.0429 211.309 47.6C211.989 48.1567 212.512 48.8803 212.828 49.7C213.106 50.5494 213.061 51.4716 212.702 52.29C212.323 53.0725 211.756 53.7485 211.05 54.257C209.663 55.1994 208.131 55.9087 206.514 56.357C204.952 56.8577 203.354 57.2368 201.733 57.491C198.565 57.9845 195.34 57.9845 192.171 57.491C191.379 57.4184 190.618 57.1462 189.959 56.7C189.642 56.437 189.399 56.0941 189.258 55.7066C189.117 55.3191 189.081 54.9009 189.154 54.495C189.361 53.7206 189.795 53.0258 190.4 52.5C190.965 51.9722 191.601 51.5268 192.29 51.177C197.623 48.7917 203.492 47.8618 209.3 48.482C210.682 48.6089 212.041 48.9221 213.339 49.413C214.631 49.8864 215.764 50.7135 216.608 51.8C217.434 52.8808 217.824 54.2324 217.7 55.587C217.49 56.8915 216.789 58.0661 215.74 58.87C214.766 59.6438 213.721 60.3236 212.618 60.9C211.545 61.4901 210.437 62.0137 209.3 62.468C207.135 63.3316 204.882 63.9537 202.58 64.323C198.387 65.0044 194.099 64.8186 189.98 63.777H189.847L189.924 63.672C191.693 61.2787 194.128 59.4599 196.924 58.443C199.362 57.5268 201.998 57.2661 204.568 57.687C205.724 57.8467 206.829 58.2629 207.802 58.905C208.253 59.2158 208.641 59.6103 208.943 60.067C209.225 60.5139 209.402 61.0189 209.461 61.544C209.536 62.5251 209.263 63.5012 208.691 64.302C208.2 65.0228 207.589 65.6548 206.885 66.171C205.69 66.9752 204.386 67.6067 203.014 68.047C202.047 68.3953 201.106 68.8141 200.2 69.3C199.65 69.6047 199.138 69.9736 198.674 70.399C198.52 70.539 198.415 70.658 198.338 70.735L198.226 70.847C198.363 70.6833 198.508 70.5268 198.66 70.378C199.117 69.9446 199.625 69.5685 200.172 69.258C201.072 68.7586 202.008 68.328 202.972 67.97C204.333 67.5175 205.626 66.8817 206.815 66.08C207.508 65.5682 208.107 64.9406 208.586 64.225C209.143 63.4474 209.406 62.4973 209.328 61.544C209.271 61.0446 209.098 60.5654 208.824 60.144C208.533 59.6974 208.154 59.3141 207.711 59.017C206.754 58.3893 205.668 57.985 204.533 57.834C201.988 57.4225 199.379 57.6855 196.966 58.597C194.202 59.6099 191.797 61.4138 190.05 63.784L190.001 63.644C194.094 64.6675 198.354 64.8437 202.517 64.162C204.819 63.789 207.072 63.1646 209.237 62.3C210.359 61.8512 211.452 61.337 212.513 60.76C213.61 60.1841 214.648 59.5043 215.614 58.73C216.614 57.9599 217.285 56.8391 217.49 55.594C217.591 54.3023 217.207 53.0195 216.412 51.996C215.603 50.9439 214.514 50.141 213.269 49.679C211.996 49.1847 210.66 48.8691 209.3 48.741C203.528 48.1134 197.694 49.0339 192.395 51.408C191.731 51.7431 191.118 52.1721 190.575 52.682C190.021 53.1747 189.624 53.82 189.434 54.537C189.369 54.8922 189.399 55.2585 189.522 55.5981C189.645 55.9377 189.856 56.2384 190.134 56.469C190.751 56.9229 191.474 57.2098 192.234 57.302C195.37 57.7884 198.562 57.7884 201.698 57.302C203.304 57.0442 204.889 56.6652 206.437 56.168C208.024 55.7173 209.526 55.0078 210.882 54.068C211.545 53.5897 212.079 52.9549 212.436 52.22C212.764 51.472 212.803 50.6296 212.548 49.854C212.266 49.0812 211.782 48.3975 211.148 47.873C210.513 47.3163 209.807 46.8456 209.048 46.473C202.512 43.6823 195.325 42.7754 188.3 43.855C180.909 44.8969 173.977 48.0576 168.343 52.955V52.682C171.684 54.9056 175.438 56.4339 179.382 57.176C183.414 57.9369 187.532 58.1348 191.618 57.764C195.79 57.3792 199.93 56.7056 204.008 55.748C206.108 55.293 208.152 54.803 210.224 54.306C212.296 53.809 214.424 53.193 215.985 51.779C216.771 51.0754 217.362 50.1809 217.7 49.182C218.041 48.1839 218.004 47.0954 217.595 46.123C217.162 45.1548 216.463 44.3294 215.579 43.743C214.694 43.1288 213.725 42.6455 212.702 42.308C211.672 41.9544 210.61 41.699 209.531 41.545C208.453 41.356 207.361 41.216 206.269 41.118C204.069 40.929 201.857 40.9149 199.654 41.076C195.2 41.3989 190.83 42.4537 186.718 44.198C184.627 45.0189 182.687 46.1829 180.978 47.642C179.326 49.112 177.898 51.051 177.716 53.291C177.612 54.6454 177.946 55.9975 178.668 57.148C179.435 58.271 180.463 59.191 181.664 59.829C184.097 61.0823 186.776 61.7849 189.511 61.887C194.935 62.2266 200.379 61.7786 205.674 60.557C208.295 59.958 210.868 59.1696 213.374 58.198C213.995 57.96 214.611 57.708 215.222 57.442C215.838 57.183 216.44 56.917 217.028 56.609C218.203 56.0168 219.307 55.2936 220.318 54.453C221.333 53.6384 222.165 52.6202 222.761 51.464C223.042 50.8909 223.229 50.2764 223.314 49.644C223.339 49.3271 223.339 49.0089 223.314 48.692L223.272 48.216L223.174 47.747C222.858 46.5121 222.169 45.4047 221.2 44.576C220.224 43.7398 219.12 43.0641 217.931 42.574C216.749 42.0697 215.524 41.6714 214.27 41.384C213.647 41.216 213.017 41.09 212.387 40.957C211.757 40.824 211.134 40.712 210.497 40.614C203.011 39.4326 195.346 40.2041 188.244 42.854C187.663 43.057 187.096 43.288 186.529 43.554C185.962 43.82 185.402 44.03 184.856 44.31C183.742 44.8024 182.675 45.3976 181.671 46.088C180.68 46.7586 179.825 47.6114 179.151 48.601C178.486 49.5781 178.22 50.7731 178.409 51.94C178.643 53.089 179.269 54.1209 180.18 54.859C181.088 55.6056 182.109 56.2034 183.204 56.63C184.298 57.0613 185.424 57.4054 186.571 57.659C187.138 57.806 187.705 57.946 188.279 58.058C188.853 58.17 189.42 58.317 189.994 58.415C198.891 60.0898 208.042 59.8512 216.839 57.715C218.942 57.2804 220.98 56.5745 222.901 55.615C224.756 54.635 226.485 53.263 227.325 51.366C227.737 50.434 227.906 49.4128 227.815 48.398C227.71 47.3748 227.385 46.3863 226.863 45.5C225.817 43.7798 224.301 42.3933 222.495 41.503C220.725 40.6356 218.878 39.9327 216.979 39.403C215.11 38.822 213.241 38.325 211.379 37.926C207.758 37.0933 204.035 36.7869 200.326 37.016C196.82 37.2677 193.406 38.2501 190.302 39.9C187.37 41.4247 184.891 43.694 183.113 46.48L183.071 46.319C186.999 48.6362 191.389 50.0574 195.929 50.4809C200.47 50.9045 205.047 50.3199 209.335 48.769C211.172 48.2033 212.843 47.1963 214.2 45.836C214.822 45.1904 215.259 44.3905 215.467 43.519C215.627 42.677 215.481 41.8055 215.054 41.062C214.629 40.3599 214.029 39.7809 213.311 39.382C212.631 38.9902 211.901 38.6913 211.141 38.493C210.419 38.2953 209.681 38.1572 208.936 38.08C208.236 37.982 207.536 37.933 206.836 37.898C202.604 37.7104 198.384 38.4684 194.481 40.117C193.48 40.5269 192.503 40.9943 191.555 41.517C190.89 41.923 190.561 42.105 190.561 42.105Z" fill="#263238"/>
</svg>
